<svg width="28" height="16" viewBox="0 0 28 16" fill="none" xmlns="http://www.w3.org/2000/svg"><path fill-rule="evenodd" clip-rule="evenodd" d="M2.388 1.092v13.816c0 .596-.543 1.092-1.194 1.092C.52 16 0 15.504 0 14.908V1.092C0 .496.52 0 1.194 0c.651 0 1.194.496 1.194 1.092zm4.254 8v5.816c0 .596-.543 1.092-1.216 1.092-.65 0-1.194-.496-1.194-1.092V9.092C4.232 8.476 4.775 8 5.426 8c.673 0 1.216.476 1.216 1.092zm4.232 0v5.816c0 .596-.521 1.092-1.194 1.092-.651 0-1.194-.496-1.194-1.092V9.092C8.486 8.476 9.03 8 9.68 8c.673 0 1.194.476 1.194 1.092zm4.256-4.328v10.144c0 .596-.543 1.092-1.194 1.092-.673 0-1.194-.496-1.194-1.092V4.764c0-.615.521-1.111 1.194-1.111.651 0 1.194.496 1.194 1.111zm4.23 4.328v5.816c0 .596-.52 1.092-1.194 1.092-.65 0-1.193-.496-1.193-1.092V9.092c0-.616.542-1.092 1.194-1.092.672 0 1.193.476 1.193 1.092zm4.256 0v5.816c0 .596-.543 1.092-1.194 1.092-.65 0-1.194-.496-1.194-1.092V9.092c0-.616.543-1.092 1.194-1.092.651 0 1.194.476 1.194 1.092zm4.384-8v13.816c0 .596-.544 1.092-1.195 1.092-.672 0-1.215-.496-1.215-1.092V1.092C25.59.496 26.133 0 26.805 0 27.456 0 28 .496 28 1.092z" fill="#B0558C"/></svg>76425C12.7422 4.14887 13.2631 3.65259 13.936 3.65259C14.5872 3.65259 15.1298 4.14887 15.1298 4.76425Z"
          fill="#B0558C"/>
    <path fill-rule="evenodd" clip-rule="evenodd"
          d="M19.3603 9.09178V14.9082C19.3603 15.5037 18.8393 16 18.1665 16C17.5153 16 16.9727 15.5037 16.9727 14.9082V9.09178C16.9727 8.4764 17.5153 7.99997 18.1665 7.99997C18.8393 7.99997 19.3603 8.4764 19.3603 9.09178Z"
          fill="#B0558C"/>
    <path fill-rule="evenodd" clip-rule="evenodd"
          d="M23.6161 9.09178V14.9082C23.6161 15.5037 23.0735 16 22.4223 16C21.7712 16 21.2285 15.5037 21.2285 14.9082V9.09178C21.2285 8.4764 21.7712 7.99997 22.4223 7.99997C23.0735 7.99997 23.6161 8.4764 23.6161 9.09178Z"
          fill="#B0558C"/>
    <path fill-rule="evenodd" clip-rule="evenodd"
          d="M27.9992 1.09181V14.9082C27.9992 15.5037 27.4565 16 26.8054 16C26.1325 16 25.5898 15.5037 25.5898 14.9082V1.09181C25.5898 0.496278 26.1325 0 26.8054 0C27.4565 0 27.9992 0.496278 27.9992 1.09181Z"
          fill="#B0558C"/>
</svg>
