<svg width="28" height="16" viewBox="0 0 28 16" fill="none" xmlns="http://www.w3.org/2000/svg">
    <path fill-rule="evenodd" clip-rule="evenodd"
          d="M2.3876 1.09181V14.9082C2.3876 15.5037 1.84496 16 1.1938 16C0.52093 16 0 15.5037 0 14.9082V1.09181C0 0.496278 0.52093 0 1.1938 0C1.84496 0 2.3876 0.496278 2.3876 1.09181Z"
          fill="#B0558C"/>
    <path fill-rule="evenodd" clip-rule="evenodd"
          d="M6.64172 9.09178V14.9082C6.64172 15.5037 6.09909 16 5.42622 16C4.77506 16 4.23242 15.5037 4.23242 14.9082V9.09178C4.23242 8.4764 4.77506 7.99997 5.42622 7.99997C6.09909 7.99997 6.64172 8.4764 6.64172 9.09178Z"
          fill="#B0558C"/>
    <path fill-rule="evenodd" clip-rule="evenodd"
          d="M10.8739 9.09178V14.9082C10.8739 15.5037 10.353 16 9.68012 16C9.02896 16 8.48633 15.5037 8.48633 14.9082V9.09178C8.48633 8.4764 9.02896 7.99997 9.68012 7.99997C10.353 7.99997 10.8739 8.4764 10.8739 9.09178Z"
          fill="#B0558C"/>
    <path fill-rule="evenodd" clip-rule="evenodd"
          d="M15.1298 4.76425V14.9082C15.1298 15.5037 14.5872 16 13.936 16C13.2631 16 12.7422 15.5037 12.7422 14.9082V4.76425C12.7422 4.14887 13.2631 3.65259 13.936 3.65259C14.5872 3.65259 15.1298 4.14887 15.1298 4.76425Z"
          fill="#B0558C"/>
    <path fill-rule="evenodd" clip-rule="evenodd"
          d="M19.3603 9.09178V14.9082C19.3603 15.5037 18.8393 16 18.1665 16C17.5153 16 16.9727 15.5037 16.9727 14.9082V9.09178C16.9727 8.4764 17.5153 7.99997 18.1665 7.99997C18.8393 7.99997 19.3603 8.4764 19.3603 9.09178Z"
          fill="#B0558C"/>
    <path fill-rule="evenodd" clip-rule="evenodd"
          d="M23.6161 9.09178V14.9082C23.6161 15.5037 23.0735 16 22.4223 16C21.7712 16 21.2285 15.5037 21.2285 14.9082V9.09178C21.2285 8.4764 21.7712 7.99997 22.4223 7.99997C23.0735 7.99997 23.6161 8.4764 23.6161 9.09178Z"
          fill="#B0558C"/>
    <path fill-rule="evenodd" clip-rule="evenodd"
          d="M27.9992 1.09181V14.9082C27.9992 15.5037 27.4565 16 26.8054 16C26.1325 16 25.5898 15.5037 25.5898 14.9082V1.09181C25.5898 0.496278 26.1325 0 26.8054 0C27.4565 0 27.9992 0.496278 27.9992 1.09181Z"
          fill="#B0558C"/>
</svg>
