<svg width="134" height="20" viewBox="0 0 134 20" fill="none" xmlns="http://www.w3.org/2000/svg">
    <g clip-path="url(#clip0)">
        <path d="M41.52 6.1V14H39.44V3.54H42.78L45.4 10.06L48.04 3.54H51.18V14H48.8V6.1L45.5 14H44.7L41.52 6.1ZM58.6689 14.2C57.0956 14.2 55.8156 13.72 54.8289 12.76C53.8556 11.8 53.3689 10.5067 53.3689 8.88V8.72C53.3689 7.12 53.8556 5.82 54.8289 4.82C55.8156 3.82 57.0622 3.32 58.5689 3.32C59.9822 3.32 61.1556 3.76 62.0889 4.64C63.0356 5.52 63.5089 6.84 63.5089 8.6V9.3H55.8489C55.8889 10.3 56.1489 11.0667 56.6289 11.6C57.1222 12.1333 57.8222 12.4 58.7289 12.4C60.1422 12.4 60.9422 11.8667 61.1289 10.8H63.4689C63.2956 11.9067 62.7889 12.7533 61.9489 13.34C61.1222 13.9133 60.0289 14.2 58.6689 14.2ZM61.1089 7.68C60.9756 5.94667 60.1289 5.08 58.5689 5.08C57.8489 5.08 57.2489 5.31333 56.7689 5.78C56.3022 6.23333 56.0089 6.86667 55.8889 7.68H61.1089ZM73.3928 5.34H70.1928V14H67.7728V5.34H64.5728V3.54H73.3928V5.34ZM75.2798 3.54H77.6998V5.22C78.0065 4.68667 78.4665 4.24 79.0798 3.88C79.7065 3.50667 80.3865 3.32 81.1198 3.32C82.4665 3.32 83.5732 3.8 84.4398 4.76C85.3198 5.70667 85.7598 7 85.7598 8.64V8.8C85.7598 10.4533 85.3265 11.7667 84.4598 12.74C83.6065 13.7133 82.4932 14.2 81.1198 14.2C80.3198 14.2 79.6198 14.0333 79.0198 13.7C78.4332 13.3533 77.9932 12.9067 77.6998 12.36V17.58H75.2798V3.54ZM80.5198 12.28C81.4132 12.28 82.0932 11.9867 82.5598 11.4C83.0398 10.8133 83.2798 9.96 83.2798 8.84V8.68C83.2798 7.56 83.0198 6.70667 82.4998 6.12C81.9932 5.52 81.3265 5.22 80.4998 5.22C79.6198 5.22 78.9198 5.51333 78.3998 6.1C77.8798 6.68667 77.6198 7.54667 77.6198 8.68V8.84C77.6198 9.97333 77.8732 10.8333 78.3798 11.42C78.8998 11.9933 79.6132 12.28 80.5198 12.28ZM97.3161 3.54H99.7361V14H97.3161V3.54ZM87.9361 3.54H90.3561V6.98H92.1361C93.3494 6.98 94.3228 7.27333 95.0561 7.86C95.7894 8.44667 96.1561 9.31333 96.1561 10.46V10.52C96.1561 11.6533 95.7894 12.52 95.0561 13.12C94.3361 13.7067 93.3428 14 92.0761 14H87.9361V3.54ZM91.7961 12.24C92.4628 12.24 92.9494 12.1067 93.2561 11.84C93.5761 11.56 93.7361 11.1133 93.7361 10.5V10.44C93.7361 9.30667 93.0894 8.74 91.7961 8.74H90.3561V12.24H91.7961ZM104.064 14.14C103.624 14.14 103.25 13.9933 102.944 13.7C102.637 13.3933 102.484 13.02 102.484 12.58C102.484 12.14 102.637 11.7667 102.944 11.46C103.25 11.1533 103.624 11 104.064 11C104.517 11 104.897 11.1533 105.204 11.46C105.51 11.7667 105.664 12.14 105.664 12.58C105.664 13.02 105.51 13.3933 105.204 13.7C104.897 13.9933 104.517 14.14 104.064 14.14ZM108.483 3.54H110.903V5.22C111.21 4.68667 111.67 4.24 112.283 3.88C112.91 3.50667 113.59 3.32 114.323 3.32C115.67 3.32 116.776 3.8 117.643 4.76C118.523 5.70667 118.963 7 118.963 8.64V8.8C118.963 10.4533 118.53 11.7667 117.663 12.74C116.81 13.7133 115.696 14.2 114.323 14.2C113.523 14.2 112.823 14.0333 112.223 13.7C111.636 13.3533 111.196 12.9067 110.903 12.36V17.58H108.483V3.54ZM113.723 12.28C114.616 12.28 115.296 11.9867 115.763 11.4C116.243 10.8133 116.483 9.96 116.483 8.84V8.68C116.483 7.56 116.223 6.70667 115.703 6.12C115.196 5.52 114.53 5.22 113.703 5.22C112.823 5.22 112.123 5.51333 111.603 6.1C111.083 6.68667 110.823 7.54667 110.823 8.68V8.84C110.823 9.97333 111.076 10.8333 111.583 11.42C112.103 11.9933 112.816 12.28 113.723 12.28ZM123.906 12.94L119.766 3.54H122.386L125.166 10.28L127.726 3.54H130.086L124.386 17.58H122.006L123.906 12.94Z" fill="#121212"/>
        <path fill-rule="evenodd" clip-rule="evenodd" d="M4.69667 1.41615V15.0239C4.69667 15.6104 4.14644 16.0992 3.48615 16.0992C2.80386 16.0992 2.27563 15.6104 2.27563 15.0239V1.41615C2.27563 0.829604 2.80386 0.34082 3.48615 0.34082C4.14644 0.34082 4.69667 0.829604 4.69667 1.41615Z" fill="#B0558C"/>
        <path fill-rule="evenodd" clip-rule="evenodd" d="M9.01043 9.2953V15.0238C9.01043 15.6104 8.46019 16.0992 7.7779 16.0992C7.11762 16.0992 6.56738 15.6104 6.56738 15.0238V9.2953C6.56738 8.6892 7.11762 8.21997 7.7779 8.21997C8.46019 8.21997 9.01043 8.6892 9.01043 9.2953Z" fill="#B0558C"/>
        <path fill-rule="evenodd" clip-rule="evenodd" d="M13.3024 9.2953V15.0238C13.3024 15.6104 12.7742 16.0992 12.0919 16.0992C11.4316 16.0992 10.8813 15.6104 10.8813 15.0238V9.2953C10.8813 8.6892 11.4316 8.21997 12.0919 8.21997C12.7742 8.21997 13.3024 8.6892 13.3024 9.2953Z" fill="#B0558C"/>
        <path fill-rule="evenodd" clip-rule="evenodd" d="M17.6164 5.03311V15.0239C17.6164 15.6104 17.0661 16.0992 16.4058 16.0992C15.7235 16.0992 15.1953 15.6104 15.1953 15.0239V5.03311C15.1953 4.42702 15.7235 3.93823 16.4058 3.93823C17.0661 3.93823 17.6164 4.42702 17.6164 5.03311Z" fill="#B0558C"/>
        <path fill-rule="evenodd" clip-rule="evenodd" d="M21.9082 9.2953V15.0238C21.9082 15.6104 21.38 16.0992 20.6977 16.0992C20.0374 16.0992 19.4872 15.6104 19.4872 15.0238V9.2953C19.4872 8.6892 20.0374 8.21997 20.6977 8.21997C21.38 8.21997 21.9082 8.6892 21.9082 9.2953Z" fill="#B0558C"/>
        <path fill-rule="evenodd" clip-rule="evenodd" d="M26.2219 9.2953V15.0238C26.2219 15.6104 25.6717 16.0992 25.0114 16.0992C24.3511 16.0992 23.8009 15.6104 23.8009 15.0238V9.2953C23.8009 8.6892 24.3511 8.21997 25.0114 8.21997C25.6717 8.21997 26.2219 8.6892 26.2219 9.2953Z" fill="#B0558C"/>
        <path fill-rule="evenodd" clip-rule="evenodd" d="M30.6679 1.41615V15.0239C30.6679 15.6104 30.1177 16.0992 29.4574 16.0992C28.7751 16.0992 28.2249 15.6104 28.2249 15.0239V1.41615C28.2249 0.829604 28.7751 0.34082 29.4574 0.34082C30.1177 0.34082 30.6679 0.829604 30.6679 1.41615Z" fill="#B0558C"/>
    </g>
    <defs>
        <clipPath id="clip0">
            <rect width="134" height="20" fill="white"/>
        </clipPath>
    </defs>
</svg>
