<svg width="143" height="82" viewBox="0 0 143 82" fill="none" xmlns="http://www.w3.org/2000/svg"><path d="M80.196 19.068c-.326.443-.77 1.151-1.274 2.125s-.77 2.184-.77 3.601c0 1.27.296 2.51.859 3.69.563 1.18 1.303 2.302 2.163 3.395a68.312 68.312 0 002.784 3.276 49.302 49.302 0 012.785 3.365c.86 1.151 1.6 2.361 2.163 3.601a9.81 9.81 0 01.859 4.044c0 .827-.089 1.535-.267 2.155a7.19 7.19 0 01-.71 1.682c-.297.502-.564.915-.86 1.27-.296.354-.533.65-.74.885a6.098 6.098 0 001.895-.59c.652-.295 1.215-.738 1.719-1.299.533-.56.948-1.21 1.244-1.978.326-.767.474-1.653.474-2.627 0-1.476-.296-2.863-.918-4.162a20.19 20.19 0 00-2.34-3.748 42.522 42.522 0 00-3.082-3.483 54.462 54.462 0 01-3.08-3.425c-.949-1.15-1.749-2.331-2.37-3.542a8.384 8.384 0 01-.949-3.867c0-.855.148-1.741.415-2.656s.711-1.712 1.363-2.48c.651-.738 1.481-1.357 2.518-1.83 1.037-.472 2.31-.708 3.851-.708a14.325 14.325 0 015.244.944 16.91 16.91 0 011.748.797c.474.266.859.473 1.155.65l-1.57 3.896c-.119-.236-.326-.62-.622-1.18-.296-.532-.711-1.063-1.245-1.594-.533-.532-1.214-1.004-2.044-1.388-.83-.384-1.836-.59-2.992-.59-1.214 0-2.222.206-3.051.62a6.46 6.46 0 00-2.044 1.564c-.534.65-.919 1.328-1.156 2.096a7.534 7.534 0 00-.355 2.243c0 1.21.296 2.362.918 3.483a22.978 22.978 0 002.311 3.395 50.9 50.9 0 002.992 3.365 40.991 40.991 0 012.963 3.483c.918 1.21 1.688 2.48 2.28 3.837a9.849 9.849 0 01.92 4.221c0 1.417-.267 2.598-.83 3.631-.563 1.004-1.245 1.83-2.074 2.509a9.854 9.854 0 01-2.726 1.505c-.977.355-1.955.561-2.844.59-.444.414-1.274.916-2.518 1.477-1.214.59-2.903.856-5.066.856-1.57 0-3.051-.207-4.473-.62-1.392-.413-2.666-1.004-3.762-1.771a9.187 9.187 0 01-2.607-2.745c-.652-1.063-.978-2.273-.978-3.66v-.68l4.029-3.099a14.45 14.45 0 00-.444 1.505 7.442 7.442 0 00-.178 1.654c0 .974.207 1.977.622 3.01a7.884 7.884 0 001.837 2.716A9.48 9.48 0 0074.3 54.46c1.125.53 2.429.767 3.88.767 1.452 0 2.667-.266 3.674-.767a7.296 7.296 0 002.43-1.978 7.622 7.622 0 001.332-2.686c.267-.974.415-1.948.415-2.834a9.554 9.554 0 00-.8-3.896 17.736 17.736 0 00-2.044-3.424 52.896 52.896 0 00-2.666-3.218 52.894 52.894 0 01-2.666-3.217 17.096 17.096 0 01-2.044-3.454c-.534-1.21-.8-2.538-.8-3.985 0-1.357.207-2.479.622-3.335.415-.856 1.777-3.188 1.985-3.513l2.577.148z" fill="#8D704E"/><path d="M48.26 36.336c0 .945.563 1.712 1.659 2.303 1.126.59 2.459.885 4.029.885 1.748 0 3.051-.236 3.94-.738.889-.502 1.63-.944 2.192-1.358-.207-.088-.71-.265-1.54-.59-.8-.325-1.689-.65-2.696-.974-1.007-.354-1.985-.679-3.022-.945-1.007-.295-1.837-.442-2.459-.442-.592 0-1.096.177-1.51.501-.386.325-.593.797-.593 1.358zm10.398-4.811c.119-1.18.533-2.51 1.215-3.985.681-1.476 1.54-2.981 2.577-4.546a71.971 71.971 0 013.496-4.811 105.073 105.073 0 014.029-4.812 158.122 158.122 0 014.088-4.427c1.333-1.387 2.578-2.627 3.703-3.749-.355 0-1.155-.088-2.34-.236a193.77 193.77 0 01-3.88-.531c-1.423-.177-2.815-.355-4.178-.502-1.392-.148-2.459-.207-3.2-.207-1.125 0-2.221.118-3.318.354-1.096.237-2.103.62-3.08 1.122L61.413.177A22.99 22.99 0 0164.257 0c1.57 0 2.963.118 4.177.354 1.215.236 2.43.472 3.615.709 1.185.295 2.459.531 3.762.767 1.304.236 2.814.354 4.562.354.919 0 1.896-.088 2.992-.236 1.067-.177 2.015-.413 2.845-.738l-2.045 3.63a156.53 156.53 0 00-5.777 6.17c-1.6 1.86-2.992 3.542-4.117 5.107-1.126 1.534-2.104 2.951-2.874 4.25a245.2 245.2 0 00-2.103 3.601c-.77 1.388-1.422 2.627-1.896 3.69-.474 1.033-.89 1.978-1.245 2.775-.355.797-.681 1.505-.977 2.154-.267.65-.622 1.24-.978 1.771a1.624 1.624 0 00-.207.266c-.06.118-.119.207-.208.354.237.089.711.236 1.422.473.711.236 1.511.472 2.46.708a36.92 36.92 0 002.962.65 18.21 18.21 0 003.022.265c1.57 0 3.17-.265 4.799-.767a20.07 20.07 0 004.503-2.008l.77 3.13c-.948.472-3.733 2.36-6.132 2.685-1.037.148-2.015.355-2.992.355-1.482 0-2.993-.118-4.503-.355a41.825 41.825 0 01-4.118-.855 73.743 73.743 0 01-3.14-.886c-.86-.266-1.393-.443-1.6-.531-.297.206-.622.472-1.037.767-.385.295-.86.62-1.452.886a8.934 8.934 0 01-2.014.708c-.77.177-1.63.266-2.637.266-1.985 0-3.673-.384-5.036-1.181-1.363-.797-2.044-1.83-2.044-3.1 0-.737.177-1.357.503-1.859s.74-.886 1.245-1.21c.503-.295 1.036-.532 1.57-.65a7.441 7.441 0 011.51-.177c.83 0 1.808.118 2.933.295 1.126.207 2.252.473 3.348.738 1.096.296 2.074.561 2.903.797.83.236 1.393.414 1.66.502.355-.384.77-1.003 1.243-1.86a60.88 60.88 0 001.482-3.04c.533-1.15 1.096-2.39 1.718-3.69a66.634 66.634 0 011.896-3.866c.918-1.8 2.044-3.63 3.348-5.431a111.122 111.122 0 013.94-5.048c1.303-1.476 2.518-2.834 3.673-3.985 1.126-1.18 1.985-2.007 2.578-2.509-.208 0-.386 0-.534.03-.148.03-.325.03-.533.03-.178 0-.415 0-.74-.03-.326-.03-.593-.03-.741-.03-1.422 1.446-2.992 3.188-4.8 5.284a107.635 107.635 0 00-5.184 6.553 74.51 74.51 0 00-4.444 6.848c-1.273 2.302-2.133 4.368-2.547 6.258l-4.385 1.387z" fill="#8D704E"/><path d="M66.42 16.087c.296.03.948.03 1.896.148s2.014.236 3.17.354c1.155.118 2.28.207 3.406.295 1.126.089 1.985.118 2.608.089a12.47 12.47 0 002.725-.413c.889-.237 1.215-.62 1.985-1.063l-2.696 4.605c-.74.118-1.363.059-2.133.059-1.274.059-2.43 0-3.436-.178-.978-.177-1.985-.324-2.963-.501a31.127 31.127 0 00-3.051-.561c-1.067-.148-2.281-.207-3.703-.148-.741.03-2.756-.03-4 .296a14.729 14.729 0 00-2.962 1.062l1.896-3.483s4.147-.886 7.258-.56z" fill="#8D704E"/><path d="M5.036 81.94C2.636 81.94 0 80.909 0 79.256v-2.362h.385c.504 2.952 1.955 4.162 4.444 4.162 1.51 0 2.874-.797 2.874-2.243 0-1.27-.83-2.096-2.43-3.04l-2.725-1.594C.71 73.085 0 72.023 0 70.399c0-2.273 1.689-3.719 4.266-3.719 2.192 0 4.77.974 4.77 2.627v2.362H8.65c-.474-2.952-1.896-4.103-4.355-4.103-1.304 0-2.548.856-2.548 2.213 0 1.27.83 1.92 2.459 2.893l2.725 1.594c1.867 1.092 2.726 2.007 2.726 3.63-.03 2.421-1.778 4.045-4.622 4.045zm15.406-14.876c1.54 0 1.866.886 1.866 1.772v1.653h-.415c0-1.772-.977-2.539-2.755-2.539H15.02v5.697h5.955v.885H15.02v6.14h3.852c1.985 0 3.08-.65 3.733-2.42l.444.118-.77 2.096c-.237.649-.77 1.092-1.66 1.092h-7.583V69.69c0-1.328-.208-2.184-1.54-2.184h-.445v-.443h9.39zm16.471 0l-9.361 13.608h9.036v.885H24.797v-.443L33.95 67.92h-5.303c-1.777 0-2.755.767-2.755 2.538h-.444v-1.653c0-.885.325-1.77 1.866-1.77h9.598v.029zm4.947 9.446h5.392l-2.636-6.376-2.755 6.376zm11.021 5.048a3.6 3.6 0 01-.889.118c-.977 0-2.784-.325-3.762-2.864l-.563-1.416h-6.162l-1.777 4.162h-.978l6.162-14.494h.652l4.858 11.749c.682 1.653 1.215 2.184 2.43 2.302v.443h.03zm9.184-10.538c0-2.303-2.222-3.188-3.407-3.188-.563 0-1.215.118-1.659.236v5.815a7.075 7.075 0 001.659.207c1.215 0 3.407-.886 3.407-3.07zm-3.525 3.837H57v6.7h-1.986V69.693c0-1.329-.237-2.185-1.54-2.185h-.445v-.443h5.748c1.866 0 5.51.443 5.51 3.956 0 2.538-1.985 3.394-3.526 3.749l2.311 3.837c1.126 1.86 1.867 2.42 2.992 2.538v.443c-.207.118-.77.207-1.333.207-1.54 0-2.548-.768-3.97-3.188l-2.221-3.749zm16.322-.768c0 5.284 2.43 7.025 5.303 7.025 1.57 0 2.548-.325 3.407-.767V76.51c0-1.21.326-2.569 3.644-2.569v.443c-1.422 0-1.66.797-1.66 2.096v4.132c-1.598.975-3.257 1.388-5.39 1.388-4.414 0-7.495-3.513-7.495-7.911 0-4.192 2.636-7.468 6.843-7.468 2.637 0 4.503.797 5.303 1.771.563.65.563 1.978.563 2.952h-.444c-.563-2.51-2.104-3.837-4.74-3.837-3.792 0-5.333 3.276-5.333 6.582zm21.924-3.069c0-2.303-2.193-3.188-3.407-3.188-.563 0-1.215.118-1.66.236v5.815a7.077 7.077 0 001.66.207c1.214 0 3.407-.886 3.407-3.07zm-3.526 3.837h-1.54v6.7h-1.985V69.693c0-1.329-.237-2.185-1.54-2.185h-.445v-.443h5.747c1.867 0 5.51.443 5.51 3.956 0 2.538-1.984 3.394-3.525 3.749l2.31 3.837c1.127 1.86 1.867 2.42 2.963 2.538v.443c-.207.118-.77.207-1.333.207-1.54 0-2.547-.768-3.97-3.188l-2.192-3.749zm14.931-7.35c-2.874 0-4.621 2.627-4.621 6.818 0 4.162 1.777 6.819 4.621 6.819 2.874 0 4.622-2.627 4.622-6.819 0-4.191-1.778-6.818-4.622-6.818zm0-.886c4.207 0 6.843 3.395 6.843 7.675 0 4.31-2.636 7.704-6.843 7.704-4.177 0-6.843-3.395-6.843-7.704 0-4.31 2.636-7.675 6.843-7.675zm9.954 3.07c0-1.328-.207-2.184-1.54-2.184h-.445v-.443h1.985c1.541 0 1.985.443 1.985 2.627v6.258c0 3.07 1.007 4.93 3.91 4.93 3.378 0 4.474-1.742 4.474-5.61v-8.235h.889v8.236c0 4.28-1.097 6.494-5.629 6.494-4.296 0-5.629-2.214-5.629-6.494v-5.58zm22.633 1.653c0-2.627-2.192-3.512-3.407-3.512-.563 0-1.215.118-1.659.236v6.582a7.073 7.073 0 001.659.207c1.215 0 3.407-.885 3.407-3.513zm-5.066 10.214h-1.985V69.69c0-1.328-.237-2.184-1.54-2.184h-.445v-.443h5.747c1.867 0 5.511.443 5.511 4.399 0 3.748-3.644 4.162-4.859 4.162h-2.429v5.933z" fill="#2A2522"/></svg> 16.0872Z"
          fill="#8D704E"/>
    <path d="M5.03625 81.9408C2.63663 81.9408 0 80.9077 0 79.2547V76.8933H0.385125C0.888751 79.845 2.34038 81.0552 4.82888 81.0552C6.33976 81.0552 7.70251 80.2583 7.70251 78.8119C7.70251 77.5427 6.87301 76.7162 5.27325 75.7716L2.54775 74.1776C0.711001 73.0855 0 72.0229 0 70.3994C0 68.1265 1.68863 66.6802 4.266 66.6802C6.45826 66.6802 9.03563 67.6543 9.03563 69.3072V71.6687H8.65051C8.17651 68.7169 6.75451 67.5657 4.29563 67.5657C2.99213 67.5657 1.74788 68.4217 1.74788 69.7795C1.74788 71.0488 2.57738 71.6982 4.20675 72.6722L6.93226 74.2662C8.79863 75.3583 9.65776 76.2734 9.65776 77.8969C9.62813 80.3173 7.88026 81.9408 5.03625 81.9408Z"
          fill="#2A2522"/>
    <path d="M20.4419 67.0645C21.9824 67.0645 22.3083 67.95 22.3083 68.8355V70.4885H21.8935C21.8935 68.7174 20.9159 67.95 19.1384 67.95H15.0205V73.6469H20.9752V74.5324H15.0205V80.6721H18.8718C20.8567 80.6721 21.9528 80.0227 22.6045 78.2516L23.0489 78.3697L22.2787 80.4655C22.0417 81.1148 21.5084 81.5576 20.6197 81.5576H13.0357V69.6915C13.0357 68.3632 12.8283 67.5072 11.4952 67.5072H11.0508V67.0645H20.4419V67.0645Z"
          fill="#2A2522"/>
    <path d="M36.9135 67.0639L27.552 80.6716H36.5876V81.5571H24.7969V81.1144L33.951 67.92H28.6481C26.8706 67.92 25.893 68.6874 25.893 70.4585H25.4486V68.8055C25.4486 67.92 25.7745 67.0344 27.315 67.0344H36.9135V67.0639Z"
          fill="#2A2522"/>
    <path d="M41.8606 76.5101H47.2524L44.6158 70.1343L41.8606 76.5101ZM52.8811 81.5576C52.6738 81.6167 52.3183 81.6757 51.9924 81.6757C51.0148 81.6757 49.2076 81.351 48.23 78.8125L47.6671 77.3956H41.5051L39.7276 81.5576H38.75L44.912 67.0645H45.5638L50.4223 78.8125C51.1036 80.4655 51.6369 80.9968 52.8515 81.1149V81.5576H52.8811Z"
          fill="#2A2522"/>
    <path d="M62.0649 71.0198C62.0649 68.7174 59.8431 67.8319 58.658 67.8319C58.0952 67.8319 57.4434 67.95 56.9991 68.0681V73.883C57.4434 74.0011 58.0952 74.0897 58.658 74.0897C59.8727 74.0897 62.0649 73.2041 62.0649 71.0198ZM58.5396 74.8571H56.9991V81.5576H55.0142V69.6915C55.0142 68.3632 54.7772 67.5072 53.4737 67.5072H53.0293V67.0645H58.7766C60.6429 67.0645 64.2868 67.5072 64.2868 71.0198C64.2868 73.5583 62.3019 74.4143 60.7614 74.7686L63.0722 78.6058C64.1979 80.4655 64.9386 81.0263 66.0643 81.1444V81.5871C65.8569 81.7052 65.2941 81.7938 64.7312 81.7938C63.1907 81.7938 62.1834 81.0263 60.7614 78.6058L58.5396 74.8571Z"
          fill="#2A2522"/>
    <path d="M74.8622 74.089C74.8622 79.3727 77.2914 81.1142 80.165 81.1142C81.7352 81.1142 82.7128 80.7895 83.5719 80.3468V76.5095C83.5719 75.2993 83.8978 73.9415 87.2158 73.9415V74.3842C85.7938 74.3842 85.5568 75.1812 85.5568 76.48V80.6124C83.957 81.5865 82.298 81.9998 80.165 81.9998C75.7509 81.9998 72.6699 78.4872 72.6699 74.089C72.6699 69.8975 75.3065 66.6211 79.5133 66.6211C82.1499 66.6211 84.0163 67.4181 84.8162 68.3922C85.379 69.0415 85.379 70.3698 85.379 71.3439H84.9347C84.3718 68.8349 82.8313 67.5066 80.1947 67.5066C76.4027 67.5066 74.8622 70.7831 74.8622 74.089Z"
          fill="#2A2522"/>
    <path d="M96.7856 71.0198C96.7856 68.7174 94.5934 67.8319 93.3788 67.8319C92.8159 67.8319 92.1641 67.95 91.7197 68.0681V73.883C92.1641 74.0011 92.8159 74.0897 93.3788 74.0897C94.5934 74.0897 96.7856 73.2041 96.7856 71.0198ZM93.2602 74.8571H91.7197V81.5576H89.7349V69.6915C89.7349 68.3632 89.4979 67.5072 88.1944 67.5072H87.75V67.0645H93.4972C95.3636 67.0645 99.0075 67.5072 99.0075 71.0198C99.0075 73.5583 97.0226 74.4143 95.4821 74.7686L97.7929 78.6058C98.9186 80.4655 99.6592 81.0263 100.755 81.1444V81.5871C100.548 81.7052 99.9851 81.7938 99.4223 81.7938C97.8818 81.7938 96.8745 81.0263 95.4525 78.6058L93.2602 74.8571Z"
          fill="#2A2522"/>
    <path d="M108.191 67.5066C105.317 67.5066 103.57 70.1337 103.57 74.3252C103.57 78.4872 105.347 81.1438 108.191 81.1438C111.065 81.1438 112.813 78.5167 112.813 74.3252C112.813 70.1337 111.035 67.5066 108.191 67.5066ZM108.191 66.6211C112.398 66.6211 115.034 70.0156 115.034 74.2957C115.034 78.6052 112.398 81.9998 108.191 81.9998C104.014 81.9998 101.348 78.6052 101.348 74.2957C101.348 69.9861 103.984 66.6211 108.191 66.6211Z"
          fill="#2A2522"/>
    <path d="M118.145 69.691C118.145 68.3627 117.938 67.5067 116.605 67.5067H116.16V67.0639H118.145C119.686 67.0639 120.13 67.5067 120.13 69.691V75.9488C120.13 79.0186 121.137 80.8782 124.04 80.8782C127.418 80.8782 128.514 79.1367 128.514 75.2698V67.0344H129.403V75.2698C129.403 79.5499 128.306 81.7637 123.774 81.7637C119.478 81.7637 118.145 79.5499 118.145 75.2698V69.691Z"
          fill="#2A2522"/>
    <path d="M140.778 71.3445C140.778 68.7174 138.586 67.8319 137.371 67.8319C136.808 67.8319 136.156 67.95 135.712 68.0681V74.6505C136.156 74.7686 136.808 74.8571 137.371 74.8571C138.586 74.8571 140.778 73.9716 140.778 71.3445ZM135.712 81.5576H133.727V69.6915C133.727 68.3632 133.49 67.5072 132.187 67.5072H131.742V67.0645H137.489C139.356 67.0645 143 67.5072 143 71.4626C143 75.2113 139.356 75.6246 138.141 75.6246H135.712V81.5576V81.5576Z"
          fill="#2A2522"/>
</svg>
