<svg width="143" height="82" viewBox="0 0 143 82" fill="none" xmlns="http://www.w3.org/2000/svg">
    <path d="M80.196 19.0679C79.8701 19.5107 79.4257 20.2191 78.9221 21.1932C78.4185 22.1673 78.1518 23.3775 78.1518 24.7944C78.1518 26.0636 78.4481 27.3034 79.011 28.4841C79.5738 29.6648 80.3145 30.7864 81.1736 31.8786C82.0327 32.9707 82.9807 34.0629 83.9583 35.1551C84.936 36.2472 85.884 37.3689 86.7431 38.5201C87.6022 39.6713 88.3429 40.8815 88.9057 42.1212C89.4686 43.3905 89.7649 44.7188 89.7649 46.1651C89.7649 46.9916 89.676 47.7 89.4982 48.3199C89.3205 48.9398 89.0835 49.5006 88.7872 50.0024C88.491 50.5042 88.2244 50.9175 87.9281 51.2717C87.6319 51.6259 87.3949 51.9211 87.1875 52.1572C87.8096 52.0687 88.4317 51.8916 89.0835 51.5669C89.7352 51.2717 90.2981 50.8289 90.8017 50.2681C91.335 49.7072 91.7497 49.0579 92.046 48.2904C92.3719 47.5229 92.52 46.6374 92.52 45.6633C92.52 44.1874 92.2237 42.8001 91.6016 41.5013C90.9795 40.2026 90.2092 38.9628 89.2612 37.7526C88.3132 36.5424 87.2764 35.3912 86.1802 34.2695C85.0841 33.1479 84.0472 31.9967 83.0992 30.8455C82.1512 29.6943 81.3513 28.5136 80.7292 27.3034C80.1071 26.0931 79.7812 24.7944 79.7812 23.4365C79.7812 22.5805 79.9293 21.695 80.196 20.78C80.4626 19.8649 80.907 19.0679 81.5587 18.3005C82.2105 17.5625 83.04 16.9427 84.0768 16.4704C85.1137 15.9981 86.3876 15.762 87.9281 15.762C88.965 15.762 89.913 15.8505 90.8017 16.0276C91.6905 16.2047 92.4904 16.4409 93.1717 16.7065C93.8531 16.9722 94.416 17.2378 94.9196 17.5035C95.3936 17.7692 95.7787 17.9758 96.075 18.1529L94.5049 22.0492C94.3864 21.8131 94.179 21.4293 93.8827 20.8685C93.5865 20.3372 93.1717 19.8059 92.6385 19.2746C92.1052 18.7432 91.4239 18.271 90.5944 17.8872C89.7649 17.5035 88.7576 17.2969 87.6022 17.2969C86.3876 17.2969 85.3804 17.5035 84.5509 17.9168C83.7214 18.33 83.04 18.8613 82.5067 19.4812C81.9735 20.1306 81.5883 20.8095 81.3513 21.5769C81.1143 22.3444 80.9958 23.0823 80.9958 23.8203C80.9958 25.0305 81.2921 26.1817 81.9142 27.3034C82.5363 28.425 83.3066 29.5762 84.225 30.6979C85.1434 31.8196 86.121 32.9412 87.2171 34.0629C88.2836 35.1846 89.2612 36.3358 90.1796 37.546C91.098 38.7562 91.8682 40.0255 92.4607 41.3833C93.0829 42.7116 93.3791 44.1284 93.3791 45.6043C93.3791 47.0211 93.1125 48.2018 92.5496 49.235C91.9867 50.2386 91.3054 51.0651 90.4759 51.744C89.6464 52.3934 88.728 52.8952 87.7504 53.2494C86.7727 53.6036 85.7951 53.8102 84.9063 53.8397C84.462 54.253 83.6325 54.7548 82.3882 55.3156C81.1736 55.906 79.485 56.1716 77.3223 56.1716C75.7522 56.1716 74.271 55.965 72.849 55.5517C71.4566 55.1385 70.1827 54.5481 69.0866 53.7807C67.9905 53.0132 67.1313 52.0982 66.4796 51.0355C65.8278 49.9729 65.502 48.7627 65.502 47.3754V46.6964L69.531 43.5971C69.3532 44.0989 69.2051 44.6007 69.0866 45.1025C68.9681 45.6338 68.9088 46.1651 68.9088 46.7555C68.9088 47.7296 69.1162 48.7332 69.531 49.7663C69.9457 50.7699 70.5382 51.6849 71.3677 52.4819C72.1676 53.2789 73.1452 53.9578 74.3006 54.4596C75.4263 54.9909 76.7298 55.227 78.1815 55.227C79.6331 55.227 80.8477 54.9614 81.855 54.4596C82.8326 53.9578 83.6621 53.2789 84.2842 52.4819C84.9064 51.6849 85.3507 50.7699 85.6174 49.7958C85.884 48.8217 86.0321 47.8476 86.0321 46.9621C86.0321 45.5748 85.7655 44.276 85.2322 43.0658C84.699 41.8851 84.0176 40.7339 83.1881 39.6417C82.3586 38.5496 81.4698 37.4869 80.5218 36.4243C79.5738 35.3617 78.6851 34.299 77.8556 33.2069C77.0261 32.1147 76.3447 30.9635 75.8115 29.7533C75.2782 28.5431 75.0116 27.2148 75.0116 25.7684C75.0116 24.4106 75.219 23.289 75.6337 22.4329C76.0485 21.5769 77.4112 19.245 77.6186 18.9203L80.196 19.0679Z"
          fill="#8D704E"/>
    <path d="M48.2599 36.3362C48.2599 37.2808 48.8228 38.0482 49.9189 38.6386C51.0446 39.2289 52.3778 39.5241 53.9479 39.5241C55.6958 39.5241 56.9993 39.288 57.888 38.7862C58.7768 38.2844 59.5174 37.8416 60.0803 37.4284C59.8729 37.3398 59.3693 37.1627 58.5398 36.838C57.7399 36.5133 56.8511 36.1886 55.8439 35.8639C54.8366 35.5097 53.859 35.185 52.8221 34.9194C51.8149 34.6242 50.9854 34.4766 50.3633 34.4766C49.7708 34.4766 49.2671 34.6537 48.8524 34.9784C48.4673 35.3031 48.2599 35.7754 48.2599 36.3362ZM58.6583 31.5248C58.7768 30.3441 59.1915 29.0158 59.8729 27.54C60.5543 26.0641 61.4134 24.5587 62.4503 22.9942C63.4871 21.4298 64.6425 19.8358 65.946 18.1829C67.2495 16.5299 68.5827 14.9359 69.975 13.3715C71.3674 11.8071 72.7302 10.3312 74.0633 8.94384C75.3964 7.55651 76.6407 6.31677 77.7664 5.1951C77.4109 5.1951 76.611 5.10655 75.426 4.95896C74.241 4.81137 72.9672 4.63427 71.5452 4.42765C70.1231 4.25054 68.7308 4.07343 67.368 3.92585C65.9756 3.77826 64.9091 3.71922 64.1685 3.71922C63.0428 3.71922 61.9466 3.83729 60.8505 4.07343C59.7544 4.30957 58.7471 4.6933 57.7695 5.1951L61.4134 0.177106C62.3614 0.0590353 63.3094 0 64.2574 0C65.8275 0 67.2199 0.118071 68.4345 0.354212C69.6492 0.590353 70.8638 0.826494 72.0488 1.06263C73.2338 1.35781 74.5077 1.59395 75.8112 1.83009C77.1147 2.06623 78.6255 2.1843 80.3734 2.1843C81.2918 2.1843 82.2694 2.09575 83.3655 1.94816C84.432 1.77106 85.38 1.53492 86.2095 1.21022L84.1654 4.84089C81.9139 7.11375 80.0179 9.17998 78.3885 11.0101C76.7888 12.8697 75.3964 14.5522 74.2707 16.1166C73.1449 17.6515 72.1673 19.0684 71.397 20.3672C70.6268 21.6659 69.9158 22.8762 69.2936 23.9683C68.5234 25.3556 67.8716 26.5954 67.3976 27.658C66.9236 28.6911 66.5089 29.6357 66.1534 30.4327C65.7979 31.2297 65.472 31.9381 65.1758 32.5875C64.9091 33.2369 64.5536 33.8272 64.1981 34.3585C64.1093 34.4471 64.05 34.5356 63.9908 34.6242C63.9315 34.7423 63.8723 34.8308 63.7834 34.9784C64.0204 35.067 64.4944 35.2145 65.2054 35.4507C65.9164 35.6868 66.7163 35.923 67.6643 36.1591C68.5826 36.3952 69.5899 36.6314 70.6268 36.8085C71.6933 36.9856 72.6709 37.0741 73.6485 37.0741C75.2187 37.0741 76.8184 36.8085 78.4478 36.3067C80.0772 35.8049 81.588 35.126 82.9508 34.2995L83.721 37.4284C82.773 37.9006 79.9883 39.7898 77.5887 40.1145C76.5518 40.2621 75.5742 40.4687 74.5965 40.4687C73.1153 40.4687 71.6044 40.3506 70.0935 40.1145C68.5826 39.8783 67.2199 39.5831 65.9756 39.2585C64.7314 38.9338 63.6945 38.6386 62.8354 38.3729C61.9763 38.1073 61.443 37.9302 61.2356 37.8416C60.9394 38.0482 60.6135 38.3139 60.1988 38.6091C59.8136 38.9042 59.3396 39.2289 58.7471 39.4946C58.1546 39.7898 57.5029 40.0259 56.7326 40.203C55.9624 40.3801 55.1033 40.4687 54.096 40.4687C52.1111 40.4687 50.4225 40.0849 49.0598 39.288C47.697 38.491 47.0156 37.4579 47.0156 36.1886C47.0156 35.4507 47.1934 34.8308 47.5193 34.329C47.8451 33.8272 48.2599 33.4435 48.7635 33.1188C49.2671 32.8236 49.8004 32.5875 50.3336 32.4694C50.8965 32.3513 51.4001 32.2923 51.8445 32.2923C52.674 32.2923 53.6516 32.4104 54.7774 32.5875C55.9031 32.7941 57.0289 33.0597 58.125 33.3254C59.2211 33.6206 60.1988 33.8862 61.0283 34.1224C61.8578 34.3585 62.4206 34.5356 62.6873 34.6242C63.0428 34.2405 63.4575 33.6206 63.9315 32.7646C64.3759 31.9086 64.8795 30.905 65.4128 29.7243C65.946 28.5731 66.5089 27.3333 67.131 26.0346C67.7235 24.7358 68.3456 23.437 69.027 22.1677C69.9454 20.3672 71.0712 18.5371 72.3747 16.7365C73.7078 14.9359 75.0113 13.2534 76.3148 11.689C77.6183 10.2131 78.8329 8.85529 79.9883 7.7041C81.114 6.5234 81.9732 5.6969 82.5657 5.1951C82.3583 5.1951 82.1805 5.1951 82.0324 5.22462C81.8843 5.25414 81.7065 5.25414 81.4992 5.25414C81.3214 5.25414 81.0844 5.25414 80.7585 5.22462C80.4327 5.1951 80.166 5.1951 80.0179 5.1951C78.5959 6.64147 77.0258 8.38301 75.2187 10.4788C73.4412 12.545 71.7229 14.7293 70.0343 17.0317C68.3753 19.3045 66.894 21.6069 65.5905 23.8798C64.3166 26.1821 63.4575 28.2484 63.0428 30.1375L58.6583 31.5248Z"
          fill="#8D704E"/>
    <path d="M66.4198 16.0872C66.716 16.1167 67.3678 16.1167 68.3158 16.2348C69.2638 16.3528 70.3303 16.4709 71.4856 16.589C72.641 16.707 73.7668 16.7956 74.8925 16.8842C76.0183 16.9727 76.8774 17.0022 77.4995 16.9727C78.4179 16.9432 79.3066 16.7956 80.225 16.5595C81.1138 16.3233 81.4396 15.9396 82.2099 15.4968L79.514 20.1016C78.7734 20.2196 78.1513 20.1606 77.381 20.1606C76.1071 20.2196 74.9518 20.1606 73.9445 19.9835C72.9669 19.8064 71.9596 19.6588 70.982 19.4817C70.0044 19.2456 68.9971 19.0685 67.9306 18.9209C66.8641 18.7733 65.6495 18.7142 64.2275 18.7733C63.4869 18.8028 61.4724 18.7438 60.2281 19.0685C58.895 19.3932 57.947 19.8064 57.2656 20.1311L59.1616 16.648C59.1616 16.648 63.3091 15.7625 66.4198 16.0872Z"
          fill="#8D704E"/>
    <path d="M5.03625 81.9408C2.63663 81.9408 0 80.9077 0 79.2547V76.8933H0.385125C0.888751 79.845 2.34038 81.0552 4.82888 81.0552C6.33976 81.0552 7.70251 80.2583 7.70251 78.8119C7.70251 77.5427 6.87301 76.7162 5.27325 75.7716L2.54775 74.1776C0.711001 73.0855 0 72.0229 0 70.3994C0 68.1265 1.68863 66.6802 4.266 66.6802C6.45826 66.6802 9.03563 67.6543 9.03563 69.3072V71.6687H8.65051C8.17651 68.7169 6.75451 67.5657 4.29563 67.5657C2.99213 67.5657 1.74788 68.4217 1.74788 69.7795C1.74788 71.0488 2.57738 71.6982 4.20675 72.6722L6.93226 74.2662C8.79863 75.3583 9.65776 76.2734 9.65776 77.8969C9.62813 80.3173 7.88026 81.9408 5.03625 81.9408Z"
          fill="#2A2522"/>
    <path d="M20.4419 67.0645C21.9824 67.0645 22.3083 67.95 22.3083 68.8355V70.4885H21.8935C21.8935 68.7174 20.9159 67.95 19.1384 67.95H15.0205V73.6469H20.9752V74.5324H15.0205V80.6721H18.8718C20.8567 80.6721 21.9528 80.0227 22.6045 78.2516L23.0489 78.3697L22.2787 80.4655C22.0417 81.1148 21.5084 81.5576 20.6197 81.5576H13.0357V69.6915C13.0357 68.3632 12.8283 67.5072 11.4952 67.5072H11.0508V67.0645H20.4419V67.0645Z"
          fill="#2A2522"/>
    <path d="M36.9135 67.0639L27.552 80.6716H36.5876V81.5571H24.7969V81.1144L33.951 67.92H28.6481C26.8706 67.92 25.893 68.6874 25.893 70.4585H25.4486V68.8055C25.4486 67.92 25.7745 67.0344 27.315 67.0344H36.9135V67.0639Z"
          fill="#2A2522"/>
    <path d="M41.8606 76.5101H47.2524L44.6158 70.1343L41.8606 76.5101ZM52.8811 81.5576C52.6738 81.6167 52.3183 81.6757 51.9924 81.6757C51.0148 81.6757 49.2076 81.351 48.23 78.8125L47.6671 77.3956H41.5051L39.7276 81.5576H38.75L44.912 67.0645H45.5638L50.4223 78.8125C51.1036 80.4655 51.6369 80.9968 52.8515 81.1149V81.5576H52.8811Z"
          fill="#2A2522"/>
    <path d="M62.0649 71.0198C62.0649 68.7174 59.8431 67.8319 58.658 67.8319C58.0952 67.8319 57.4434 67.95 56.9991 68.0681V73.883C57.4434 74.0011 58.0952 74.0897 58.658 74.0897C59.8727 74.0897 62.0649 73.2041 62.0649 71.0198ZM58.5396 74.8571H56.9991V81.5576H55.0142V69.6915C55.0142 68.3632 54.7772 67.5072 53.4737 67.5072H53.0293V67.0645H58.7766C60.6429 67.0645 64.2868 67.5072 64.2868 71.0198C64.2868 73.5583 62.3019 74.4143 60.7614 74.7686L63.0722 78.6058C64.1979 80.4655 64.9386 81.0263 66.0643 81.1444V81.5871C65.8569 81.7052 65.2941 81.7938 64.7312 81.7938C63.1907 81.7938 62.1834 81.0263 60.7614 78.6058L58.5396 74.8571Z"
          fill="#2A2522"/>
    <path d="M74.8622 74.089C74.8622 79.3727 77.2914 81.1142 80.165 81.1142C81.7352 81.1142 82.7128 80.7895 83.5719 80.3468V76.5095C83.5719 75.2993 83.8978 73.9415 87.2158 73.9415V74.3842C85.7938 74.3842 85.5568 75.1812 85.5568 76.48V80.6124C83.957 81.5865 82.298 81.9998 80.165 81.9998C75.7509 81.9998 72.6699 78.4872 72.6699 74.089C72.6699 69.8975 75.3065 66.6211 79.5133 66.6211C82.1499 66.6211 84.0163 67.4181 84.8162 68.3922C85.379 69.0415 85.379 70.3698 85.379 71.3439H84.9347C84.3718 68.8349 82.8313 67.5066 80.1947 67.5066C76.4027 67.5066 74.8622 70.7831 74.8622 74.089Z"
          fill="#2A2522"/>
    <path d="M96.7856 71.0198C96.7856 68.7174 94.5934 67.8319 93.3788 67.8319C92.8159 67.8319 92.1641 67.95 91.7197 68.0681V73.883C92.1641 74.0011 92.8159 74.0897 93.3788 74.0897C94.5934 74.0897 96.7856 73.2041 96.7856 71.0198ZM93.2602 74.8571H91.7197V81.5576H89.7349V69.6915C89.7349 68.3632 89.4979 67.5072 88.1944 67.5072H87.75V67.0645H93.4972C95.3636 67.0645 99.0075 67.5072 99.0075 71.0198C99.0075 73.5583 97.0226 74.4143 95.4821 74.7686L97.7929 78.6058C98.9186 80.4655 99.6592 81.0263 100.755 81.1444V81.5871C100.548 81.7052 99.9851 81.7938 99.4223 81.7938C97.8818 81.7938 96.8745 81.0263 95.4525 78.6058L93.2602 74.8571Z"
          fill="#2A2522"/>
    <path d="M108.191 67.5066C105.317 67.5066 103.57 70.1337 103.57 74.3252C103.57 78.4872 105.347 81.1438 108.191 81.1438C111.065 81.1438 112.813 78.5167 112.813 74.3252C112.813 70.1337 111.035 67.5066 108.191 67.5066ZM108.191 66.6211C112.398 66.6211 115.034 70.0156 115.034 74.2957C115.034 78.6052 112.398 81.9998 108.191 81.9998C104.014 81.9998 101.348 78.6052 101.348 74.2957C101.348 69.9861 103.984 66.6211 108.191 66.6211Z"
          fill="#2A2522"/>
    <path d="M118.145 69.691C118.145 68.3627 117.938 67.5067 116.605 67.5067H116.16V67.0639H118.145C119.686 67.0639 120.13 67.5067 120.13 69.691V75.9488C120.13 79.0186 121.137 80.8782 124.04 80.8782C127.418 80.8782 128.514 79.1367 128.514 75.2698V67.0344H129.403V75.2698C129.403 79.5499 128.306 81.7637 123.774 81.7637C119.478 81.7637 118.145 79.5499 118.145 75.2698V69.691Z"
          fill="#2A2522"/>
    <path d="M140.778 71.3445C140.778 68.7174 138.586 67.8319 137.371 67.8319C136.808 67.8319 136.156 67.95 135.712 68.0681V74.6505C136.156 74.7686 136.808 74.8571 137.371 74.8571C138.586 74.8571 140.778 73.9716 140.778 71.3445ZM135.712 81.5576H133.727V69.6915C133.727 68.3632 133.49 67.5072 132.187 67.5072H131.742V67.0645H137.489C139.356 67.0645 143 67.5072 143 71.4626C143 75.2113 139.356 75.6246 138.141 75.6246H135.712V81.5576V81.5576Z"
          fill="#2A2522"/>
</svg>
