<svg width="146" height="62" viewBox="0 0 146 62" fill="none" xmlns="http://www.w3.org/2000/svg">
    <g clip-path="url(#clip0)">
        <path d="M123.797 48.4631H123.927L128.012 29.5935H130.771L125.861 51.4205H121.863L116.953 29.5935H119.712L123.797 48.4631Z"
              fill="#121212"/>
        <path d="M5.81142 43.1112C6.50667 43.1112 7.10414 43.0229 7.60385 42.8464C8.10356 42.6698 8.51636 42.3608 8.84226 41.9305C9.16815 41.4891 9.40715 40.9042 9.55923 40.1539C9.71132 39.4035 9.78736 38.4655 9.78736 37.351C9.78736 36.2255 9.71132 35.2985 9.55923 34.5482C9.40715 33.7978 9.16815 33.2019 8.84226 32.7716C8.51636 32.3302 8.10356 32.0322 7.60385 31.8557C7.10414 31.6791 6.50667 31.5908 5.81142 31.5908H3.6605V43.1333H5.81142V43.1112ZM3.67137 51.6853H0.912109V30.1673C1.69426 29.9356 2.47641 29.7811 3.25856 29.6818C4.05158 29.5935 4.89891 29.5384 5.82228 29.5384C7.04983 29.5384 8.0927 29.6708 8.95089 29.9246C9.80908 30.1894 10.5043 30.6198 11.0366 31.2157C11.5689 31.8226 11.96 32.6171 12.199 33.6213C12.4488 34.6144 12.5683 35.8613 12.5683 37.329C12.5683 38.8518 12.4488 40.1208 12.2207 41.136C11.9817 42.1512 11.6232 42.9678 11.1453 43.5857C10.6673 44.2037 10.0589 44.634 9.3311 44.8989C8.60327 45.1637 7.73421 45.2851 6.73479 45.2851C6.26768 45.2851 5.73538 45.252 5.1379 45.1968C4.54042 45.1306 4.05158 45.0644 3.6605 44.9761V51.6853H3.67137Z"
              fill="#121212"/>
        <path d="M20.5741 32.9702H20.4546L17.9018 43.8837H23.127L20.5741 32.9702ZM17.4455 46.0686L16.0659 51.6853H13.3066L18.521 29.8584H22.5078L27.733 51.6853H24.9737L23.5941 46.0686H17.4455Z"
              fill="#121212"/>
        <path d="M35.9581 51.9943C34.8718 51.9943 33.9158 51.8177 33.0902 51.4646C32.2646 51.1115 31.5585 50.5156 30.9719 49.6549C30.3853 48.8052 29.9507 47.6576 29.6466 46.212C29.3533 44.7664 29.2012 42.9567 29.2012 40.7718C29.2012 38.5869 29.3533 36.7772 29.6466 35.3316C29.9399 33.8861 30.3635 32.7385 30.9176 31.8888C31.4716 31.0391 32.1451 30.4322 32.949 30.0791C33.742 29.726 34.6436 29.5494 35.6539 29.5494C36.5773 29.5494 37.4572 29.6156 38.2937 29.737C39.1302 29.8584 39.7928 30.0129 40.2599 30.1784V31.5798H36.2731C35.6539 31.5798 35.089 31.7122 34.5676 31.9881C34.0462 32.2529 33.5899 32.7385 33.1988 33.4337C32.8078 34.1289 32.5036 35.0668 32.2972 36.2586C32.0799 37.4393 31.9713 38.9511 31.9713 40.7829C31.9713 42.6146 32.0799 44.1264 32.3081 45.3071C32.5362 46.4879 32.8403 47.4369 33.2423 48.1321C33.6442 48.8273 34.1222 49.3128 34.6871 49.5776C35.252 49.8535 35.882 49.9859 36.5773 49.9859H40.5641V51.3873C40.097 51.5529 39.4343 51.6963 38.5979 51.8287C37.7614 51.9391 36.8815 51.9943 35.9581 51.9943Z"
              fill="#121212"/>
        <path d="M48.6905 51.9943C47.6042 51.9943 46.6482 51.8177 45.8226 51.4646C44.997 51.1115 44.2909 50.5156 43.7043 49.6549C43.1177 48.8052 42.6832 47.6576 42.379 46.212C42.0857 44.7664 41.9336 42.9567 41.9336 40.7718C41.9336 38.5869 42.0857 36.7772 42.379 35.3316C42.6723 33.8861 43.1068 32.7385 43.65 31.8888C44.204 31.0391 44.8775 30.4322 45.6814 30.0791C46.4853 29.726 47.3761 29.5494 48.3863 29.5494C49.3097 29.5494 50.1896 29.6156 51.0261 29.737C51.8626 29.8584 52.5252 30.0129 52.9923 30.1784V31.5798H49.0055C48.3972 31.5798 47.8215 31.7122 47.3 31.9881C46.7786 32.2529 46.3223 32.7385 45.9313 33.4337C45.5402 34.1289 45.236 35.0668 45.0296 36.2586C44.8123 37.4393 44.7037 38.9511 44.7037 40.7829C44.7037 42.6146 44.8123 44.1264 45.0405 45.3071C45.2686 46.4879 45.5836 47.4369 45.9747 48.1321C46.3767 48.8273 46.8546 49.3128 47.4195 49.5776C47.9844 49.8535 48.6145 49.9859 49.3097 49.9859H53.2965V51.3873C52.8294 51.5529 52.1667 51.6963 51.3303 51.8287C50.4938 51.9391 49.6139 51.9943 48.6905 51.9943Z"
              fill="#121212"/>
        <path d="M62.421 40.3635C62.8121 40.4739 63.1597 40.6063 63.4856 40.7718C63.8006 40.9373 64.0831 41.1691 64.3438 41.456C64.5936 41.7429 64.8218 42.1181 65.0173 42.5595C65.2128 43.0009 65.3758 43.5526 65.4953 44.1926L66.2666 48.2424C66.3643 48.7831 66.6033 49.2576 66.9836 49.6659C67.3638 50.0742 67.9395 50.2728 68.7217 50.2728V51.6742C68.5804 51.7405 68.4066 51.7846 68.2002 51.8287C67.8309 51.9391 67.3855 51.9832 66.8749 51.9832C65.9515 51.9832 65.1911 51.6742 64.5936 51.0453C63.9853 50.4273 63.5725 49.4893 63.3444 48.2424L62.5839 44.2037C62.3775 43.1002 62.0191 42.3608 61.4976 41.9746C60.9762 41.5884 60.3678 41.4008 59.6726 41.4008H58.5971V51.6963H55.8379V29.8584H58.5971V39.2159H59.6726C60.2049 39.2159 60.7046 39.0173 61.1826 38.62C61.6497 38.2228 62.0191 37.4834 62.2906 36.402L63.0619 33.2902C63.6811 30.7963 64.8544 29.5494 66.5925 29.5494C66.8532 29.5494 67.103 29.5604 67.3312 29.5935C67.5593 29.6266 67.7548 29.6597 67.9178 29.7039C68.1242 29.7701 68.298 29.8142 68.4392 29.8584V31.2598C67.6571 31.2598 67.103 31.4474 66.7446 31.8005C66.3969 32.1647 66.1362 32.6612 65.9733 33.2792L65.202 36.391C65.039 37.042 64.8652 37.5828 64.6914 38.0241C64.5176 38.4766 64.3221 38.8407 64.0939 39.1276C63.8658 39.4145 63.6268 39.6463 63.3552 39.8118C63.0837 39.9773 62.7795 40.1097 62.4319 40.2201V40.3635H62.421Z"
              fill="#121212"/>
        <path d="M77.6397 32.9702H77.5202L74.9782 43.8837H80.2034L77.6397 32.9702ZM74.5002 46.0686L73.1206 51.6853H70.3613L75.5865 29.8584H79.5842L84.8094 51.6853H82.0284L80.6488 46.0686H74.5002Z"
              fill="#121212"/>
        <path d="M90.8685 49.9749C92.4002 49.9749 93.5082 49.6438 94.1709 48.9928C94.8335 48.3417 95.1703 47.2603 95.1703 45.7596C95.1703 44.2037 94.8335 43.0781 94.1709 42.405C93.5082 41.7319 92.411 41.3898 90.8685 41.3898H88.7176V39.2049H90.5534C91.9439 39.2049 92.9651 38.8849 93.5951 38.2559C94.2252 37.6269 94.5511 36.6338 94.5511 35.3096C94.5511 34.0626 94.2361 33.1247 93.5951 32.5067C92.9651 31.8888 91.9439 31.5688 90.5534 31.5688H86.8708V30.1673C87.0989 30.0791 87.3705 30.0018 87.6964 29.9356C88.0223 29.8694 88.3699 29.7922 88.7393 29.737C89.1086 29.6708 89.478 29.6266 89.8473 29.5935C90.2167 29.5604 90.5534 29.5494 90.8576 29.5494C93.1715 29.5494 94.8227 30.0239 95.8221 30.9729C96.8106 31.9219 97.3104 33.3675 97.3104 35.3206C97.3104 36.5676 97.0822 37.5717 96.6151 38.3221C96.1589 39.0725 95.4636 39.6683 94.5402 40.0987V40.2201C95.7678 40.5732 96.6368 41.2574 97.1474 42.2615C97.658 43.2657 97.9078 44.4354 97.9078 45.7706C97.9078 46.8741 97.7883 47.8121 97.5385 48.5955C97.2886 49.379 96.8976 50.019 96.3435 50.5266C95.7895 51.0342 95.0617 51.4094 94.16 51.6522C93.2584 51.8949 92.1503 52.0053 90.8468 52.0053C90.0646 52.0053 89.2716 51.9391 88.4677 51.8177C87.6638 51.6963 87.0229 51.5529 86.5449 51.3873V49.9859H90.8685V49.9749Z"
              fill="#121212"/>
        <path d="M107.044 50.1294C107.533 50.1294 108.022 49.997 108.489 49.7211C108.956 49.4452 109.369 48.9597 109.717 48.2535C110.064 47.5472 110.347 46.5872 110.564 45.3844C110.781 44.1816 110.89 42.6367 110.89 40.7718C110.89 38.907 110.781 37.3621 110.564 36.1593C110.347 34.9565 110.064 33.9965 109.717 33.2902C109.369 32.584 108.956 32.0985 108.489 31.8226C108.022 31.5578 107.533 31.4143 107.044 31.4143C106.555 31.4143 106.077 31.5467 105.599 31.8226C105.132 32.0985 104.72 32.584 104.372 33.2902C104.024 33.9965 103.742 34.9565 103.525 36.1593C103.307 37.3621 103.199 38.907 103.199 40.7718C103.199 42.6367 103.307 44.1816 103.525 45.3844C103.742 46.5872 104.024 47.5472 104.372 48.2535C104.72 48.9597 105.132 49.4452 105.599 49.7211C106.067 49.997 106.555 50.1294 107.044 50.1294ZM107.044 29.5384C108.087 29.5384 109.011 29.7149 109.825 30.068C110.629 30.4212 111.324 31.0281 111.9 31.8778C112.476 32.7274 112.91 33.8751 113.204 35.3206C113.497 36.7662 113.649 38.5759 113.649 40.7608C113.649 42.9457 113.497 44.7554 113.204 46.201C112.9 47.6466 112.476 48.7942 111.9 49.6439C111.324 50.4935 110.64 51.1005 109.825 51.4536C109.021 51.8067 108.087 51.9832 107.044 51.9832C106.001 51.9832 105.078 51.8067 104.263 51.4536C103.459 51.1005 102.764 50.4935 102.188 49.6439C101.613 48.7942 101.178 47.6466 100.885 46.201C100.592 44.7554 100.439 42.9457 100.439 40.7608C100.439 38.5759 100.592 36.7662 100.885 35.3206C101.178 33.8751 101.613 32.7274 102.188 31.8778C102.764 31.0281 103.449 30.4212 104.263 30.068C105.067 29.7149 106.001 29.5384 107.044 29.5384Z"
              fill="#121212"/>
        <path d="M128.683 28.0928C128.683 28.0928 129.118 27.4859 129.487 26.1286C129.856 24.7713 129.183 22.5533 128.412 21.6595C127.64 20.7767 126.836 20.2801 125.946 19.8718C125.044 19.4746 124.186 19.3201 124.186 19.3201C124.186 19.3201 122.817 22.4319 124.175 25.8196C124.903 27.6404 126.565 28.1259 127.39 28.1259C128.216 28.1369 128.683 28.0928 128.683 28.0928Z"
              fill="#B99028"/>
        <path d="M131.845 26.1286C132.54 25.8638 133.865 26.0072 134.951 25.0472C138.764 21.6485 135.332 17.389 135.332 17.389C135.332 17.389 133.648 18.8897 131.975 19.8718C129.368 21.3947 130.802 24.9037 130.856 25.2789C130.965 26.2389 131.149 26.3934 131.845 26.1286Z"
              fill="#B99028"/>
        <path d="M137.298 27.6073C136.32 27.0555 134.995 27.0224 134.104 27.188C132.79 27.4307 130.986 28.777 130.986 28.777C130.986 28.777 132.094 30.3881 133.409 30.995C136.429 32.3743 140.09 30.7301 140.09 30.7301C140.09 30.7301 138.819 28.468 137.298 27.6073Z"
              fill="#B99028"/>
        <path d="M130.042 9.85223C131.726 6.38729 130.607 2.96649 130.607 2.96649C130.607 2.96649 127.935 3.3196 125.513 6.56385C124.198 8.31839 124.155 11.5075 123.861 13.4606C126.946 13.7586 128.902 12.1916 130.042 9.85223Z"
              fill="#B99028"/>
        <path d="M115.517 19.1767C115.962 16.8593 114.702 14.2993 113.116 11.2647C105.36 18.1173 112.312 25.1024 112.312 25.1024C112.312 25.1024 114.724 23.2816 115.517 19.1767Z"
              fill="#B99028"/>
        <path d="M95.584 26.9673C102.417 32.4405 107.36 25.301 107.36 25.301C104.122 21.836 97.9739 23.0057 95.584 26.9673Z"
              fill="#B99028"/>
        <path d="M122.035 39.4469C121.981 39.3588 121.927 39.2598 121.862 39.1718C121.851 39.2488 121.851 39.3038 121.84 39.3809L122.035 39.4469Z"
              fill="black"/>
        <path d="M121.862 39.1713C122.21 36.6333 121.623 35.3864 120.808 34.1284C119.929 32.7711 118.821 31.4249 118.94 29.8689C119.136 27.2426 119.668 26.2495 120.559 24.1639C121.113 22.8508 121.743 21.8245 122.427 19.9597C123.676 16.594 123.122 13.8905 122.547 12.6656C122.72 10.6794 123.731 7.86547 122.166 5.12883C121.015 3.10946 118.245 1.77424 116.257 0.626617C115.355 3.12049 114.899 7.23649 116.55 9.71933C117.43 11.0656 119.69 12.5222 121.927 13.0298C122.362 13.9126 123.198 16.5168 119.396 22.906C118.038 25.2012 117.202 26.6026 117.126 29.5379C116.344 29.1075 115.344 28.7103 114.66 28.3682C113.889 27.982 113.096 27.4854 112.379 27.0109C110.076 25.4881 108.175 23.2922 106.426 20.9307C107.327 18.9334 106.447 16.1195 105.046 14.8395C103.71 13.6146 102.265 12.776 100.483 12.4229C99.5166 12.2353 98.3759 12.467 97.496 12.147C97.3439 14.9278 97.9305 16.7485 99.3754 18.8231C100.885 20.9969 104.144 21.9459 105.73 21.6149C107.501 24.0205 109.359 26.4592 111.77 28.0592C112.542 28.5668 113.356 28.9862 114.16 29.3834C115.018 29.8138 115.822 30.2221 116.572 30.7297C116.757 30.8621 116.963 31.0055 117.169 31.1821C117.463 34.1284 120.07 36.2802 121.862 39.1713Z"
              fill="#B99028"/>
        <path d="M119.798 40.8932C119.755 40.9815 119.798 40.8932 119.461 40.3304C118.94 39.4697 118.907 43.4091 120.157 44.623C121.71 46.1348 123.883 48.3638 123.883 48.3638L123.122 44.623L119.798 40.8932Z"
              fill="#B99028"/>
        <path d="M129.826 33.2571C129.489 33.8199 129.532 33.9082 129.489 33.8199L126.121 37.5166L125.328 41.2463C125.328 41.2463 127.533 39.0394 129.098 37.5386C130.358 36.3358 130.347 32.3964 129.826 33.2571Z"
              fill="#B99028"/>
        <path d="M139.339 50.1294C139.828 50.1294 140.317 49.997 140.784 49.7211C141.251 49.4452 141.664 48.9597 142.012 48.2535C142.359 47.5472 142.642 46.5872 142.859 45.3844C143.076 44.1816 143.185 42.6367 143.185 40.7718C143.185 38.8959 143.076 37.3621 142.859 36.1593C142.642 34.9565 142.359 33.9965 142.012 33.2902C141.664 32.584 141.251 32.0985 140.784 31.8226C140.317 31.5578 139.828 31.4143 139.339 31.4143C138.85 31.4143 138.362 31.5467 137.894 31.8226C137.427 32.0874 137.014 32.584 136.667 33.2902C136.319 33.9965 136.037 34.9565 135.82 36.1593C135.602 37.3621 135.494 38.907 135.494 40.7718C135.494 42.6478 135.602 44.1816 135.82 45.3844C136.037 46.5872 136.319 47.5472 136.667 48.2535C137.014 48.9597 137.427 49.4452 137.894 49.7211C138.372 49.9859 138.85 50.1294 139.339 50.1294ZM139.339 29.5384C140.382 29.5384 141.305 29.7149 142.12 30.068C142.924 30.4212 143.619 31.0281 144.195 31.8778C144.771 32.7274 145.205 33.8751 145.499 35.3206C145.792 36.7662 145.944 38.5759 145.944 40.7608C145.944 42.9457 145.792 44.7554 145.499 46.201C145.205 47.6466 144.771 48.7942 144.195 49.6439C143.619 50.4935 142.935 51.1005 142.12 51.4536C141.316 51.8067 140.382 51.9832 139.339 51.9832C138.296 51.9832 137.373 51.8067 136.558 51.4536C135.743 51.1005 135.059 50.4935 134.483 49.6439C133.908 48.7942 133.473 47.6466 133.18 46.201C132.886 44.7554 132.734 42.9457 132.734 40.7608C132.734 38.5759 132.886 36.7662 133.18 35.3206C133.473 33.8751 133.908 32.7274 134.483 31.8778C135.059 31.0281 135.743 30.4212 136.558 30.068C137.373 29.7149 138.296 29.5384 139.339 29.5384Z"
              fill="#121212"/>
        <path d="M1.49737 57.28L2.57282 58.7255H2.69232V57.28H3.2572V58.7255H3.3767L4.45216 57.28H5.13654L3.84382 58.7917C4.33266 58.8469 4.62597 59.1448 4.82151 59.6635C4.941 59.9835 5.03877 60.3366 5.17999 60.5904H4.58251C4.47388 60.3918 4.37612 60.1159 4.28921 59.829C4.08281 59.2883 3.77864 59.1228 3.35497 59.1228H3.26807V60.5904H2.70318V59.1228H2.59455C2.13829 59.1228 1.85585 59.2883 1.66031 59.829C1.55168 60.1159 1.46478 60.3807 1.34528 60.5794H0.769531C0.89989 60.3145 1.00852 59.9614 1.12802 59.6524C1.33442 59.1228 1.61686 58.8248 2.11657 58.7697L0.823846 57.2579H1.49737V57.28Z"
              fill="#121212"/>
        <path d="M7.38606 57.28V58.6814C7.38606 59.2111 7.37519 59.5421 7.35347 60.0056L7.37519 60.0166C7.57073 59.6083 7.69023 59.3766 7.90749 58.9904L8.92863 57.28H9.62388V60.5904H9.05899V59.189C9.05899 58.6483 9.06986 58.3614 9.10245 57.8317H9.08072C8.87432 58.251 8.7331 58.5269 8.53756 58.858C8.22252 59.3656 7.8749 60.0056 7.51641 60.5904H6.83203V57.28H7.38606Z"
              fill="#121212"/>
        <path d="M14.1753 57.28V60.5904H13.5886V57.7434H12.4697V58.6041C12.4697 59.5311 12.3828 60.16 11.9592 60.4359C11.7962 60.5683 11.6115 60.6456 11.3074 60.6456L11.2422 60.1711C11.3617 60.149 11.4812 60.1049 11.5681 60.0387C11.8723 59.818 11.9048 59.3435 11.9048 58.6041V57.2689H14.1753V57.28Z"
              fill="#121212"/>
        <path d="M16.6307 58.9462C16.6307 59.6745 17.0435 60.2152 17.6192 60.2152C18.1841 60.2152 18.6078 59.6745 18.6078 58.9241C18.6078 58.3614 18.3362 57.6441 17.6301 57.6441C16.9348 57.6551 16.6307 58.3062 16.6307 58.9462ZM19.227 58.9021C19.227 60.1269 18.3905 60.6676 17.5975 60.6676C16.7176 60.6676 16.0332 60.0056 16.0332 58.9572C16.0332 57.8427 16.7502 57.1917 17.6518 57.1917C18.5861 57.2027 19.227 57.8979 19.227 58.9021Z"
              fill="#121212"/>
        <path d="M22.0291 55.9227C22.0508 56.2206 22.192 56.4413 22.4636 56.4413C22.7569 56.4413 22.8873 56.2206 22.9199 55.9227H23.3435C23.3109 56.4855 22.9633 56.7724 22.4419 56.7724C21.8444 56.7724 21.6163 56.3972 21.5946 55.9227H22.0291ZM21.638 57.28V58.6814C21.638 59.2111 21.6271 59.5421 21.6054 60.0056L21.6271 60.0166C21.8227 59.6083 21.9422 59.3766 22.1486 58.9904L23.1697 57.28H23.865V60.5904H23.3001V59.189C23.3001 58.6483 23.3109 58.3724 23.3435 57.8317H23.3218C23.1154 58.251 22.9742 58.5269 22.7786 58.858C22.4636 59.3656 22.116 60.0056 21.7575 60.5904H21.084V57.28H21.638Z"
              fill="#121212"/>
        <path d="M29.0905 57.28V58.7145H29.2317L30.4593 57.28H31.1763L29.7532 58.7807C30.2855 58.8359 30.6005 59.189 30.8504 59.7849C30.9373 60.0056 31.0568 60.3256 31.198 60.5904H30.5788C30.4919 60.447 30.3724 60.1821 30.2746 59.9173C30.0573 59.3876 29.7423 59.1338 29.1992 59.1338H29.0905V60.5904H28.5039V57.28H29.0905Z"
              fill="#121212"/>
        <path d="M33.1845 58.9462C33.1845 59.6745 33.5973 60.2152 34.1731 60.2152C34.738 60.2152 35.1616 59.6745 35.1616 58.9241C35.1616 58.3614 34.89 57.6441 34.1839 57.6441C33.4887 57.6551 33.1845 58.3062 33.1845 58.9462ZM35.77 58.9021C35.77 60.1269 34.9335 60.6676 34.1405 60.6676C33.2606 60.6676 32.5762 60.0056 32.5762 58.9572C32.5762 57.8427 33.2931 57.1917 34.1948 57.1917C35.1399 57.2027 35.77 57.8979 35.77 58.9021Z"
              fill="#121212"/>
        <path d="M37.6817 57.28H38.4096L39.007 58.9462C39.094 59.189 39.2352 59.5973 39.3004 59.8621H39.3112C39.3873 59.6194 39.5719 59.0897 39.6914 58.7255L40.2129 57.28H40.9516L41.1797 60.5904H40.6148L40.5388 59.0124C40.517 58.6593 40.4953 58.229 40.4736 57.8317H40.4519C40.3649 58.1297 40.278 58.4055 40.0934 58.9021L39.4633 60.5683H39.0288L38.453 58.9352C38.3553 58.6152 38.214 58.1407 38.1271 57.8317H38.0945C38.0837 58.2179 38.0619 58.6593 38.0402 59.0235L37.9533 60.5904H37.4102L37.6817 57.28Z"
              fill="#121212"/>
        <path d="M45.7566 57.28V60.5904H45.17V57.7545H43.6491V60.5904H43.0625V57.28H45.7566Z" fill="#121212"/>
        <path d="M50.3178 57.2804V60.5908H49.7312V57.7439H48.6123V58.6046C48.6123 59.5315 48.5254 60.1605 48.1017 60.4364C47.9388 60.5688 47.7541 60.646 47.4499 60.646L47.3848 60.1715C47.5043 60.1494 47.6238 60.1053 47.7107 60.0391C48.0148 59.8184 48.0474 59.3439 48.0474 58.6046V57.2694H50.3178V57.2804Z"
              fill="#121212"/>
        <path d="M54.4897 58.6151C54.5005 58.2289 54.3376 57.633 53.664 57.633C53.0666 57.633 52.8059 58.1958 52.7515 58.6151H54.4897ZM52.7515 59.0454C52.7624 59.862 53.273 60.1931 53.8705 60.1931C54.2941 60.1931 54.5548 60.1158 54.7721 60.0275L54.8699 60.4579C54.6635 60.5572 54.305 60.6676 53.7835 60.6676C52.7733 60.6676 52.1758 59.9944 52.1758 59.0013C52.1758 58.0082 52.7515 57.2137 53.7075 57.2137C54.7721 57.2137 55.0545 58.1627 55.0545 58.7806C55.0545 58.902 55.0437 59.0013 55.0328 59.0565H52.7515V59.0454Z"
              fill="#121212"/>
        <path d="M57.5096 57.2794V58.714H57.6508L58.8784 57.2794H59.5953L58.1723 58.7802C58.7046 58.8353 59.0196 59.1885 59.2694 59.7843C59.3563 60.005 59.4758 60.325 59.6171 60.5899H58.9979C58.911 60.4464 58.7915 60.1816 58.6937 59.9168C58.4656 59.3871 58.1614 59.1333 57.6182 59.1333H57.4987V60.5899H56.9121V57.2794H57.5096Z"
              fill="#121212"/>
        <path d="M63.5598 60.469C63.4077 60.5463 63.0601 60.6566 62.6256 60.6566C61.637 60.6566 60.9961 59.9724 60.9961 58.9683C60.9961 57.9531 61.6805 57.2027 62.7451 57.2027C63.0927 57.2027 63.4077 57.291 63.5707 57.3793L63.4403 57.8427C63.2991 57.7655 63.0818 57.6882 62.7559 57.6882C62.0064 57.6882 61.6044 58.251 61.6044 58.9462C61.6044 59.7186 62.0933 60.1821 62.7342 60.1821C63.071 60.1821 63.2991 60.0938 63.4621 60.0166L63.5598 60.469Z"
              fill="#121212"/>
        <path d="M68.8075 58.2836C68.8075 58.725 68.7423 59.1443 68.6445 59.5195C68.5794 59.7512 68.4816 59.9499 68.3838 60.1375H69.8829V57.7429H68.8075V58.2836ZM70.4587 57.2794V60.1375L70.7955 60.1485L70.7629 61.6492H70.2957L70.2632 60.5899H68.0145L67.9928 61.6492H67.5256L67.5039 60.1485L67.7755 60.1375C67.9167 59.9278 68.0253 59.6961 68.1014 59.4643C68.2317 59.056 68.2861 58.6036 68.2861 58.1402V57.2794H70.4587Z"
              fill="#121212"/>
        <path d="M75.1401 57.2795V60.59H74.5535V57.743H73.4346V58.6037C73.4346 59.5306 73.3477 60.1596 72.924 60.4355C72.7611 60.5679 72.5764 60.6451 72.2722 60.6451L72.207 60.1706C72.3265 60.1486 72.446 60.1044 72.5329 60.0382C72.8371 59.8175 72.8697 59.343 72.8697 58.6037V57.2685H75.1401V57.2795Z"
              fill="#121212"/>
        <path d="M79.0518 57.677C78.8997 57.6549 78.7693 57.6439 78.5629 57.6439C78.161 57.6439 77.683 57.7542 77.683 58.2177C77.683 58.648 78.2045 58.7915 78.5521 58.7915H79.0626V57.677H79.0518ZM79.6384 60.5902H79.0518V59.1998H78.6173C78.3674 59.1998 78.1936 59.266 78.0741 59.3874C77.8351 59.586 77.7373 59.9943 77.6178 60.3143C77.5744 60.4136 77.5309 60.5019 77.4875 60.5902H76.8574C76.9335 60.4798 76.9986 60.3584 77.0638 60.215C77.205 59.895 77.292 59.4646 77.5744 59.2108C77.6722 59.1225 77.8025 59.0453 77.9437 59.0232V59.0012C77.5201 58.957 77.0855 58.6922 77.0855 58.1846C77.0855 57.8425 77.2702 57.6108 77.5201 57.4673C77.7917 57.3128 78.1827 57.2356 78.6064 57.2356C78.9975 57.2356 79.3777 57.2687 79.6601 57.3018V60.5902H79.6384Z"
              fill="#121212"/>
        <path d="M84.559 57.2796L85.6345 58.7251H85.754V57.2796H86.3189V58.7251H86.4384L87.5138 57.2796H88.1982L86.9055 58.7913C87.3943 58.8465 87.6876 59.1445 87.8832 59.6631C88.0027 59.9831 88.1113 60.3362 88.2417 60.59H87.6442C87.5355 60.3914 87.4378 60.1155 87.3509 59.8286C87.1445 59.2879 86.8403 59.1224 86.4166 59.1224H86.3189V60.59H85.754V59.1224H85.6453C85.1891 59.1224 84.9066 59.2879 84.7111 59.8286C84.6025 60.1155 84.5156 60.3804 84.3961 60.579H83.8203C83.9507 60.3141 84.0593 59.961 84.1788 59.6521C84.3852 59.1224 84.6676 58.8245 85.1674 58.7693L83.8746 57.2575H84.559V57.2796Z"
              fill="#121212"/>
        <path d="M90.4466 57.2794V58.6809C90.4466 59.2105 90.4357 59.5416 90.414 60.005L90.4357 60.0161C90.6313 59.6078 90.7508 59.376 90.968 58.9898L91.9892 57.2794H92.6844V60.5899H92.1196V59.1885C92.1196 58.6478 92.1304 58.3609 92.163 57.8312H92.1413C91.9349 58.2505 91.7937 58.5264 91.5981 58.8574C91.2831 59.365 90.9355 60.005 90.577 60.5899H89.8926V57.2794H90.4466Z"
              fill="#121212"/>
        <path d="M95.0308 58.6702H95.3133C95.813 58.6702 96.1497 58.4385 96.1497 58.1295C96.1497 57.8315 95.889 57.655 95.5197 57.655C95.259 57.655 94.9657 57.7433 94.7267 57.8867L94.5746 57.5226C94.9005 57.3129 95.2807 57.2246 95.6609 57.2246C96.1606 57.2246 96.7689 57.4564 96.7689 58.0964C96.7689 58.5047 96.3996 58.7695 96.0302 58.8468V58.8578C96.5191 58.9019 96.921 59.1999 96.921 59.6854C96.921 60.4027 96.2041 60.6675 95.5088 60.6675C95.1286 60.6675 94.7375 60.5682 94.4551 60.4027L94.6072 59.9944C94.8462 60.1268 95.1612 60.2151 95.4654 60.2151C95.9542 60.2151 96.2692 59.9723 96.2692 59.6413C96.2692 59.1999 95.813 59.0785 95.3133 59.0785H95.02V58.6702H95.0308Z"
              fill="#121212"/>
        <path d="M99.3659 57.28V58.6152H100.908V57.28H101.495V60.5904H100.908V59.0897H99.3659V60.5904H98.7793V57.28H99.3659Z"
              fill="#121212"/>
        <path d="M104.135 57.2816V58.683C104.135 59.2127 104.124 59.5437 104.103 60.0072L104.124 60.0182C104.32 59.6099 104.429 59.3782 104.646 58.992L105.667 57.2816H106.362V60.592H105.797V59.1906C105.797 58.6499 105.808 58.363 105.841 57.8333H105.819C105.613 58.2527 105.471 58.5285 105.276 58.8596C104.961 59.3672 104.613 60.0072 104.255 60.592H103.57V57.2816H104.135Z"
              fill="#121212"/>
        <path d="M111.555 57.2794V58.6808C111.555 59.2105 111.544 59.5415 111.523 60.005L111.544 60.016C111.74 59.6077 111.848 59.376 112.066 58.9898L113.087 57.2794H113.782V60.5898H113.217V59.1884C113.217 58.6477 113.228 58.3608 113.261 57.8311H113.239C113.033 58.2504 112.891 58.5263 112.696 58.8573C112.381 59.3649 112.033 60.005 111.675 60.5898H110.99V57.2794H111.555Z"
              fill="#121212"/>
        <path d="M118.779 58.9462C118.779 59.6745 119.192 60.2152 119.768 60.2152C120.333 60.2152 120.756 59.6745 120.756 58.9241C120.756 58.3614 120.485 57.6441 119.779 57.6441C119.083 57.6551 118.779 58.3062 118.779 58.9462ZM121.375 58.9021C121.375 60.1269 120.539 60.6676 119.746 60.6676C118.866 60.6676 118.182 60.0056 118.182 58.9572C118.182 57.8427 118.899 57.1917 119.8 57.1917C120.734 57.2027 121.375 57.8979 121.375 58.9021Z"
              fill="#121212"/>
        <path d="M125.393 57.28V57.7545H124.372V60.5904H123.786V57.7545H122.775V57.28H125.393Z" fill="#121212"/>
        <path d="M127.707 58.2846C127.707 58.726 127.642 59.1453 127.544 59.5205C127.479 59.7523 127.381 59.9509 127.283 60.1385H128.782V57.7439H127.707V58.2846ZM129.358 57.2805V60.1385L129.695 60.1495L129.662 61.6502H129.195L129.163 60.5909H126.903L126.881 61.6502H126.414L126.393 60.1495L126.664 60.1385C126.805 59.9288 126.914 59.6971 126.99 59.4653C127.12 59.0571 127.175 58.6046 127.175 58.1412V57.2805H129.358Z"
              fill="#121212"/>
        <path d="M135.039 60.5899H134.453V57.2794H135.039V60.5899ZM132.106 60.1706C132.215 60.1816 132.345 60.1926 132.519 60.1926C132.975 60.1926 133.464 60.0051 133.464 59.4864C133.464 58.9567 132.997 58.7912 132.552 58.7912C132.389 58.7912 132.237 58.8022 132.117 58.8243V60.1706H132.106ZM132.106 57.2794V58.405C132.237 58.3719 132.421 58.3609 132.638 58.3609C133.345 58.3609 134.051 58.6588 134.051 59.4754C134.051 59.8285 133.92 60.0602 133.714 60.2478C133.355 60.5568 132.834 60.634 132.399 60.634C132.063 60.634 131.769 60.612 131.52 60.5899V57.2905H132.106V57.2794Z"
              fill="#121212"/>
        <path d="M137.418 57.2794L137.885 57.9967C138.005 58.1843 138.103 58.3498 138.211 58.5374H138.233C138.342 58.3388 138.45 58.1733 138.559 57.9857L139.015 57.2794H139.656L138.537 58.8795L139.678 60.5899H139.004L138.526 59.8395C138.396 59.6519 138.287 59.4643 138.179 59.2657H138.168C138.059 59.4643 137.94 59.6409 137.82 59.8395L137.353 60.5899H136.701L137.864 58.9015L136.755 57.2794H137.418Z"
              fill="#121212"/>
        <path d="M143.1 58.9021C142.448 58.891 141.721 59.0014 141.721 59.6524C141.721 60.0387 141.981 60.2262 142.285 60.2262C142.709 60.2262 142.981 59.9504 143.078 59.6745C143.1 59.6083 143.111 59.5421 143.111 59.4869V58.9021H143.1ZM143.187 60.5904L143.144 60.1711H143.122C142.937 60.4359 142.59 60.6676 142.122 60.6676C141.46 60.6676 141.123 60.1931 141.123 59.7186C141.123 58.9131 141.829 58.4827 143.089 58.4827V58.4165C143.089 58.1407 143.013 57.6551 142.351 57.6551C142.046 57.6551 141.731 57.7544 141.503 57.8979L141.373 57.5006C141.644 57.3241 142.036 57.2027 142.448 57.2027C143.448 57.2027 143.687 57.8979 143.687 58.56V59.7959C143.687 60.0828 143.698 60.3587 143.741 60.5904H143.187Z"
              fill="#121212"/>
    </g>
    <defs>
        <clipPath id="clip0">
            <rect width="146" height="61.4073" fill="white" transform="translate(0 0.387238)"/>
        </clipPath>
    </defs>
</svg>
