<?xml version="1.0" encoding="utf-8"?><svg width="134" height="20" fill="none" xmlns="http://www.w3.org/2000/svg" viewBox="0 0 134 20"><g clip-path="url(#bclip0)"><path d="M41.52 6.1V14h-2.08V3.54h3.34l2.62 6.52 2.64-6.52h3.14V14H48.8V6.1L45.5 14h-.8l-3.18-7.9zm17.149 8.1c-1.573 0-2.853-.48-3.84-1.44-.973-.96-1.46-2.253-1.46-3.88v-.16c0-1.6.487-2.9 1.46-3.9.987-1 2.233-1.5 3.74-1.5 1.413 0 2.587.44 3.52 1.32.947.88 1.42 2.2 1.42 3.96v.7h-7.66c.04 1 .3 1.767.78 2.3.493.533 1.193.8 2.1.8 1.413 0 2.213-.533 2.4-1.6h2.34c-.173 1.107-.68 1.953-1.52 2.54-.827.573-1.92.86-3.28.86zm2.44-6.52c-.133-1.733-.98-2.6-2.54-2.6-.72 0-1.32.233-1.8.7-.467.453-.76 1.087-.88 1.9h5.22zm12.284-2.34h-3.2V14h-2.42V5.34h-3.2v-1.8h8.82v1.8zm1.887-1.8h2.42v1.68c.306-.533.766-.98 1.38-1.34a3.915 3.915 0 012.04-.56c1.346 0 2.453.48 3.32 1.44.88.947 1.32 2.24 1.32 3.88v.16c0 1.653-.434 2.967-1.3 3.94-.853.973-1.967 1.46-3.34 1.46-.8 0-1.5-.167-2.1-.5-.587-.347-1.027-.793-1.32-1.34v5.22h-2.42V3.54zm5.24 8.74c.893 0 1.573-.293 2.04-.88.48-.587.72-1.44.72-2.56v-.16c0-1.12-.26-1.973-.78-2.56-.507-.6-1.174-.9-2-.9-.88 0-1.58.293-2.1.88s-.78 1.447-.78 2.58v.16c0 1.133.253 1.993.76 2.58.52.573 1.233.86 2.14.86zm16.796-8.74h2.42V14h-2.42V3.54zm-9.38 0h2.42v3.44h1.78c1.213 0 2.187.293 2.92.88.733.587 1.1 1.453 1.1 2.6v.06c0 1.133-.367 2-1.1 2.6-.72.587-1.713.88-2.98.88h-4.14V3.54zm3.86 8.7c.667 0 1.153-.133 1.46-.4.32-.28.48-.727.48-1.34v-.06c0-1.133-.647-1.7-1.94-1.7h-1.44v3.5h1.44zm12.268 1.9a1.56 1.56 0 01-1.12-.44 1.523 1.523 0 01-.46-1.12c0-.44.153-.813.46-1.12.306-.307.68-.46 1.12-.46.453 0 .833.153 1.14.46.306.307.46.68.46 1.12 0 .44-.154.813-.46 1.12-.307.293-.687.44-1.14.44zm4.419-10.6h2.42v1.68c.307-.533.767-.98 1.38-1.34a3.917 3.917 0 012.04-.56c1.347 0 2.453.48 3.32 1.44.88.947 1.32 2.24 1.32 3.88v.16c0 1.653-.433 2.967-1.3 3.94-.853.973-1.967 1.46-3.34 1.46-.8 0-1.5-.167-2.1-.5-.587-.347-1.027-.793-1.32-1.34v5.22h-2.42V3.54zm5.24 8.74c.893 0 1.573-.293 2.04-.88.48-.587.72-1.44.72-2.56v-.16c0-1.12-.26-1.973-.78-2.56-.507-.6-1.173-.9-2-.9-.88 0-1.58.293-2.1.88s-.78 1.447-.78 2.58v.16c0 1.133.253 1.993.76 2.58.52.573 1.233.86 2.14.86zm10.183.66l-4.14-9.4h2.62l2.78 6.74 2.56-6.74h2.36l-5.7 14.04h-2.38l1.9-4.64z" fill="#121212"/><path fill-rule="evenodd" clip-rule="evenodd" d="M4.697 1.416v13.608c0 .586-.55 1.075-1.21 1.075-.683 0-1.211-.489-1.211-1.075V1.416c0-.586.528-1.075 1.21-1.075.66 0 1.21.489 1.21 1.075zM9.01 9.295v5.729c0 .586-.55 1.075-1.232 1.075-.66 0-1.21-.489-1.21-1.075V9.295c0-.606.55-1.075 1.21-1.075.682 0 1.232.47 1.232 1.075zM13.302 9.295v5.729c0 .586-.528 1.075-1.21 1.075-.66 0-1.21-.489-1.21-1.075V9.295c0-.606.55-1.075 1.21-1.075.682 0 1.21.47 1.21 1.075zM17.616 5.033v9.99c0 .587-.55 1.076-1.21 1.076-.682 0-1.21-.489-1.21-1.075v-9.99c0-.607.527-1.096 1.21-1.096.66 0 1.21.489 1.21 1.095zM21.908 9.295v5.729c0 .586-.528 1.075-1.21 1.075-.66 0-1.21-.489-1.21-1.075V9.295c0-.606.55-1.075 1.21-1.075.682 0 1.21.47 1.21 1.075zM26.222 9.295v5.729c0 .586-.55 1.075-1.21 1.075-.66 0-1.211-.489-1.211-1.075V9.295c0-.606.55-1.075 1.21-1.075.66 0 1.21.47 1.21 1.075zM30.668 1.416v13.608c0 .586-.55 1.075-1.21 1.075-.683 0-1.233-.489-1.233-1.075V1.416c0-.586.55-1.075 1.232-1.075.66 0 1.21.489 1.21 1.075z" fill="#B0558C"/></g><defs><clipPath id="bclip0"><path fill="#fff" d="M0 0h134v20H0z"/></clipPath></defs></svg>