<?xml version="1.0" encoding="utf-8"?><svg width="143" height="82" fill="none" xmlns="http://www.w3.org/2000/svg" viewBox="0 0 143 82"><path d="M80.196 19.068c-.326.443-.77 1.151-1.274 2.125s-.77 2.184-.77 3.601c0 1.27.296 2.51.859 3.69.563 1.18 1.303 2.302 2.163 3.395a68.312 68.312 0 002.784 3.276 49.302 49.302 0 012.785 3.365c.86 1.151 1.6 2.361 2.163 3.601.563 1.27.859 2.598.859 4.044 0 .827-.089 1.535-.267 2.155a7.19 7.19 0 01-.71 1.682c-.297.502-.564.915-.86 1.27-.296.354-.533.65-.74.885a6.098 6.098 0 001.895-.59c.652-.295 1.215-.738 1.719-1.299.533-.56.948-1.21 1.244-1.978.326-.767.474-1.653.474-2.627 0-1.476-.296-2.863-.918-4.162a20.19 20.19 0 00-2.34-3.748 42.522 42.522 0 00-3.082-3.483 54.462 54.462 0 01-3.08-3.425c-.949-1.15-1.749-2.331-2.37-3.542a8.384 8.384 0 01-.949-3.867c0-.855.148-1.741.415-2.656s.711-1.712 1.363-2.48c.651-.738 1.481-1.357 2.518-1.83 1.037-.472 2.31-.708 3.851-.708 1.037 0 1.985.088 2.874.266.888.177 1.688.413 2.37.678.681.266 1.244.532 1.748.797.474.266.859.473 1.155.65l-1.57 3.896c-.119-.236-.326-.62-.622-1.18-.296-.532-.711-1.063-1.245-1.594-.533-.532-1.214-1.004-2.044-1.388-.83-.384-1.836-.59-2.992-.59-1.214 0-2.222.206-3.051.62-.83.413-1.511.944-2.044 1.564-.534.65-.919 1.328-1.156 2.096a7.534 7.534 0 00-.355 2.243c0 1.21.296 2.362.918 3.483a22.978 22.978 0 002.311 3.395 50.9 50.9 0 002.992 3.365 40.991 40.991 0 012.963 3.483c.918 1.21 1.688 2.48 2.28 3.837a9.849 9.849 0 01.92 4.221c0 1.417-.267 2.598-.83 3.631-.563 1.004-1.245 1.83-2.074 2.509a9.854 9.854 0 01-2.726 1.505c-.977.355-1.955.561-2.844.59-.444.414-1.274.916-2.518 1.477-1.214.59-2.903.856-5.066.856-1.57 0-3.051-.207-4.473-.62-1.392-.413-2.666-1.004-3.762-1.771a9.187 9.187 0 01-2.607-2.745c-.652-1.063-.978-2.273-.978-3.66v-.68l4.029-3.099a14.45 14.45 0 00-.444 1.505 7.442 7.442 0 00-.178 1.654c0 .974.207 1.977.622 3.01a7.884 7.884 0 001.837 2.716A9.48 9.48 0 0074.3 54.46c1.125.53 2.429.767 3.88.767 1.452 0 2.667-.266 3.674-.767a7.296 7.296 0 002.43-1.978 7.622 7.622 0 001.332-2.686c.267-.974.415-1.948.415-2.834a9.554 9.554 0 00-.8-3.896 17.736 17.736 0 00-2.044-3.424 52.896 52.896 0 00-2.666-3.218 52.894 52.894 0 01-2.666-3.217 17.096 17.096 0 01-2.044-3.454c-.534-1.21-.8-2.538-.8-3.985 0-1.357.207-2.479.622-3.335.415-.856 1.777-3.188 1.985-3.513l2.577.148z" fill="#8D704E"/><path d="M48.26 36.336c0 .945.563 1.712 1.659 2.303 1.126.59 2.459.885 4.029.885 1.748 0 3.051-.236 3.94-.738.889-.502 1.63-.944 2.192-1.358-.207-.088-.71-.265-1.54-.59-.8-.325-1.689-.65-2.696-.974-1.007-.354-1.985-.679-3.022-.945-1.007-.295-1.837-.442-2.459-.442-.592 0-1.096.177-1.51.501-.386.325-.593.797-.593 1.358zm10.398-4.811c.119-1.18.533-2.51 1.215-3.985.681-1.476 1.54-2.981 2.577-4.546a71.971 71.971 0 013.496-4.811 105.073 105.073 0 014.029-4.812 158.122 158.122 0 014.088-4.427c1.333-1.387 2.578-2.627 3.703-3.749-.355 0-1.155-.088-2.34-.236a193.77 193.77 0 01-3.88-.531c-1.423-.177-2.815-.355-4.178-.502-1.392-.148-2.459-.207-3.2-.207-1.125 0-2.221.118-3.318.354-1.096.237-2.103.62-3.08 1.122L61.413.177A22.99 22.99 0 0164.257 0c1.57 0 2.963.118 4.177.354 1.215.236 2.43.472 3.615.709 1.185.295 2.459.531 3.762.767 1.304.236 2.814.354 4.562.354.919 0 1.896-.088 2.992-.236 1.067-.177 2.015-.413 2.845-.738l-2.045 3.63a156.53 156.53 0 00-5.777 6.17c-1.6 1.86-2.992 3.542-4.117 5.107-1.126 1.534-2.104 2.951-2.874 4.25a245.2 245.2 0 00-2.103 3.601c-.77 1.388-1.422 2.627-1.896 3.69-.474 1.033-.89 1.978-1.245 2.775-.355.797-.681 1.505-.977 2.154-.267.65-.622 1.24-.978 1.771a1.624 1.624 0 00-.207.266c-.06.118-.119.207-.208.354.237.089.711.236 1.422.473.711.236 1.511.472 2.46.708a36.92 36.92 0 002.962.65c1.066.177 2.044.265 3.022.265 1.57 0 3.17-.265 4.799-.767a20.07 20.07 0 004.503-2.008l.77 3.13c-.948.472-3.733 2.36-6.132 2.685-1.037.148-2.015.355-2.992.355-1.482 0-2.993-.118-4.503-.355a41.825 41.825 0 01-4.118-.855 73.743 73.743 0 01-3.14-.886c-.86-.266-1.393-.443-1.6-.531-.297.206-.622.472-1.037.767-.385.295-.86.62-1.452.886a8.934 8.934 0 01-2.014.708c-.77.177-1.63.266-2.637.266-1.985 0-3.673-.384-5.036-1.181-1.363-.797-2.044-1.83-2.044-3.1 0-.737.177-1.357.503-1.859s.74-.886 1.245-1.21c.503-.295 1.036-.532 1.57-.65a7.441 7.441 0 011.51-.177c.83 0 1.808.118 2.933.295 1.126.207 2.252.473 3.348.738 1.096.296 2.074.561 2.903.797.83.236 1.393.414 1.66.502.355-.384.77-1.003 1.243-1.86a60.88 60.88 0 001.482-3.04c.533-1.15 1.096-2.39 1.718-3.69a66.634 66.634 0 011.896-3.866c.918-1.8 2.044-3.63 3.348-5.431 1.333-1.801 2.636-3.484 3.94-5.048 1.303-1.476 2.518-2.834 3.673-3.985 1.126-1.18 1.985-2.007 2.578-2.509-.208 0-.386 0-.534.03-.148.03-.325.03-.533.03-.178 0-.415 0-.74-.03-.326-.03-.593-.03-.741-.03-1.422 1.446-2.992 3.188-4.8 5.284a107.635 107.635 0 00-5.184 6.553 74.51 74.51 0 00-4.444 6.848c-1.273 2.302-2.133 4.368-2.547 6.258l-4.385 1.387z" fill="#8D704E"/><path d="M66.42 16.087c.296.03.948.03 1.896.148s2.014.236 3.17.354c1.155.118 2.28.207 3.406.295 1.126.089 1.985.118 2.608.089.918-.03 1.807-.177 2.725-.413.889-.237 1.215-.62 1.985-1.063l-2.696 4.605c-.74.118-1.363.059-2.133.059-1.274.059-2.43 0-3.436-.178-.978-.177-1.985-.324-2.963-.501a31.127 31.127 0 00-3.051-.561c-1.067-.148-2.281-.207-3.703-.148-.741.03-2.756-.03-4 .296a14.729 14.729 0 00-2.962 1.062l1.896-3.483s4.147-.886 7.258-.56z" fill="#8D704E"/><path d="M5.036 81.94C2.636 81.94 0 80.909 0 79.256v-2.362h.385c.504 2.952 1.955 4.162 4.444 4.162 1.51 0 2.874-.797 2.874-2.243 0-1.27-.83-2.096-2.43-3.04l-2.725-1.594C.71 73.085 0 72.023 0 70.399c0-2.273 1.689-3.719 4.266-3.719 2.192 0 4.77.974 4.77 2.627v2.362H8.65c-.474-2.952-1.896-4.103-4.355-4.103-1.304 0-2.548.856-2.548 2.213 0 1.27.83 1.92 2.459 2.893l2.725 1.594c1.867 1.092 2.726 2.007 2.726 3.63-.03 2.421-1.778 4.045-4.622 4.045zM20.442 67.064c1.54 0 1.866.886 1.866 1.772v1.653h-.415c0-1.772-.977-2.539-2.755-2.539H15.02v5.697h5.955v.885H15.02v6.14h3.852c1.985 0 3.08-.65 3.733-2.42l.444.118-.77 2.096c-.237.649-.77 1.092-1.66 1.092h-7.583V69.69c0-1.328-.208-2.184-1.54-2.184h-.445v-.443h9.39zM36.913 67.064l-9.361 13.608h9.036v.885H24.797v-.443L33.95 67.92h-5.303c-1.777 0-2.755.767-2.755 2.538h-.444v-1.653c0-.885.325-1.77 1.866-1.77h9.598v.029zM41.86 76.51h5.392l-2.636-6.376-2.755 6.376zm11.021 5.048c-.207.059-.563.118-.889.118-.977 0-2.784-.325-3.762-2.864l-.563-1.416h-6.162l-1.777 4.162h-.978l6.162-14.494h.652l4.858 11.749c.682 1.653 1.215 2.184 2.43 2.302v.443h.03zM62.065 71.02c0-2.303-2.222-3.188-3.407-3.188-.563 0-1.215.118-1.659.236v5.815a7.075 7.075 0 001.659.207c1.215 0 3.407-.886 3.407-3.07zm-3.525 3.837H57v6.7h-1.986V69.693c0-1.329-.237-2.185-1.54-2.185h-.445v-.443h5.748c1.866 0 5.51.443 5.51 3.956 0 2.538-1.985 3.394-3.526 3.749l2.311 3.837c1.126 1.86 1.867 2.42 2.992 2.538v.443c-.207.118-.77.207-1.333.207-1.54 0-2.548-.768-3.97-3.188l-2.221-3.749zM74.862 74.089c0 5.284 2.43 7.025 5.303 7.025 1.57 0 2.548-.325 3.407-.767V76.51c0-1.21.326-2.569 3.644-2.569v.443c-1.422 0-1.66.797-1.66 2.096v4.132C83.958 81.587 82.299 82 80.166 82c-4.414 0-7.495-3.513-7.495-7.911 0-4.192 2.636-7.468 6.843-7.468 2.637 0 4.503.797 5.303 1.771.563.65.563 1.978.563 2.952h-.444c-.563-2.51-2.104-3.837-4.74-3.837-3.792 0-5.333 3.276-5.333 6.582zM96.786 71.02c0-2.303-2.193-3.188-3.407-3.188-.563 0-1.215.118-1.66.236v5.815a7.077 7.077 0 001.66.207c1.214 0 3.407-.886 3.407-3.07zm-3.526 3.837h-1.54v6.7h-1.985V69.693c0-1.329-.237-2.185-1.54-2.185h-.445v-.443h5.747c1.867 0 5.51.443 5.51 3.956 0 2.538-1.984 3.394-3.525 3.749l2.31 3.837c1.127 1.86 1.867 2.42 2.963 2.538v.443c-.207.118-.77.207-1.333.207-1.54 0-2.547-.768-3.97-3.188l-2.192-3.749zM108.191 67.507c-2.874 0-4.621 2.627-4.621 6.818 0 4.162 1.777 6.819 4.621 6.819 2.874 0 4.622-2.627 4.622-6.819 0-4.191-1.778-6.818-4.622-6.818zm0-.886c4.207 0 6.843 3.395 6.843 7.675 0 4.31-2.636 7.704-6.843 7.704-4.177 0-6.843-3.395-6.843-7.704 0-4.31 2.636-7.675 6.843-7.675zM118.145 69.691c0-1.328-.207-2.184-1.54-2.184h-.445v-.443h1.985c1.541 0 1.985.443 1.985 2.627v6.258c0 3.07 1.007 4.93 3.91 4.93 3.378 0 4.474-1.742 4.474-5.61v-8.235h.889v8.236c0 4.28-1.097 6.494-5.629 6.494-4.296 0-5.629-2.214-5.629-6.494V69.69zM140.778 71.344c0-2.627-2.192-3.512-3.407-3.512-.563 0-1.215.118-1.659.236v6.582a7.073 7.073 0 001.659.207c1.215 0 3.407-.885 3.407-3.513zm-5.066 10.214h-1.985V69.69c0-1.328-.237-2.184-1.54-2.184h-.445v-.443h5.747c1.867 0 5.511.443 5.511 4.399 0 3.748-3.644 4.162-4.859 4.162h-2.429v5.933z" fill="#2A2522"/></svg>