<?xml version="1.0" encoding="utf-8"?><svg width="28" height="16" fill="none" xmlns="http://www.w3.org/2000/svg" viewBox="0 0 28 16"><path fill-rule="evenodd" clip-rule="evenodd" d="M2.388 1.092v13.816c0 .596-.543 1.092-1.194 1.092C.52 16 0 15.504 0 14.908V1.092C0 .496.52 0 1.194 0c.651 0 1.194.496 1.194 1.092zM6.642 9.092v5.816c0 .596-.543 1.092-1.216 1.092-.65 0-1.194-.496-1.194-1.092V9.092C4.232 8.476 4.775 8 5.426 8c.673 0 1.216.476 1.216 1.092zM10.874 9.092v5.816c0 .596-.521 1.092-1.194 1.092-.651 0-1.194-.496-1.194-1.092V9.092C8.486 8.476 9.03 8 9.68 8c.673 0 1.194.476 1.194 1.092zM15.13 4.764v10.144c0 .596-.543 1.092-1.194 1.092-.673 0-1.194-.496-1.194-1.092V4.764c0-.615.521-1.111 1.194-1.111.651 0 1.194.496 1.194 1.111zM19.36 9.092v5.816c0 .596-.52 1.092-1.194 1.092-.65 0-1.193-.496-1.193-1.092V9.092c0-.616.542-1.092 1.194-1.092.672 0 1.193.476 1.193 1.092zM23.616 9.092v5.816c0 .596-.543 1.092-1.194 1.092-.65 0-1.194-.496-1.194-1.092V9.092c0-.616.543-1.092 1.194-1.092.651 0 1.194.476 1.194 1.092zM28 1.092v13.816c0 .596-.544 1.092-1.195 1.092-.672 0-1.215-.496-1.215-1.092V1.092C25.59.496 26.133 0 26.805 0 27.456 0 28 .496 28 1.092z" fill="#B0558C"/></svg>