<svg width="54" height="54" viewBox="0 0 54 54" fill="none" xmlns="http://www.w3.org/2000/svg">
<circle cx="27" cy="27" r="27" fill="#FE5C1F"/>
<path d="M24.1248 35.7415H19.5L24.8734 41.175C26.0769 42.2695 27.6152 42.9137 29.2316 43H33.9179L28.483 37.4939C27.2678 36.4286 25.7316 35.8109 24.1248 35.7415Z" fill="white"/>
<path d="M26.7601 35.8141V28.037C26.6723 26.4031 26.0356 24.8484 24.9553 23.63L21.6533 20.3533V28.037C21.7395 29.6713 22.3765 31.2265 23.4581 32.444L26.7601 35.8141Z" fill="white"/>
<path d="M34 15.6766V11L28.6266 16.4336C27.5465 17.6511 26.9129 19.207 26.832 20.8406V25.5794L32.267 20.0836C33.3226 18.8561 33.9338 17.3019 34 15.6766Z" fill="white"/>
</svg>
