<svg width="54" height="54" viewBox="0 0 54 54" fill="none" xmlns="http://www.w3.org/2000/svg"><circle cx="27" cy="27" r="27" fill="#072833"/><path fill-rule="evenodd" clip-rule="evenodd" d="M22.42 26.08h3.598v-13.2H22.42v13.2zm-1.966 1.881h7.528V11h-7.528v16.961zM11 31.682h32v-1.874H11v1.874zm1.959 7.323h9.249v-3.577h-9.25v3.577zM11 43h1.959v-2.123h11.208v-7.323H11V43zm24.471-30.12v15.08h1.965V16.64l3.597-3.76v15.08H43V11h-2.761l-2.803 2.921V11h-2.76l-4.77 4.93v12.031h1.968V16.642l3.598-3.763zm-7.429 26.125h5.457v-3.577h-5.457v3.577zm7.5 0h5.5v-3.577h-5.5v3.577zm-9.46 1.872H33.5V43h2.043v-2.123H43v-7.323H26.082v7.323zM12.967 16.642l3.597-3.761V26.08h-3.597v-9.438zm3.597 11.32h1.965V11h-2.76l-4.768 4.93v12.031h5.563z" fill="#fff"/></svg>1V27.9611H31.8737V16.6425L35.4715 12.8794Z" fill="white"/>
<path fill-rule="evenodd" clip-rule="evenodd" d="M28.042 39.0051H33.4993V35.4277H28.042V39.0051ZM35.5427 39.0051H41.0415V35.4277H35.5427V39.0051ZM26.0825 40.8768H33.4996V43.0001H35.5427V40.8768H42.9998V33.5542H26.0825V40.8768Z" fill="white"/>
<path fill-rule="evenodd" clip-rule="evenodd" d="M12.967 16.6425L16.5635 12.8809V26.0799H12.967V16.6425ZM16.5635 27.9611H18.5295V11H15.7693L11.0005 15.9301V27.9611H16.5635Z" fill="white"/>
</svg>
