<svg width="54" height="54" viewBox="0 0 54 54" fill="none" xmlns="http://www.w3.org/2000/svg">
<circle cx="27" cy="27" r="27" fill="#072833"/>
<path fill-rule="evenodd" clip-rule="evenodd" d="M22.4198 26.0797H26.0179V12.8794H22.4198V26.0797ZM20.4541 27.9613H27.9824V11H20.4541V27.9613Z" fill="white"/>
<path fill-rule="evenodd" clip-rule="evenodd" d="M11 31.6823H42.9995V29.8083H11V31.6823Z" fill="white"/>
<path fill-rule="evenodd" clip-rule="evenodd" d="M12.9585 39.0051H22.208V35.4277H12.9585V39.0051ZM11 43.0001H12.9585V40.8768H24.167V33.5542H11V43.0001Z" fill="white"/>
<path fill-rule="evenodd" clip-rule="evenodd" d="M35.4715 12.8794V27.9611H37.436V16.6418L41.0333 12.8809V27.9611H42.9998V11H40.2386L37.436 13.9214V11H34.676L29.9067 15.9301V27.9611H31.8737V16.6425L35.4715 12.8794Z" fill="white"/>
<path fill-rule="evenodd" clip-rule="evenodd" d="M28.042 39.0051H33.4993V35.4277H28.042V39.0051ZM35.5427 39.0051H41.0415V35.4277H35.5427V39.0051ZM26.0825 40.8768H33.4996V43.0001H35.5427V40.8768H42.9998V33.5542H26.0825V40.8768Z" fill="white"/>
<path fill-rule="evenodd" clip-rule="evenodd" d="M12.967 16.6425L16.5635 12.8809V26.0799H12.967V16.6425ZM16.5635 27.9611H18.5295V11H15.7693L11.0005 15.9301V27.9611H16.5635Z" fill="white"/>
</svg>
