<svg width="54" height="54" viewBox="0 0 54 54" fill="none" xmlns="http://www.w3.org/2000/svg">
<circle cx="27" cy="27" r="27" fill="#0D356A"/>
<path d="M11.8003 27.0098C11.8003 35.3839 18.6236 42.2006 27.0104 42.2006C35.3811 42.2006 42.1997 35.3809 42.1997 27.0098C42.1997 18.6221 35.3841 11.8009 27.0104 11.8009C18.6197 11.8009 11.8003 18.6199 11.8003 27.0098V27.0098ZM11 27.0098C11 18.1773 18.1787 11 27.0104 11C35.8228 11 43 18.1765 43 27.009C43 35.8235 35.8221 43 27.0096 43C18.1795 43.0008 11 35.8235 11 27.0105V27.0098Z" fill="white"/>
<path d="M22.2366 16.9013C21.6831 17.1437 21.1573 17.4421 20.6676 17.7917C24.4771 16.0951 29.1285 16.2057 31.6242 17.319C32.4091 17.6834 32.9364 17.9047 33.1754 18.3397C30.5849 17.6457 29.4724 17.52 27.3043 17.5735C24.2204 17.6292 20.1187 18.8493 18.5505 19.782L17.8612 20.6401C20.1187 19.3047 24.3314 18.4323 26.6667 18.3586C29.2742 18.3232 31.2965 18.5603 33.1577 19.2347C33.0467 19.7082 32.81 19.9453 32.4091 20.1839C24.9698 18.8877 20.5743 20.4188 16.6006 23.0089L16.31 23.8655C20.7409 20.8215 26.1725 19.9837 31.4068 20.8945C29.5294 21.5516 27.2866 21.6969 25.4085 22.132C23.8048 22.4978 22.9475 22.6085 20.8118 23.3213C18.6453 24.0326 17.3655 24.7613 16.5652 25.6924C16.182 26.132 15.8898 26.6408 15.8158 27.1866C15.7819 27.5132 15.7996 27.8083 15.9098 28.1004C15.9977 28.3563 16.199 28.6107 16.4187 28.8659C16.1643 29.3025 15.943 29.8708 16.31 30.5272C16.4734 30.8358 16.8929 31.1459 17.2961 31.4402L17.1827 31.7654C17.1288 32.1508 17.0748 32.6055 17.3308 32.9878C17.7664 33.6811 18.2953 34.1388 19.1349 34.5761C19.2629 35.1421 19.4618 35.5968 19.8997 36.0003C20.8295 36.8561 22.9097 38.4978 26.6097 38.7537C29.3821 38.9374 31.369 38.0974 32.1176 37.7315L33.0289 37.2588C31.4792 37.8776 28.8733 38.2426 26.7376 38.0605C23.6383 37.8046 20.8689 35.7805 20.5219 35.1963C20.6299 35.2679 20.7763 35.3236 20.902 35.3785C24.5318 37.1294 29.2172 38.0793 35.2162 35.6344L35.7112 35.1602C30.2565 36.8561 25.4817 36.8019 20.3561 34.1214C20.4124 33.8655 20.5219 33.6435 20.7571 33.4651C22.0685 34.0447 23.3283 34.5227 24.8603 34.8305C26.6474 35.1602 28.6883 35.234 30.3675 35.1602C32.0637 35.0872 35.4175 34.2479 37.0042 33.4094C37.1491 33.2814 37.2216 33.0646 37.3673 32.9171C34.2702 34.0447 30.5849 34.5761 28.3621 34.4105C26.1918 34.2479 24.2605 33.9912 21.7069 32.8245C22.198 32.625 22.7092 32.4602 23.2188 32.3126C24.8965 32.8245 26.6097 33.1331 28.6335 33.2257C30.6412 33.316 35.3257 32.5708 38.2786 30.7838C38.3719 30.5279 38.4621 30.2524 38.4621 30.2524C38.4621 30.2524 34.3597 32.4429 29.7114 32.4429C27.541 32.4429 26.2103 32.132 25.2265 31.8949C27.413 31.4937 30.167 31.1647 33.2649 30.3811C34.8323 29.9784 36.7659 29.0654 37.6418 28.3006C38.3889 27.6239 38.9733 26.7485 38.7736 25.858C38.7343 25.6179 38.4074 25.0556 38.0057 24.8531C38.3889 24.3608 38.3526 23.9408 38.2994 23.5787C38.2609 23.3002 38.1337 22.9931 37.9718 22.7206C37.7158 22.3887 37.4768 22.132 36.9841 21.8422C37.0597 21.4595 37.0087 21.0633 36.8384 20.7108C36.456 20.0545 35.7644 19.4899 34.5794 18.8877C34.5247 18.6499 34.3766 18.3397 34.1237 18.0304C32.6296 16.5528 30.1847 15.8414 28.1239 15.8038C28.0082 15.8015 27.8934 15.8008 27.7808 15.8008C25.3699 15.8008 23.4347 16.3427 22.2366 16.9013V16.9013ZM33.9048 20.549C34.0883 20.348 34.3597 20.0379 34.4314 19.782C34.9441 20.1109 35.5269 20.6032 35.5987 21.1143C35.0536 20.9111 34.4699 20.6958 33.9048 20.5497V20.549ZM34.3597 22.7733C33.4861 22.5347 32.7205 22.2426 31.6967 22.0627C32.3189 21.8234 32.736 21.5697 33.103 21.2769C33.9202 21.4944 34.6866 21.7699 35.3103 22.0424C35.2024 22.2012 34.5779 22.7793 34.3882 22.7793C34.3783 22.7798 34.3685 22.7777 34.3597 22.7733V22.7733ZM35.9464 23.4116C36.1823 23.2287 36.402 23.03 36.6033 22.7914C37.0944 23.2106 37.2401 23.5027 37.0042 23.9589C36.6773 23.7225 36.328 23.5938 35.9464 23.4116V23.4116ZM17.2228 27.9363C15.8713 26.0755 20.5566 24.7447 21.4517 24.47C23.73 23.7925 26.3938 23.2852 28.8008 22.9931C30.4561 22.7914 31.3343 22.9758 32.9033 23.3943C28.8733 24.4707 24.8965 24.8147 21.104 25.9287C18.0463 26.817 17.2352 27.9363 17.2228 27.9363V27.9363ZM18.2228 28.829C19.6453 27.6239 22.5458 26.9502 23.6043 26.7131C26.9759 25.9829 30.1123 25.5275 31.4068 25.2001C32.9757 24.8147 34.0698 24.4519 34.8323 24.0876C34.8693 24.0326 36.109 24.6333 36.237 24.7778C35.8184 25.1263 35.2371 25.4192 34.5971 25.6359C32.6828 26.33 29.2002 27.0586 27.3598 27.3371C25.4994 27.645 23.9467 27.8806 21.8897 28.4255C20.7023 28.7379 19.8997 29.103 19.3161 29.4869C18.8789 29.231 18.6237 29.1587 18.2228 28.829V28.829ZM20.8689 30.2886C21.4687 30.0326 22.1256 29.8316 22.7616 29.6706C25.9721 28.8817 28.8008 28.7379 32.702 27.6811C34.5794 27.1866 35.9464 26.6566 36.8045 26.0025C36.9309 25.8911 37.0589 25.8008 37.1869 25.6924C38.3172 27.4425 34.0698 28.7929 31.1685 29.4161C29.6519 29.716 28.1322 30.0011 26.6097 30.2712C24.7161 30.5814 24.0931 30.7462 22.7809 31.1293C22.1256 30.8734 21.4687 30.5994 20.8689 30.2886V30.2886ZM17.4564 29.7413C17.7494 29.9257 17.9668 30.0725 18.3146 30.2524C18.1866 30.3616 18.0216 30.4722 17.8951 30.5987C17.6053 30.4331 17.3107 30.0718 17.4564 29.7406V29.7413ZM18.9714 31.4199C19.1542 31.2558 19.3901 31.0925 19.6453 30.9291C20.1927 31.1851 20.7571 31.4192 21.286 31.6578C20.9299 31.7877 20.5883 31.9529 20.2667 32.1508C19.8312 31.9133 19.3994 31.6694 18.9714 31.4192V31.4199ZM18.4965 32.3126C18.8065 32.5144 19.1164 32.6777 19.4279 32.8433C19.2999 33.0262 19.2074 33.17 19.1542 33.3544C18.6977 32.9705 18.4772 32.6604 18.4965 32.3126V32.3126Z" fill="white"/>
</svg>
