<svg width="54" height="54" viewBox="0 0 54 54" fill="none" xmlns="http://www.w3.org/2000/svg">
<circle cx="27" cy="27" r="27" fill="#FFF22D"/>
<path fill-rule="evenodd" clip-rule="evenodd" d="M26.9494 30.8424L36.5826 40.4499L40.3523 36.6802L30.7101 27.0491L32.5891 25.1845L32.5903 21.4373L33.9309 20.0972L33.9329 23.2067L35.2421 24.4959L39.9449 19.7894L41.2163 21.0446C41.2163 20.2361 40.9778 17.4505 38.7407 15.2702C36.236 12.8282 33.728 14.2555 32.8638 15.1195L28.3228 19.6602L29.4518 20.7885L26.9494 23.2827L24.4499 20.7881L25.5786 19.6598L21.0381 15.1191C20.1741 14.2551 17.6667 12.8278 15.1609 15.2698C12.9239 17.4501 12.7368 20.2365 12.7368 21.0459L13.9576 19.7892L18.66 24.4957L19.9704 23.1914L19.9712 20.0971L21.3117 21.4371L21.3084 25.1757L23.1918 27.0491L13.646 36.5845L17.4113 40.3428L26.9494 30.8424V30.8424Z" fill="black"/>
</svg>
