<svg width="54" height="54" viewBox="0 0 54 54" fill="none" xmlns="http://www.w3.org/2000/svg"><path d="M32.38.571v14h-5.428a12.357 12.357 0 00-12.38 12.382c0 6.856 5.524 12.38 12.378 12.38h5.43v14C44.76 50.953 54 40.096 54 26.951 54 13.905 44.76 3.048 32.38.57" fill="#003791"/><path d="M26.953 43.712c-9.238 0-16.765-7.522-16.765-16.759 0-9.236 7.524-16.76 16.76-16.76h1.05V0H26.95C12.096 0 0 12.095 0 26.95 0 41.906 12.096 54 26.953 54H28V43.717h-1.047v-.005z" fill="#FF4B5F"/></svg>5H27.9972V0H26.9503C12.0959 0 0 12.0951 0 26.9509C0 41.9049 12.0959 54 26.9529 54H27.9997V43.717H26.9529V43.7118Z" fill="#FF4B5F"/>
</svg>
