<svg width="54" height="54" viewBox="0 0 54 54" fill="none" xmlns="http://www.w3.org/2000/svg"><circle cx="27" cy="27" r="27" fill="#FCE527"/><path d="M42.604 26.347L43 25.02l-1.374.044a3.243 3.243 0 01-1.762-.604h.186a2.217 2.217 0 001.98-1.233l.59-1.308a10.69 10.69 0 01-1.422-.083 2.202 2.202 0 01-1.156-.7 2.19 2.19 0 00-2.277-.58c.033-.107.06-.215.08-.324a2.932 2.932 0 00-.603-2.158l-1.033-1.276-.642 1.502a1.34 1.34 0 01-.451.529 2.783 2.783 0 00-.76-1.41 3.414 3.414 0 00-2.468-1.028c-.161 0-.323.011-.483.036l-1.227.24c.108-.418.279-.817.507-1.185l.68-1.082-1.734.197-.55-1.185-1.07.55L27.01 13l-.986.976-1.07-.55-.55 1.155-1.75-.182.689 1.07c.227.368.397.768.503 1.186l-1.188-.233h-.04a3.181 3.181 0 00-.499-.036 3.417 3.417 0 00-2.467 1.027 2.788 2.788 0 00-.764 1.411 1.324 1.324 0 01-.447-.518l-.622-1.505-1.05 1.284a2.954 2.954 0 00-.59 2.15c.02.11.047.217.08.324a2.262 2.262 0 00-.693-.111 2.198 2.198 0 00-1.584.692c-.301.344-.7.588-1.145.699-.474.07-.954.098-1.433.083l.59 1.308a2.215 2.215 0 001.98 1.232h.186a3.244 3.244 0 01-1.762.617L11 25.035l.424 1.328a2.741 2.741 0 002.293 1.94 2.191 2.191 0 01-1.189 1.616l-1.04.427.57.988a2.521 2.521 0 002.146 1.157c.226 0 .451-.024.673-.07.05.246.114.49.19.73.196.519.21 1.088.04 1.616l-.515 1.075 1.148.3c.259.066.525.099.792.099.195 0 .389-.024.578-.071.135-.03.268-.071.396-.123.147.265.328.51.539.727.736.755 1.782 1.138 3.1 1.138h.943l-1.948.79 1.48.716a19.57 19.57 0 001.826.79l-.186.506.51.233a8.021 8.021 0 002.658.553h1.215a8.012 8.012 0 002.642-.55l.51-.232-.186-.506a19.813 19.813 0 001.846-.818l1.453-.703-1.944-.79h.946c1.323 0 2.376-.396 3.105-1.139.21-.217.391-.462.538-.727a2.63 2.63 0 00.959.186c.267 0 .533-.034.792-.099l1.156-.304-.503-1.055a2.43 2.43 0 01.032-1.64c.079-.24.15-.485.206-.727.222.047.45.071.677.072a2.512 2.512 0 002.15-1.186l.562-.976-1.041-.427a2.188 2.188 0 01-1.188-1.616 2.775 2.775 0 002.293-1.94l-.044.024z" fill="#fff"/><path d="M27.01 17.066c-1.105 0-1.932.363-2.11.79l2.11.83 2.115-.834c-.179-.427-1.006-.79-2.115-.79m.023 22.016h-.023a8.66 8.66 0 01-2.036-.26l-.55 1.445a9.37 9.37 0 005.18 0l-.535-1.442a8.688 8.688 0 01-2.036.26m4.044-1.429c-.58.288-1.183.529-1.802.719l.431 1.185c.691-.18 1.363-.43 2.004-.743l-.899-.296.266-.865zm-8.126 0l.265.865-.899.296c.64.313 1.31.562 2 .743l.436-1.185a11.78 11.78 0 01-1.802-.72m4.059-21.964a4.788 4.788 0 012.277.549c.067-.228.15-.45.245-.668l-.237.028-.25.027-.107-.225-.317-.668-.578.3-.226.115-.178-.17-.63-.636-.625.636-.178.178-.226-.114-.582-.3-.313.667-.107.225-.25-.027-.237-.028c.096.217.178.44.246.668.7-.37 1.48-.562 2.273-.557m12.711 7.733a.993.993 0 00.329.055 1.242 1.242 0 001.081-.652 3.05 3.05 0 01-1.794-.992 1.188 1.188 0 00-.875-.395 1.395 1.395 0 00-.729.221c1.121.597 1.35 1.553 1.98 1.766m-25.735.052c.11 0 .22-.019.324-.056.642-.213.872-1.185 1.98-1.766a1.395 1.395 0 00-.728-.221 1.19 1.19 0 00-.88.395 3.047 3.047 0 01-1.79.992 1.238 1.238 0 001.082.652" fill="#fff"/><path d="M40.026 27.307h.051c1.188 0 1.584-1.256 1.584-1.256h-.023a4.265 4.265 0 01-3.2-1.616c-.812-1.032-1.481-1.936-2.796-2.292l-.13-.024-.028-.13c-.036-.202.103-.395.396-.593 1.817-1.185.582-2.698.582-2.698s-.519 1.209-1.679 1.209h-.087a2.47 2.47 0 01-.396-.04l-.214-.04a1.719 1.719 0 00-.467-1.722 2.416 2.416 0 00-1.755-.727 1.92 1.92 0 00-.348.027c.396.522.693 1.391.23 1.929-.396.462-1.378.482-1.378 1.185 0 .292.273.628.76.933 1.47.924 2.926 2.149 3.536 3.789.756 2.046-.095 3.406-1.315 4.188.265.223.59.36.935.395h.325a2.776 2.776 0 001.774-.55 3.08 3.08 0 01-.71 1.459 3.025 3.025 0 01-2.422 1.047 1.291 1.291 0 00.49.976 2.46 2.46 0 001.054.395s-1.378.28-1.533 2.311a3.106 3.106 0 01-.364 1.482h.024c3.2 0 3.116-2.738 3.116-2.738a1.549 1.549 0 001.45 1.063c.181-.001.362-.024.538-.067a3.348 3.348 0 010-2.371 5.575 5.575 0 00.32-1.976 1.797 1.797 0 001.502.656 1.504 1.504 0 001.279-.671c-2.135-.886-1.92-3.734-1.92-3.734.245.15.527.227.815.225l.004-.024zm-.646 3.003c-.867-.427-1.417-1.56-1.548-1.976-.13 2.229-1.24 3.79-2.507 5.291-.392.451-.697.97-.898 1.533.105-.567.347-1.1.704-1.553 1.188-1.438 2.34-3.228 2.424-5.294a6.28 6.28 0 00-.895-3.58 3.214 3.214 0 01-.824 3.386s2.198-2.623-.875-5.318c-1.227-1.023-2.574-1.656-3.267-2.106 2.499.814 3.723-.083 3.723-.083a3.04 3.04 0 01-2.475.58c.174.084.356.175.55.277 2.107 1.142 4.004 3.023 4.324 5.627v-.02c.491 2.556 1.584 3.212 1.584 3.212m-20.167 2.841c.372-.042.73-.169 1.045-.37a1.297 1.297 0 00.463-.973 3.038 3.038 0 01-2.427-1.047 3.098 3.098 0 01-.705-1.458 2.76 2.76 0 001.774.55h.329c.346-.035.673-.173.938-.396-1.22-.79-2.075-2.137-1.318-4.188.606-1.64 2.067-2.869 3.536-3.79.487-.304.76-.643.76-.932 0-.687-.978-.707-1.378-1.185-.463-.538-.174-1.403.226-1.928a2.421 2.421 0 00-2.103.7 1.718 1.718 0 00-.467 1.722l-.214.043c-.13.024-.263.037-.396.04h-.083c-1.164 0-1.679-1.21-1.679-1.21s-1.216 1.506.598 2.691c.313.202.451.395.396.593l-.028.13-.13.024c-1.315.356-1.98 1.26-2.796 2.292a4.252 4.252 0 01-3.18 1.604h-.036s.396 1.256 1.584 1.256h.056c.288.003.57-.075.816-.225 0 0 .21 2.85-1.925 3.734a1.504 1.504 0 001.28.672 1.802 1.802 0 001.5-.656 5.589 5.589 0 00.32 1.976 3.355 3.355 0 010 2.37c.176.044.355.066.535.068a1.554 1.554 0 001.45-1.063s-.084 2.738 3.116 2.738h.024a3.123 3.123 0 01-.36-1.482c-.151-2.03-1.533-2.311-1.533-2.311l.012.011zm-.527.483c-1.283-1.502-2.376-3.059-2.53-5.307-.13.395-.681 1.541-1.549 1.976 0 0 1.09-.656 1.584-3.213v.02c.325-2.604 2.218-4.484 4.329-5.626.194-.107.376-.194.55-.277a3.044 3.044 0 01-2.471-.58s1.22.896 3.722.082c-.685.455-2.031 1.087-3.25 2.11-3.074 2.69-.876 5.318-.876 5.318a3.219 3.219 0 01-.824-3.386 6.26 6.26 0 00-.894 3.58c.083 2.07 1.223 3.856 2.419 5.295.36.452.602.985.709 1.553a4.85 4.85 0 00-.903-1.534m5.912-10.501c.052.054.103.118.154.177l.036.043.139.19.031.043c.052.08.103.166.155.25a2.33 2.33 0 001.861 1.276 2.336 2.336 0 001.857-1.273c.052-.087.103-.174.159-.253l.023-.035c.048-.067.095-.134.143-.198l.032-.04c.051-.062.103-.126.158-.18l.028-.025c.24-.252.546-.434.883-.525l-.163-.095-.649-.395-.665-.395-1.806.995-1.782-.968-.665.396-.65.395-.166.095c.334.08.641.25.887.49l.028.027-.028.004zm1.671-.084h1.497v.518a.637.637 0 00-.523-.174v.743c.004.184.053.364.143.525h-.745a1.1 1.1 0 00.143-.525v-.74a.64.64 0 00-.523.175l.008-.522z" fill="#fff"/><path d="M26.86 22.04v-3.022l-1.929-.652.495 2.931 1.434.743zm-.396-2.28v.486l-.095-.043a1.187 1.187 0 01-.396-.225.878.878 0 01-.396-.589l.887.372zm2.13 1.537l.507-2.927-1.929.652v3.022l1.422-.747zm-1.006-1.533l.875-.367a.873.873 0 01-.396.589c-.116.1-.25.176-.396.225l-.09.043.007-.49zm-3.457 9.282c.172.056.35.084.53.083v-.055a.995.995 0 00.029-.107c.028-.158.044-.318.047-.478a.672.672 0 01-.253-.269.336.336 0 00-.325-.221 1.05 1.05 0 00-.491.17.856.856 0 00.443.873m4.285-1.6c-.357.395-1.062 1.067-1.093 1.098l-.044.044-2.23-.036a2.273 2.273 0 01-.07.541v.071l2.633.475c.273-.19 1.03-.743 1.322-.957a1.278 1.278 0 01-.186-.936 1.32 1.32 0 01-.332-.296" fill="#fff"/><path d="M28.697 24.786a2.26 2.26 0 01-1.68.751c-.08.004-.16.004-.24 0a1.764 1.764 0 01-.239-.035.895.895 0 00.04.576.912.912 0 00.555.459l.09.035v.1a.92.92 0 00.725.849c.115-.119.218-.226.297-.313a.725.725 0 01.139-.849 1.183 1.183 0 00.578 1.185l.11.052-.03.118a.93.93 0 00.581 1.158l.147.055-.064.143a.91.91 0 00.424 1.185h1.632V28.95a1.043 1.043 0 01-.895-.873.95.95 0 01-.626-.356.79.79 0 01-.063-.893c.003.264.1.519.273.72a.849.849 0 00.538.256h.12v.123a.789.789 0 00.653.727v-2.66a3.48 3.48 0 01.265-1.209h-3.33zm-4.427 1.217l-.044 1.695.194.028.471-1.624-.237-.502-.384.403zm5.203 7.773h.047c.293.082.369 1.137.883 1.232a.669.669 0 00.139 0 .397.397 0 00.333-.178s-.258-.395-.452-.68c-.257-.359-.455-.79-.938-.79h-.036a.479.479 0 00-.253.084.994.994 0 00-.539-.162c-.22.027-.437.073-.65.138l-1.069-.107a.566.566 0 01-.348-.249v-.114a1.258 1.258 0 00-.954-1.253s.027-.166-.036-.229l-.238.285-.792-.396.555.645-.491.553a.147.147 0 00-.028.173l.202.178.257-.154a.12.12 0 01.064 0h.273c.095 0 .194-.024.206-.118-.032.324-.333.885-.135 1.327l.147.336-.947-.134-.435.75a.599.599 0 00-.028.664l.166.206c.116-.116.212-.25.285-.395l-.075-.083a.158.158 0 01-.02-.206l.278-.458 1.116.26.06-.098a.324.324 0 01.305-.162c.05-.004.1-.004.15 0 .293.059.592.09.891.095a1.279 1.279 0 00.943-.289c.396.6 1.223.696 1.16 1l-.218 1.023c.143 0 .281 0 .396-.031l.206-1.067c.024-.115.043-.273.043-.273a1.977 1.977 0 01-.396-.454c-.146-.277-.067-.423-.201-.79a.159.159 0 01.134-.083l.04.004zm-4.221-1.506a.093.093 0 01-.068-.032.096.096 0 01-.024-.07.093.093 0 01.032-.068.096.096 0 01.071-.023.097.097 0 110 .193" fill="#fff"/><path d="M23.767 34.732s.372-.154.396-.261l-.048-.123a.166.166 0 01.036-.213l.396-.277.67.127a.564.564 0 01-.112-.352l-.637-.134-.602.363a.581.581 0 00-.19.692l.09.178zm4.723 1.75h.397s.344-1.004.364-1.035a8.45 8.45 0 01-.748-.395c.103.154.348.324.3.458l-.312.972z" fill="#fff"/><path d="M31.762 30.535h-9.504v3.557c0 1.458 1.057 2.37 2.617 2.37 1.303 0 1.648.052 2.135.53a1.583 1.583 0 011.188-.502v-.056l.3-.924-.506-.577a1.84 1.84 0 01-.63.075 5.17 5.17 0 01-.942-.099.443.443 0 00-.1 0c-.043 0-.043 0-.055.024l-.06.099-.106.178-.206-.048-.91-.213-.128.205v.024l.111.123-.047.158a1.64 1.64 0 01-.353.517l-.23.245-.205-.26-.155-.194a.79.79 0 01-.11-.759l-.258.107-.115-.25-.079-.177a.863.863 0 01.29-1.047l.732-.395.697.138c0-.067.043-.304.063-.367h-.04l-.395.15-.396-.269a.205.205 0 010-.292l.376-.57-.955-1.184 1.465.6.1-.119.198-.236.225.213c.06.057.1.13.119.21.396.157 1.125.62 1.188 1.37l-.226.091a.277.277 0 00.107.087l1.046.103.095-.028c.177-.066.364-.102.554-.107.19.002.376.045.546.127a.825.825 0 01.234-.047h.052a1.292 1.292 0 011.06.75l.116.166c.194.277.451.676.459.696l.115.177-.143.162a.695.695 0 01-.55.273 1.023 1.023 0 01-.19 0 .82.82 0 01-.167-.051c0 .055 0 .122-.031.178l-.182.952a2.234 2.234 0 001.786-2.316v-3.568zm-9.504-.285h7.39a1.184 1.184 0 01-.27-1.184 1.234 1.234 0 01-.277-.182c-.29.213-1.188.853-1.402 1.015l-.048.032-2.898-.522h-.06a2.397 2.397 0 01-.28 0 .28.28 0 01-.274.222h-.048a.29.29 0 01-.237-.328v-.064a1.158 1.158 0 01-.452-1.185l.044-.04.043-.031s.056-.04.131-.08l-.21-.03a.146.146 0 01-.1-.22.142.142 0 01.148-.065l.503.079.047-1.763.749-.79.467.98-.491 1.695.443.071a.146.146 0 01.12.166.141.141 0 01-.143.119h-.024l-.36-.06v.028c.04.07.1.127.174.162l2.21.036.566-.557a1.188 1.188 0 01-.792-.984 1.155 1.155 0 01-.63-.573 1.183 1.183 0 01-.052-.79 2.584 2.584 0 01-.922-.617H22c.156.384.244.792.258 1.205v4.256z" fill="#FCE527"/><path d="M25.307 32.084a.096.096 0 00-.103.091.097.097 0 00.023.071.095.095 0 00.068.032.097.097 0 000-.194m6.467 6.468l-.546-.209.15-.565.166-.616c-.747.382-1.53.69-2.336.92-.396.11-.681.162-.681.162v.42a9.864 9.864 0 01-1.47.125h-.035a9.84 9.84 0 01-1.469-.126v-.419s-.293-.051-.681-.162a12.86 12.86 0 01-2.336-.92l.13.616.155.565-.55.21-.61.225c.817.428 1.67.785 2.55 1.066l-.21.57a7.89 7.89 0 002.993.513h.028a7.885 7.885 0 002.994-.514l-.21-.569a15.77 15.77 0 002.55-1.066l-.582-.226zm-9.436.265l.898-.296-.265-.865c.58.288 1.183.529 1.802.719l-.436 1.185a10.902 10.902 0 01-2-.743zm4.684 1.814a10.008 10.008 0 01-2.586-.368l.535-1.442a8.68 8.68 0 002.051.257h.044a8.705 8.705 0 002.035-.26l.515 1.445a9.99 9.99 0 01-2.59.364l-.004.004zm2.697-1.075l-.436-1.185c.62-.19 1.222-.43 1.802-.72l-.265.866.899.296a10.84 10.84 0 01-2.004.743M27.01 16.035a4.113 4.113 0 012.498.762 4.945 4.945 0 01.646-1.655l-.899.102-.471-.995-.903.462-.871-.861-.871.861-.903-.462-.468.995-.898-.102a4.94 4.94 0 01.645 1.655 4.12 4.12 0 012.495-.762zm-2.281-.443l.25.028.106-.225.313-.668.582.3.226.115.178-.178.626-.624.63.636.182.177.225-.114.578-.3.317.667.107.226.25-.028.237-.028c-.096.217-.178.44-.245.668a4.998 4.998 0 00-4.55 0 5.764 5.764 0 00-.246-.668l.234.016zM40.078 27.69c1.44 0 1.924-1.462 1.944-1.525l.162-.513h-.538a3.87 3.87 0 01-2.907-1.47l-.107-.135c-.736-.932-1.433-1.821-2.685-2.228.05-.044.103-.083.159-.119a2.347 2.347 0 001.144-1.58 2.332 2.332 0 00-.475-1.687l-.396-.494-.261.593c0 .035-.44.976-1.327.976h-.242a2.129 2.129 0 00-.633-1.676 2.813 2.813 0 00-2.032-.841 2.728 2.728 0 00-.423.031l-.606.119.372.49c.293.395.558 1.078.246 1.442-.15.13-.322.233-.507.304-.396.186-.966.45-.966 1.114 0 .431.336.881.942 1.26 1.794 1.127 2.899 2.3 3.378 3.596.74 1.976-.226 3.134-1.164 3.73l-.42.269.368.336c.328.28.735.452 1.164.494h.36c.368.001.734-.052 1.086-.158a2.648 2.648 0 01-2.447 1.347h-.353l-.028.352a1.656 1.656 0 00.919 1.493 3.07 3.07 0 00-.93 2.162 2.983 2.983 0 01-.298 1.292l-.396.592h.705c1.162 0 2.051-.317 2.67-.952.32-.336.558-.742.696-1.185a1.89 1.89 0 001.216.442c.213 0 .426-.026.633-.075l.448-.118-.198-.42a2.973 2.973 0 010-2.07c.147-.436.249-.886.305-1.343.357.181.752.273 1.152.269a1.907 1.907 0 001.624-.862l.218-.395-.396-.166c-1.327-.549-1.62-2.023-1.675-2.821.13.026.263.042.395.048l.104.082zm1.049 3.122a1.5 1.5 0 01-1.28.672 1.805 1.805 0 01-1.5-.656 5.579 5.579 0 01-.325 1.975 3.347 3.347 0 000 2.371 2.312 2.312 0 01-.538.067 1.554 1.554 0 01-1.45-1.063s.084 2.739-3.116 2.739h-.024c.243-.457.368-.966.364-1.482.151-2.031 1.529-2.312 1.529-2.312a2.451 2.451 0 01-1.045-.367 1.297 1.297 0 01-.464-.972 3.027 3.027 0 002.424-1.047c.362-.414.607-.918.709-1.458a2.752 2.752 0 01-1.774.549h-.325a1.72 1.72 0 01-.935-.395c1.22-.79 2.071-2.138 1.315-4.188-.606-1.64-2.067-2.869-3.536-3.79-.487-.304-.76-.644-.76-.932 0-.688.978-.707 1.377-1.185.464-.538.175-1.403-.23-1.929a1.87 1.87 0 01.35-.027 2.42 2.42 0 011.754.727 1.722 1.722 0 01.467 1.722l.214.044c.13.024.263.037.396.04h.087c1.16 0 1.679-1.21 1.679-1.21s1.231 1.514-.582 2.7c-.313.2-.452.394-.396.592l.027.13.131.024c1.315.355 1.98 1.26 2.796 2.291a4.255 4.255 0 003.168 1.597h.027s-.396 1.256-1.584 1.256h-.055a1.539 1.539 0 01-.816-.225s-.21 2.849 1.92 3.734" fill="#222220"/><path d="M37.55 21.993A3.56 3.56 0 0138.677 23c.224.349.546.623.926.79.144.049.296.073.448.072a1.618 1.618 0 001.433-.877l.23-.51-.559-.032a2.667 2.667 0 01-1.54-.877 1.583 1.583 0 00-1.152-.51 1.812 1.812 0 00-.95.289l-.511.36.55.288zm.916-.561a1.19 1.19 0 01.875.395 3.05 3.05 0 001.794.992 1.242 1.242 0 01-1.081.652.994.994 0 01-.33-.056c-.637-.213-.866-1.185-1.979-1.766.217-.14.47-.217.729-.221M37.8 27.07c-.324-2.604-2.217-4.484-4.323-5.626a14.35 14.35 0 00-.55-.277 3.049 3.049 0 002.474-.58s-1.22.896-3.722.082c.693.447 2.035 1.08 3.267 2.106 3.069 2.691.875 5.319.875 5.319a3.22 3.22 0 00.823-3.387 6.284 6.284 0 01.895 3.58c-.083 2.07-1.223 3.857-2.423 5.295-.358.453-.6.986-.705 1.553.209-.555.52-1.067.915-1.51 1.283-1.501 2.376-3.058 2.526-5.306.13.395.681 1.54 1.549 1.976 0 0-1.093-.656-1.584-3.213m-16.374 9.625a3.065 3.065 0 01-.297-1.292 3.071 3.071 0 00-.931-2.161 1.656 1.656 0 00.919-1.494l-.024-.351h-.357a2.654 2.654 0 01-2.138-.917 2.887 2.887 0 01-.317-.443c.35.107.715.16 1.082.159h.36a2.12 2.12 0 001.164-.498l.368-.336-.42-.269c-.938-.6-1.9-1.738-1.164-3.73.48-1.296 1.584-2.47 3.378-3.595.606-.396.939-.834.939-1.26 0-.665-.555-.925-.963-1.115a1.691 1.691 0 01-.507-.304c-.316-.364-.051-1.063.242-1.442l.376-.49-.61-.119a2.68 2.68 0 00-.42-.032 2.811 2.811 0 00-2.03.842 2.136 2.136 0 00-.607 1.652h-.237c-.911.011-1.347-.929-1.347-.98l-.25-.589-.395.494a2.344 2.344 0 00-.471 1.687 2.337 2.337 0 001.144 1.58c.056.036.11.075.159.12-1.252.394-1.949 1.295-2.685 2.228l-.107.134a3.863 3.863 0 01-2.91 1.47h-.543l.166.513c0 .064.499 1.526 1.94 1.526h.072c.133-.006.265-.022.396-.048-.06.79-.353 2.272-1.68 2.821l-.395.166.217.395a1.904 1.904 0 001.628.866 2.48 2.48 0 001.148-.269c.056.457.158.907.305 1.343a2.973 2.973 0 010 2.07l-.198.42.452.118c.207.05.42.075.633.075a1.883 1.883 0 001.216-.442c.137.443.374.848.693 1.185.618.635 1.507.952 2.669.952h.705l-.368-.64zm-.341.218c-3.2 0-3.116-2.739-3.116-2.739a1.549 1.549 0 01-1.45 1.063 2.293 2.293 0 01-.534-.067 3.356 3.356 0 000-2.37 5.586 5.586 0 01-.321-1.976 1.797 1.797 0 01-1.5.656 1.508 1.508 0 01-1.28-.672c2.13-.885 1.925-3.734 1.925-3.734a1.54 1.54 0 01-.816.225h-.067c-1.188 0-1.585-1.256-1.585-1.256h.024a4.26 4.26 0 003.196-1.616c.812-1.032 1.48-1.936 2.796-2.292l.13-.024.028-.13c.036-.201-.103-.395-.396-.593-1.814-1.185-.582-2.698-.582-2.698s.515 1.209 1.679 1.209h.083c.133-.003.265-.016.396-.04l.214-.043a1.715 1.715 0 01.467-1.723 2.417 2.417 0 011.754-.727 1.91 1.91 0 01.349.028c-.396.521-.69 1.39-.226 1.928.396.462 1.378.482 1.378 1.185 0 .293-.273.628-.76.933-1.47.924-2.926 2.15-3.536 3.789-.757 2.047.099 3.406 1.318 4.188a1.72 1.72 0 01-.938.395h-.329a2.752 2.752 0 01-1.774-.549c.102.54.345 1.043.705 1.458a3.033 3.033 0 002.428 1.047 1.294 1.294 0 01-.484.976 2.455 2.455 0 01-1.057.395s1.378.28 1.532 2.312c-.004.516.12 1.025.36 1.481l-.011-.02z" fill="#222220"/><path d="M13.978 23.858c.152 0 .303-.023.447-.071a2.12 2.12 0 00.927-.79 3.563 3.563 0 011.124-1.008l.555-.296-.515-.36a1.809 1.809 0 00-.95-.288 1.587 1.587 0 00-1.153.51 2.67 2.67 0 01-1.54.877l-.558.05.23.51a1.614 1.614 0 001.433.874v-.008zm.708-2.02a1.189 1.189 0 01.88-.394c.258.005.51.081.728.221-1.12.597-1.35 1.553-1.98 1.766a.968.968 0 01-.325.055 1.242 1.242 0 01-1.08-.651 3.05 3.05 0 001.79-.992m1.793 6.464a6.26 6.26 0 01.895-3.58 3.214 3.214 0 00.824 3.386s-2.198-2.627.88-5.318c1.227-1.023 2.57-1.656 3.262-2.106-2.499.814-3.722-.083-3.722-.083a3.04 3.04 0 002.47.58c-.174.084-.356.175-.55.277-2.11 1.142-4.003 3.023-4.328 5.627v-.02c-.49 2.556-1.584 3.212-1.584 3.212.867-.426 1.414-1.56 1.549-1.975.146 2.248 1.243 3.805 2.53 5.306.393.451.7.971.903 1.533a3.552 3.552 0 00-.71-1.552c-1.187-1.439-2.335-3.229-2.419-5.295m9.798-5.259v.518a.638.638 0 01.522-.174v.743a1.105 1.105 0 01-.143.525h.737a1.123 1.123 0 01-.143-.525v-.743a.638.638 0 01.523.174v-.518h-1.509.012zm-.321-3.062c.116.1.25.176.396.225l.095.044v-.486l-.876-.368a.875.875 0 00.396.589m2.075-.004a.875.875 0 00.396-.589l-.875.368v.486l.091-.044c.146-.048.28-.125.396-.225" fill="#222220"/><path d="M29.635 17.998c0-.739-1.243-1.402-2.617-1.402-1.374 0-2.618.663-2.618 1.402l.028.182.55 3.161-.55.32-1.438.822s-.32.166-.47.265c-.543.395-.658.924-.345 1.15a1.07 1.07 0 011.097-.917 1.429 1.429 0 011.136.616c.078.096.15.196.214.3.083.135.166.253.245.368h-3.662c.308.53.488 1.126.526 1.738v8.1c0 1.976 1.513 2.9 3.168 2.9 1.263 0 1.434-.059 2.135.637.693-.696.863-.636 2.13-.636 1.635 0 3.148-.937 3.148-2.9v-8.108a3.945 3.945 0 01.527-1.739h-3.69c.082-.115.165-.233.245-.367a3.33 3.33 0 01.214-.3 1.43 1.43 0 011.136-.617 1.079 1.079 0 011.097.917c.317-.226.202-.79-.345-1.15a5.149 5.149 0 00-.467-.265l-1.425-.83-.55-.32.55-3.16.031-.167zm-4.704.364l1.928.652v3.023l-1.433-.74-.495-2.935zm.396 6.42c.259.27.574.48.922.617-.074.261-.055.54.052.79.13.264.354.47.63.573a1.185 1.185 0 00.792.984l-.567.557-2.21-.036a.394.394 0 01-.174-.162v-.027l.36.06h.025a.143.143 0 00.142-.12.146.146 0 00-.119-.165l-.443-.071.49-1.695-.466-.98-.749.79-.047 1.762-.52-.087a.146.146 0 00-.107.024.14.14 0 00-.058.095.146.146 0 00.118.166l.21.031a.83.83 0 00-.13.083l-.032.044v.051a1.155 1.155 0 00.451 1.185v.064a.288.288 0 00.238.328h.047a.282.282 0 00.274-.222c.093.006.187.006.28 0h.06l2.899.522.047-.032c.23-.162 1.113-.79 1.402-1.015.084.072.177.134.277.181a1.183 1.183 0 00.27 1.186h-7.433v-4.267a3.524 3.524 0 00-.265-1.21l3.334-.003zm3.564 3.892a82.28 82.28 0 01-1.323.957l-2.633-.474v-.072c.053-.174.085-.355.095-.537l2.213.036.044-.044c.032-.031.737-.711 1.093-1.098.093.116.206.217.333.296-.062.325.005.66.186.936h-.008zm-4.392-.45a.672.672 0 00.254.269 3.2 3.2 0 01-.048.478c0 .035 0 .071-.028.107v.055c-.18 0-.359-.028-.53-.083a.858.858 0 01-.444-.873 1.05 1.05 0 01.476-.162.333.333 0 01.32.22v-.01zm-.261-.525l.043-1.696.396-.395.238.498-.471 1.624-.206-.031zm4.66 8.78h-.395l.313-.977c.047-.134-.198-.308-.301-.462.242.144.492.276.748.395 0 .032-.364 1.035-.364 1.035v.008zm.987-1.115l-.206 1.067c-.13 0-.27.027-.396.031l.218-1.023c.063-.304-.757-.395-1.16-1a1.27 1.27 0 01-.943.289 4.831 4.831 0 01-.891-.095.97.97 0 00-.15 0 .326.326 0 00-.305.162l-.06.099-1.117-.261-.277.458a.162.162 0 00.02.206l.075.083a1.56 1.56 0 01-.285.395l-.166-.206a.6.6 0 01-.004-.656l.443-.746.947.134-.147-.336c-.198-.442.103-1.003.135-1.327 0 .098-.103.118-.206.118h-.273a.116.116 0 00-.064 0l-.257.154-.182-.181a.146.146 0 01.028-.174l.467-.526-.555-.644.792.395.238-.284c.063.063.036.229.036.229a1.264 1.264 0 01.954 1.252v.115a.566.566 0 00.348.249l1.07.107c.212-.066.429-.112.65-.139.19.001.378.058.538.162a.48.48 0 01.253-.083h.036c.479 0 .68.435.938.79.194.273.452.68.452.68a.395.395 0 01-.333.178.698.698 0 01-.139 0c-.514-.095-.59-1.15-.883-1.233h-.047a.158.158 0 00-.135.083c.135.36.056.506.202.79.108.171.242.324.396.455 0 0-.02.154-.043.272l-.012-.04zm-5.762-1l.048.123c-.032.106-.396.26-.396.26l-.08-.173a.58.58 0 01.19-.692l.602-.363.638.134a.564.564 0 00.11.352l-.668-.127-.396.277a.17.17 0 00-.036.213l-.012-.004zm5.865 2.02l.182-.957c0-.055.02-.122.027-.178a.82.82 0 00.167.052c.063.006.127.006.19 0a.7.7 0 00.55-.273l.143-.162-.115-.178s-.265-.419-.46-.695l-.11-.166a1.289 1.289 0 00-1.061-.75h-.052a.811.811 0 00-.234.047 1.278 1.278 0 00-.546-.127 1.7 1.7 0 00-.554.107l-.095.028-1.046-.103a.28.28 0 01-.107-.091l.226-.091c-.063-.75-.792-1.213-1.188-1.371a.426.426 0 00-.119-.213l-.226-.214-.197.237-.1.119-1.465-.6.95 1.185-.376.569a.205.205 0 000 .292l.396.269.396-.15h.04c0 .059-.044.3-.063.367l-.697-.138-.733.395a.865.865 0 00-.289 1.047l.083.178.115.249.258-.107a.79.79 0 00.11.758l.155.194.206.26.23-.244c.15-.148.27-.324.352-.518l.047-.158-.11-.122v-.024l.126-.205.911.213.206.047.11-.181.06-.1c0-.019 0-.023.056-.023h.099c.31.062.626.095.942.099.213.012.426-.014.63-.075l.499.64-.31.925v.055a1.588 1.588 0 00-1.187.502c-.487-.482-.828-.53-2.135-.53-1.56 0-2.617-.912-2.617-2.37v-3.557h9.504v3.556a2.225 2.225 0 01-1.79 2.276l.016.004zm2.039-11.598c-.16.384-.25.794-.265 1.21v2.659a.792.792 0 01-.626-.72v-.122h-.119a.848.848 0 01-.538-.257 1.125 1.125 0 01-.301-.727.79.79 0 00.043.89.95.95 0 00.626.355 1.038 1.038 0 00.915.873v1.304h-1.644a.914.914 0 01-.423-1.185l.063-.143-.146-.055a.934.934 0 01-.583-1.158l.032-.118-.11-.051a1.186 1.186 0 01-.579-1.186.726.726 0 00-.139.85 9.09 9.09 0 01-.297.312.923.923 0 01-.724-.854v-.11l-.091-.036a.919.919 0 01-.555-.458.895.895 0 01-.04-.577 1.703 1.703 0 00.48.035 2.265 2.265 0 001.679-.75l3.342.02zm-2.562-2.698l.65.395.162.095a1.913 1.913 0 00-.883.525l-.028.024a3.43 3.43 0 00-.158.182l-.032.04a2.61 2.61 0 00-.143.197l-.023.035c-.056.08-.107.166-.159.253A2.33 2.33 0 0127.01 25.1a2.337 2.337 0 01-1.853-1.273 6.865 6.865 0 00-.155-.248l-.031-.044-.14-.19-.035-.043a3.568 3.568 0 00-.154-.178l-.008-.036a1.914 1.914 0 00-.883-.521l.166-.095.65-.395.665-.395 1.778 1 1.782-.969.673.376zm-.871-.79l-1.422.746v-3.026l1.929-.652-.507 2.932zM27.01 18.69l-2.11-.834c.177-.423 1.009-.79 2.11-.79 1.1 0 1.932.363 2.114.79l-2.114.834z" fill="#222220"/></svg>5931 23.4012 27.5889C23.4197 27.5847 23.439 27.5843 23.4577 27.5877L23.9606 27.6668L24.0082 25.9045L24.7566 25.1143L25.2239 26.0942L24.7328 27.7892L25.1763 27.8604C25.2139 27.8671 25.2473 27.8883 25.2695 27.9193C25.2917 27.9503 25.3009 27.9887 25.2951 28.0263C25.2895 28.0598 25.272 28.0902 25.2458 28.1119C25.2197 28.1336 25.1866 28.1453 25.1526 28.1449H25.1288L24.7685 28.0856V28.1132C24.8085 28.1838 24.8693 28.2404 24.9427 28.2752L27.1523 28.3108L27.7186 27.7537C27.5071 27.6808 27.3206 27.5497 27.1805 27.3757C27.0404 27.2016 26.9524 26.9916 26.9266 26.7698C26.6513 26.6658 26.4261 26.4609 26.297 26.1969C26.1895 25.9472 26.1714 25.6682 26.2455 25.4067C25.8968 25.2704 25.582 25.0601 25.3228 24.7903H22.0005C22.1564 25.1738 22.2435 25.5817 22.2579 25.9954V30.2508Z" fill="#FCE527"/>
<path d="M25.3069 32.0843C25.2941 32.0832 25.2812 32.0848 25.269 32.0888C25.2568 32.0929 25.2456 32.0993 25.2359 32.1078C25.2263 32.1164 25.2185 32.1267 25.213 32.1383C25.2075 32.15 25.2044 32.1626 25.2039 32.1754C25.2029 32.1882 25.2044 32.2011 25.2084 32.2133C25.2125 32.2255 25.219 32.2367 25.2275 32.2464C25.236 32.256 25.2464 32.2638 25.258 32.2693C25.2696 32.2748 25.2822 32.2779 25.295 32.2784C25.3208 32.2784 25.3454 32.2681 25.3636 32.2499C25.3818 32.2317 25.392 32.2071 25.392 32.1813C25.392 32.1556 25.3818 32.1309 25.3636 32.1127C25.3454 32.0945 25.3208 32.0843 25.295 32.0843" fill="#222220"/>
<path d="M31.762 38.5524L31.2156 38.343L31.366 37.778L31.5324 37.1616C30.7854 37.5435 30.0029 37.8518 29.196 38.0822C28.8 38.1929 28.5149 38.2442 28.5149 38.2442V38.6631C28.0291 38.7418 27.538 38.7841 27.0458 38.7895H27.0101C26.518 38.7842 26.0269 38.7419 25.541 38.6631V38.2442C25.541 38.2442 25.248 38.1929 24.8599 38.0822C24.053 37.8519 23.2705 37.5436 22.5236 37.1616L22.6543 37.778L22.8087 38.343L22.2583 38.5524L21.6484 38.7777C22.466 39.2062 23.3192 39.5632 24.1986 39.8445L23.9887 40.4135C24.9438 40.777 25.9606 40.9514 26.9824 40.9271H27.0101C28.032 40.9515 29.0488 40.7771 30.0038 40.4135L29.794 39.8445C30.6736 39.5639 31.5269 39.2069 32.3441 38.7777L31.762 38.5524ZM22.3256 38.8172L23.2245 38.5208L22.9592 37.6555C23.5389 37.9444 24.1415 38.1849 24.7609 38.3746L24.3253 39.56C23.636 39.3783 22.9662 39.1295 22.3256 38.8172V38.8172ZM27.0101 40.6308C26.1358 40.6218 25.2664 40.4982 24.4243 40.2633L24.9589 38.8211C25.6299 38.9881 26.3186 39.0744 27.0101 39.078H27.0537C27.7401 39.0716 28.4233 38.9841 29.0891 38.8172L29.6039 40.2633C28.7603 40.4973 27.8896 40.6195 27.0141 40.6268L27.0101 40.6308ZM29.7068 39.556L29.2713 38.3707C29.8907 38.181 30.4933 37.9405 31.073 37.6516L30.8077 38.5169L31.7066 38.8132C31.0648 39.1261 30.3937 39.3749 29.7029 39.556" fill="#222220"/>
<path d="M27.0098 16.0346C27.9037 16.0106 28.7811 16.2783 29.5085 16.7972C29.6219 16.211 29.8406 15.6502 30.154 15.1417L29.2551 15.2444L28.7839 14.2487L27.881 14.711L27.0098 13.8496L26.1387 14.711L25.2358 14.2487L24.7685 15.2444L23.8696 15.1417C24.1834 15.65 24.4021 16.2109 24.5151 16.7972C25.2417 16.2797 26.1174 16.012 27.0098 16.0346V16.0346ZM24.7289 15.5921L24.9784 15.6197L25.0853 15.3945L25.3982 14.7268L25.9803 15.0271L26.206 15.1417L26.3842 14.9638L27.0098 14.3396L27.6395 14.9757L27.8216 15.1535L28.0473 15.0389L28.6255 14.7386L28.9423 15.4064L29.0492 15.6316L29.2987 15.6039L29.5363 15.5763C29.4404 15.7935 29.3584 16.0165 29.2907 16.244C28.5867 15.8841 27.8069 15.6964 27.0158 15.6964C26.2247 15.6964 25.4449 15.8841 24.7408 16.244C24.6728 16.0166 24.5908 15.7936 24.4953 15.5763L24.7289 15.5921Z" fill="#222220"/>
<path d="M40.0775 27.6904C41.5189 27.6904 42.002 26.2285 42.0218 26.1653L42.1841 25.6516H41.6456C41.0831 25.6326 40.5315 25.4912 40.0295 25.2373C39.5274 24.9834 39.087 24.6232 38.739 24.1818L38.6321 24.0474C37.8956 23.1149 37.1986 22.2259 35.9473 21.8189C35.9969 21.7753 36.0499 21.7357 36.1057 21.7004C36.399 21.5344 36.653 21.3073 36.8505 21.0346C37.048 20.7619 37.1843 20.4499 37.2501 20.1199C37.3172 19.5173 37.1468 18.9123 36.7749 18.4328L36.3789 17.9389L36.1176 18.5315C36.1176 18.5671 35.678 19.5075 34.791 19.5075H34.7237H34.5494C34.5718 19.1991 34.5267 18.8896 34.4173 18.6003C34.3079 18.311 34.1368 18.0489 33.9159 17.8322C33.6513 17.5629 33.3351 17.3495 32.986 17.2049C32.637 17.0603 32.2623 16.9874 31.8844 16.9906C31.7426 16.99 31.6009 17.0005 31.4607 17.0222L30.8548 17.1407L31.2271 17.6307C31.5201 18.0258 31.7854 18.7093 31.4726 19.0729C31.3227 19.203 31.1512 19.306 30.9657 19.3771C30.5697 19.5628 29.9995 19.8275 29.9995 20.4913C29.9995 20.922 30.3361 21.3725 30.942 21.7518C32.7358 22.8779 33.8406 24.0514 34.3198 25.3474C35.0603 27.323 34.0941 28.4807 33.1556 29.0773L32.7358 29.346L33.1041 29.6818C33.4325 29.9612 33.8388 30.1335 34.2683 30.1757C34.395 30.1757 34.5138 30.1757 34.6286 30.1757C34.9962 30.1772 35.3619 30.1239 35.7137 30.0177C35.626 30.1706 35.5239 30.3148 35.4087 30.4484C35.1453 30.754 34.8154 30.9956 34.4441 31.1544C34.0727 31.3133 33.6699 31.3854 33.2664 31.365H32.914L32.8863 31.7167C32.8845 31.9602 32.9364 32.2011 33.0384 32.4224C33.1403 32.6436 33.2898 32.8398 33.4763 32.9969C33.575 33.0834 33.6857 33.1552 33.805 33.2103C33.2199 33.7791 32.8851 34.5565 32.8744 35.3716C32.8738 35.819 32.7723 36.2606 32.5774 36.6636L32.1814 37.2563H32.8863C34.0479 37.2563 34.9375 36.9389 35.5553 36.3041C35.8759 35.9677 36.1144 35.5621 36.2522 35.1187C36.4811 35.3112 36.7525 35.4466 37.0442 35.5138C37.1831 35.5459 37.3253 35.5618 37.4679 35.5612C37.6813 35.5606 37.8939 35.5354 38.1015 35.4862L38.5489 35.3676L38.351 34.9488C38.1029 34.2808 38.1029 33.5463 38.351 32.8784C38.4978 32.442 38.6 31.9919 38.6559 31.535C39.0125 31.7163 39.4079 31.8085 39.8082 31.8036C40.1297 31.8085 40.4472 31.732 40.731 31.5814C41.0149 31.4308 41.256 31.2109 41.4318 30.9423L41.6496 30.5472L41.2536 30.3812C39.927 29.832 39.634 28.3582 39.5785 27.56C39.709 27.5864 39.8415 27.6023 39.9745 27.6075L40.0775 27.6904ZM41.1268 30.8119C40.9875 31.0222 40.7973 31.1941 40.5737 31.3115C40.3501 31.4289 40.1004 31.4881 39.8478 31.4836V31.4836C39.5635 31.5004 39.2792 31.4497 39.0184 31.3357C38.7575 31.2217 38.5274 31.0476 38.347 30.8277C38.3588 31.5003 38.2488 32.1696 38.0223 32.8033C37.7331 33.5672 37.7331 34.4101 38.0223 35.174C37.846 35.2175 37.6653 35.24 37.4837 35.2412C37.3716 35.242 37.2599 35.2287 37.1511 35.2017C36.8928 35.1406 36.6545 35.0144 36.459 34.8353C36.2635 34.6561 36.1173 34.4299 36.0344 34.1783C36.0344 34.1783 36.1176 36.9165 32.918 36.9165H32.8942C33.1369 36.4604 33.2621 35.9512 33.2585 35.4348C33.409 33.4039 34.787 33.1233 34.787 33.1233C34.415 33.0822 34.0573 32.9565 33.7416 32.7559C33.5991 32.6364 33.484 32.4878 33.4041 32.3201C33.3241 32.1524 33.2812 31.9696 33.2783 31.7839C33.7354 31.8038 34.191 31.7199 34.6108 31.5385C35.0306 31.3571 35.4036 31.083 35.7018 30.7368C36.0642 30.3226 36.3089 29.8192 36.4106 29.2788C35.9011 29.6618 35.2739 29.856 34.6366 29.828C34.5336 29.828 34.4227 29.828 34.3118 29.828C33.9676 29.7932 33.6419 29.6555 33.3773 29.4329C34.597 28.6427 35.4483 27.2953 34.692 25.2446C34.0861 23.6049 32.6249 22.3761 31.1558 21.4554C30.6687 21.1512 30.3955 20.8114 30.3955 20.523C30.3955 19.8354 31.3736 19.8157 31.7735 19.3376C32.2369 18.8002 31.9478 17.9349 31.5439 17.4094C31.6589 17.3896 31.7756 17.3804 31.8923 17.3817C32.2188 17.3783 32.5426 17.441 32.8441 17.566C33.1456 17.6909 33.4186 17.8756 33.6466 18.1088C33.8747 18.326 34.0388 18.6014 34.1212 18.905C34.2036 19.2087 34.201 19.5291 34.1139 19.8315L34.3277 19.875C34.4584 19.8986 34.5908 19.9118 34.7237 19.9145H34.8108C35.971 19.9145 36.4898 18.7054 36.4898 18.7054C36.4898 18.7054 37.7213 20.2187 35.9077 21.4041C35.5949 21.6056 35.4563 21.7992 35.5117 21.9967L35.5394 22.1271L35.6701 22.1508C36.9848 22.5065 37.65 23.4113 38.4658 24.4425C38.8477 24.9204 39.3284 25.3103 39.8751 25.5858C40.4218 25.8613 41.0217 26.0158 41.6337 26.0388H41.6614C41.6614 26.0388 41.2654 27.2953 40.0775 27.2953H40.022C39.7343 27.2979 39.4517 27.2199 39.2063 27.0701C39.2063 27.0701 38.9964 29.9189 41.1268 30.804" fill="#222220"/>
<path d="M37.5509 21.9928C37.9937 22.2446 38.3772 22.5882 38.6755 23.0004C38.9001 23.3487 39.2224 23.6235 39.6021 23.7906C39.7464 23.8388 39.8975 23.8628 40.0496 23.8617C40.3462 23.8609 40.6369 23.7786 40.8897 23.6239C41.1426 23.4692 41.3479 23.248 41.4831 22.9846L41.7128 22.4749L41.1544 22.4433C40.5557 22.3349 40.0121 22.0254 39.614 21.5661C39.4671 21.407 39.2891 21.2796 39.0909 21.192C38.8927 21.1043 38.6785 21.0581 38.4617 21.0564C38.1241 21.0622 37.7949 21.1621 37.5113 21.3448L37.0005 21.7044L37.5509 21.9928ZM38.4657 21.4318C38.6311 21.4332 38.7943 21.4691 38.945 21.5371C39.0957 21.6052 39.2305 21.7039 39.3408 21.8269C39.806 22.3542 40.4399 22.7046 41.1346 22.8186C41.0292 23.0138 40.8734 23.1771 40.6833 23.2918C40.4931 23.4064 40.2757 23.4682 40.0536 23.4706C39.9417 23.4708 39.8305 23.4521 39.7249 23.4153C39.0874 23.2019 38.8577 22.2299 37.745 21.6491C37.9624 21.5091 38.2148 21.4324 38.4736 21.4278" fill="#222220"/>
<path d="M37.8007 27.0703C37.476 24.4665 35.5832 22.5857 33.4765 21.4438C33.2825 21.3411 33.1003 21.2502 32.9261 21.1673C33.3562 21.2544 33.8001 21.2475 34.2273 21.1473C34.6545 21.047 35.0549 20.8557 35.401 20.5864C35.401 20.5864 34.1814 21.4833 31.6787 20.6694C32.3717 21.1159 33.7141 21.7481 34.9456 22.7754C38.0146 25.4662 35.8208 28.0937 35.8208 28.0937C36.2691 27.6676 36.5852 27.1218 36.7313 26.5214C36.8773 25.921 36.8472 25.2913 36.6444 24.7075C37.2944 25.7848 37.6061 27.0316 37.5394 28.2873C37.4562 30.3577 36.3158 32.1437 35.1159 33.5819C34.7583 34.0349 34.5163 34.5678 34.411 35.1347C34.62 34.5796 34.9301 34.0679 35.3258 33.6254C36.6088 32.1239 37.7017 30.5672 37.8522 28.3189C37.9829 28.714 38.5333 29.8599 39.4005 30.2945C39.4005 30.2945 38.3076 29.6386 37.8166 27.0822" fill="#222220"/>
<path d="M21.4426 36.7073C21.2505 36.3033 21.1491 35.8623 21.1456 35.4152C21.1348 34.6002 20.8001 33.8227 20.215 33.2539C20.3344 33.1991 20.4451 33.1272 20.5437 33.0405C20.7303 32.8836 20.88 32.6875 20.982 32.4662C21.084 32.2449 21.1358 32.0039 21.1337 31.7604L21.1099 31.4087H20.7535C20.3507 31.4284 19.9487 31.3561 19.5781 31.1972C19.2075 31.0383 18.8782 30.7972 18.6152 30.492C18.4959 30.3548 18.3898 30.2066 18.2984 30.0495C18.6489 30.1556 19.0132 30.2088 19.3795 30.2075C19.4943 30.2075 19.6131 30.2075 19.7398 30.2075C20.1697 30.1639 20.5759 29.9902 20.904 29.7097L21.2723 29.3738L20.8525 29.1051C19.914 28.5046 18.9518 27.3666 19.6883 25.3752C20.1675 24.0792 21.2723 22.9057 23.0661 21.7796C23.672 21.3845 24.0046 20.9459 24.0046 20.5192C24.0046 19.8554 23.4502 19.5946 23.0424 19.4049C22.8568 19.334 22.6852 19.231 22.5355 19.1007C22.2187 18.7372 22.484 18.0378 22.7771 17.6585L23.1532 17.1686L22.5434 17.05C22.4046 17.0285 22.2642 17.0179 22.1237 17.0184C21.7457 17.015 21.371 17.0878 21.0219 17.2325C20.6728 17.3771 20.3566 17.5905 20.0922 17.86C19.8796 18.0767 19.7156 18.336 19.6112 18.6208C19.5067 18.9055 19.4642 19.2092 19.4864 19.5116H19.3121H19.2488C18.338 19.5235 17.9024 18.5831 17.9024 18.5317L17.6529 17.943L17.2569 18.4369C16.8876 18.9176 16.7187 19.5221 16.7857 20.1241C16.8513 20.4541 16.9875 20.7662 17.185 21.039C17.3825 21.3117 17.6367 21.5387 17.9301 21.7045C17.9861 21.7396 18.0391 21.7792 18.0885 21.8231C16.8372 22.2182 16.1403 23.1191 15.4037 24.0516L15.2968 24.1859C14.9484 24.6278 14.5073 24.9883 14.0046 25.2422C13.5018 25.4961 12.9495 25.6373 12.3863 25.6557H11.8438L12.0101 26.1694C12.0101 26.2326 12.509 27.6946 13.9504 27.6946H14.0217C14.1547 27.6892 14.2872 27.6734 14.4177 27.6472C14.3583 28.4374 14.0653 29.9191 12.7387 30.4683L12.3427 30.6343L12.5605 31.0294C12.7362 31.2993 12.9776 31.5203 13.2623 31.6717C13.547 31.823 13.8655 31.8998 14.188 31.8947C14.5869 31.8988 14.9809 31.8066 15.3364 31.626C15.392 32.083 15.4942 32.5331 15.6413 32.9694C15.8894 33.6374 15.8894 34.3719 15.6413 35.0398L15.4433 35.4587L15.8947 35.5772C16.1023 35.6265 16.3149 35.6517 16.5283 35.6523C16.6709 35.653 16.8131 35.6371 16.952 35.6049C17.2438 35.5379 17.5153 35.4025 17.744 35.2098C17.8806 35.6528 18.1177 36.0584 18.437 36.3951C19.0547 37.0299 19.9444 37.3474 21.106 37.3474H21.8108L21.4426 36.7073ZM21.102 36.9246C17.9024 36.9246 17.9856 34.1864 17.9856 34.1864C17.9027 34.438 17.7565 34.6642 17.561 34.8434C17.3655 35.0225 17.1272 35.1487 16.8689 35.2098C16.7601 35.2371 16.6484 35.2503 16.5362 35.2493C16.356 35.248 16.1766 35.2254 16.0017 35.1821C16.2901 34.4181 16.2901 33.5754 16.0017 32.8114C15.7767 32.1774 15.668 31.5082 15.6809 30.8358C15.5007 31.0559 15.2707 31.2302 15.0097 31.3442C14.7488 31.4583 14.4644 31.5088 14.1801 31.4917V31.4917C13.9275 31.4958 13.678 31.4365 13.4545 31.3191C13.2309 31.2017 13.0406 31.03 12.901 30.82C15.0315 29.9349 14.8256 27.0861 14.8256 27.0861C14.5801 27.2359 14.2975 27.3139 14.0098 27.3113H13.9425C12.7545 27.3113 12.3585 26.0548 12.3585 26.0548H12.3823C13.0007 26.0336 13.607 25.8781 14.159 25.5989C14.7109 25.3198 15.1952 24.9239 15.5779 24.4388C16.3897 23.4075 17.0589 22.5027 18.3736 22.1471L18.5043 22.1234L18.532 21.993C18.5677 21.7915 18.4291 21.5979 18.136 21.4003C16.3224 20.2149 17.5539 18.7016 17.5539 18.7016C17.5539 18.7016 18.0687 19.9107 19.2329 19.9107H19.3161C19.4489 19.9079 19.5813 19.8946 19.7121 19.8712L19.9259 19.8277C19.8383 19.5254 19.8355 19.2049 19.9179 18.9011C20.0003 18.5973 20.1647 18.3219 20.3932 18.105C20.6212 17.8718 20.8942 17.6872 21.1957 17.5622C21.4972 17.4373 21.821 17.3746 22.1474 17.378C22.2642 17.3765 22.3808 17.3858 22.4959 17.4056C22.0999 17.9272 21.8069 18.7965 22.2702 19.3338C22.6662 19.7961 23.6482 19.8159 23.6482 20.5192C23.6482 20.8116 23.375 21.1474 22.8879 21.4517C21.4188 22.3763 19.9616 23.6011 19.3517 25.2409C18.5954 27.2876 19.4507 28.6468 20.6704 29.4291C20.4046 29.6522 20.0775 29.79 19.7319 29.8243C19.617 29.8243 19.5101 29.8243 19.4032 29.8243C18.7659 29.8522 18.1387 29.658 17.6292 29.275C17.7306 29.8147 17.9739 30.3179 18.334 30.733C18.6332 31.0791 19.007 31.3531 19.4274 31.5344C19.8478 31.7158 20.3039 31.7998 20.7615 31.7801C20.7567 31.968 20.711 32.1526 20.6276 32.3211C20.5442 32.4897 20.425 32.6381 20.2784 32.7561C19.9615 32.9681 19.5995 33.1034 19.2211 33.1512C19.2211 33.1512 20.5991 33.4317 20.7535 35.4626C20.7494 35.9786 20.8732 36.4876 21.1139 36.9443L21.102 36.9246Z" fill="#222220"/>
<path d="M13.9776 23.8579C14.1297 23.8589 14.2809 23.8349 14.4251 23.7868C14.805 23.6199 15.1273 23.345 15.3517 22.9966C15.6501 22.5844 16.0336 22.2408 16.4763 21.989L17.0307 21.6927L16.5159 21.3331C16.2324 21.1502 15.9031 21.0503 15.5655 21.0447C15.3487 21.0464 15.1346 21.0926 14.9364 21.1802C14.7382 21.2679 14.5601 21.3953 14.4132 21.5544C14.0152 22.0137 13.4716 22.3232 12.8728 22.4315L12.3145 22.4829L12.5441 22.9926C12.6799 23.2553 12.8854 23.4757 13.1382 23.6297C13.391 23.7837 13.6814 23.8654 13.9776 23.8658V23.8579ZM14.6864 21.8389C14.7971 21.7154 14.9326 21.6164 15.084 21.5483C15.2354 21.4803 15.3995 21.4446 15.5655 21.4437C15.8243 21.4486 16.0766 21.5252 16.2942 21.665C15.1735 22.2616 14.9438 23.2178 14.3142 23.4312C14.2099 23.468 14.1001 23.4868 13.9895 23.4865C13.7673 23.4845 13.5497 23.423 13.3595 23.3083C13.1693 23.1936 13.0135 23.03 12.9084 22.8346C13.6018 22.7197 14.2341 22.3694 14.6983 21.8428" fill="#222220"/>
<path d="M16.4924 28.3068C16.4242 27.051 16.736 25.8038 17.3873 24.7271C17.1846 25.3108 17.1545 25.9405 17.3005 26.5409C17.4465 27.1413 17.7626 27.6871 18.211 28.1132C18.211 28.1132 16.0132 25.4857 19.0901 22.7949C20.3177 21.7716 21.6601 21.1394 22.3531 20.6889C19.8544 21.5029 18.6307 20.606 18.6307 20.606C18.9762 20.8749 19.376 21.0661 19.8025 21.1663C20.229 21.2666 20.6722 21.2736 21.1017 21.1868C20.9275 21.2698 20.7453 21.3606 20.5513 21.4634C18.4407 22.6053 16.5478 24.486 16.2231 27.0899V27.0701C15.7321 29.6265 14.6392 30.2824 14.6392 30.2824C15.5064 29.8557 16.0528 28.7217 16.1875 28.3068C16.334 30.5551 17.4309 32.1119 18.7179 33.6133C19.111 34.0644 19.4171 34.5842 19.6207 35.1464C19.5142 34.579 19.271 34.0461 18.9119 33.5936C17.7239 32.1553 16.5756 30.3654 16.4924 28.2989" fill="#222220"/>
<path d="M26.2892 23.04V23.5576C26.3578 23.4915 26.4403 23.4416 26.5308 23.4115C26.6212 23.3814 26.7173 23.3719 26.8119 23.3838V24.1266C26.809 24.3109 26.76 24.4915 26.6694 24.6521H27.4059C27.316 24.4912 27.2671 24.3108 27.2634 24.1266V23.3838C27.358 23.3719 27.454 23.3814 27.5445 23.4115C27.635 23.4416 27.7175 23.4915 27.7861 23.5576V23.04H26.2773H26.2892Z" fill="#222220"/>
<path d="M25.9686 19.9778C26.0848 20.0777 26.2192 20.1542 26.3646 20.2031L26.4596 20.2465V19.7605L25.5845 19.3931C25.6058 19.5133 25.652 19.6278 25.7202 19.7291C25.7884 19.8305 25.877 19.9166 25.9805 19.9818" fill="#222220"/>
<path d="M28.0553 19.9779C28.1589 19.9128 28.2477 19.8268 28.3159 19.7254C28.3841 19.624 28.4302 19.5095 28.4513 19.3892L27.5762 19.7566V20.2426L27.6673 20.1992C27.8128 20.1508 27.9474 20.0743 28.0632 19.9739" fill="#222220"/>
<path d="M29.6352 17.9984C29.6352 17.2595 28.3918 16.5957 27.0177 16.5957C25.6436 16.5957 24.4002 17.2595 24.4002 17.9984L24.428 18.1801L24.9784 21.3411L24.428 21.6611L22.9905 22.483C22.9905 22.483 22.6698 22.6489 22.5193 22.7477C21.9768 23.1428 21.8619 23.6723 22.1748 23.8975C22.2126 23.6369 22.3454 23.3993 22.5478 23.2302C22.7501 23.0611 23.0078 22.9723 23.2717 22.9808C23.4964 22.9869 23.7165 23.0459 23.914 23.153C24.1115 23.2601 24.2808 23.4124 24.4082 23.5972C24.4857 23.6928 24.5571 23.7931 24.622 23.8975C24.7051 24.0319 24.7883 24.1504 24.8675 24.265H21.2046C21.5131 24.7958 21.6934 25.3911 21.7313 26.0035V34.1035C21.7313 36.0791 23.2439 37.0037 24.8992 37.0037C26.1624 37.0037 26.3327 36.9444 27.0336 37.6398C27.7266 36.9444 27.8968 37.0037 29.164 37.0037C30.7994 37.0037 32.3121 36.0672 32.3121 34.1035V25.9956C32.35 25.3832 32.5303 24.7879 32.8388 24.2571H29.1482C29.2313 24.1425 29.3145 24.024 29.3937 23.8896C29.4595 23.7858 29.5309 23.6855 29.6075 23.5893C29.7351 23.4047 29.9044 23.2526 30.1019 23.1455C30.2994 23.0384 30.5193 22.9793 30.744 22.9729C31.0076 22.9653 31.2649 23.0543 31.467 23.2233C31.6692 23.3922 31.8022 23.6293 31.8409 23.8896C32.1577 23.6644 32.0429 23.0994 31.4964 22.7398C31.3499 22.6371 31.0291 22.4751 31.0291 22.4751L29.6036 21.6453L29.0531 21.3253L29.6036 18.1643L29.6352 17.9984ZM24.9309 18.3619L26.8593 19.0138V22.0365L25.4259 21.2976L24.9309 18.3619ZM25.3269 24.7826C25.5859 25.0525 25.9007 25.2628 26.2495 25.399C26.1754 25.6605 26.1935 25.9395 26.301 26.1892C26.4301 26.4532 26.6553 26.6581 26.9306 26.7621C26.9564 26.9839 27.0444 27.1939 27.1845 27.368C27.3246 27.542 27.5111 27.6731 27.7226 27.746L27.1563 28.3031L24.9467 28.2675C24.8733 28.2327 24.8125 28.1761 24.7725 28.1055V28.0779L25.1328 28.1372H25.1566C25.1906 28.1376 25.2237 28.1259 25.2498 28.1042C25.276 28.0825 25.2935 28.0521 25.2991 28.0186C25.3049 27.981 25.2957 27.9426 25.2735 27.9116C25.2513 27.8806 25.2179 27.8594 25.1803 27.8527L24.7368 27.7816L25.2279 26.0865L24.7606 25.1066L24.0122 25.8968L23.9646 27.6591L23.4459 27.5721C23.4271 27.5688 23.4079 27.5692 23.3893 27.5733C23.3707 27.5775 23.3532 27.5853 23.3377 27.5964C23.3221 27.6074 23.309 27.6214 23.299 27.6376C23.2891 27.6538 23.2825 27.6719 23.2796 27.6907C23.2738 27.7283 23.283 27.7667 23.3052 27.7977C23.3274 27.8287 23.3608 27.8499 23.3984 27.8566L23.6083 27.8882C23.533 27.9317 23.4815 27.9633 23.4776 27.9712L23.4459 28.0147V28.066C23.3974 28.286 23.4143 28.5153 23.4945 28.7259C23.5747 28.9364 23.7147 29.1191 23.8973 29.2514V29.3146C23.8859 29.3895 23.9044 29.4658 23.9488 29.5271C23.9933 29.5885 24.0601 29.63 24.1349 29.6426H24.1824C24.2464 29.6422 24.3084 29.6201 24.358 29.5799C24.4077 29.5396 24.4422 29.4837 24.4557 29.4213C24.5493 29.4268 24.6432 29.4268 24.7368 29.4213H24.7962L27.6949 29.9429L27.7424 29.9112C27.9721 29.7492 28.8551 29.121 29.1442 28.8958C29.228 28.9685 29.3212 29.0297 29.4214 29.0775C29.3549 29.281 29.3448 29.4986 29.3922 29.7073C29.4396 29.916 29.5427 30.108 29.6907 30.2629H22.2579V25.9956C22.2415 25.5801 22.1517 25.1708 21.9926 24.7865L25.3269 24.7826ZM28.8908 28.6745C28.5977 28.8918 27.8414 29.4411 27.5682 29.6307L24.9348 29.1566V29.0854C24.9879 28.9108 25.0198 28.7303 25.0299 28.5481L27.2434 28.5836L27.287 28.5402C27.3187 28.5086 28.0236 27.829 28.3799 27.4417C28.4734 27.5584 28.5858 27.6586 28.7126 27.7381C28.6513 28.0625 28.718 28.398 28.8987 28.6745H28.8908ZM24.4992 28.2241C24.5569 28.3355 24.6447 28.4286 24.7527 28.4928C24.7494 28.6531 24.7335 28.813 24.7051 28.9709C24.7051 29.0064 24.7051 29.042 24.6774 29.0775V29.1329C24.4973 29.1334 24.3182 29.1054 24.1468 29.0499C23.9924 28.9669 23.8672 28.8387 23.7879 28.6826C23.7086 28.5266 23.6791 28.35 23.7033 28.1767C23.8462 28.0851 24.0093 28.0295 24.1785 28.0147C24.2485 28.0132 24.3172 28.0338 24.3748 28.0735C24.4324 28.1132 24.4759 28.1701 24.4992 28.2359V28.2241ZM24.2379 27.6986L24.2814 26.0035L24.6774 25.6084L24.915 26.1062L24.4438 27.7302L24.2379 27.6986ZM28.8987 36.4781H28.5027L28.8155 35.5022C28.8631 35.3679 28.6175 35.194 28.5146 35.0399C28.7571 35.1843 29.0069 35.3162 29.263 35.435C29.263 35.4666 28.8987 36.4702 28.8987 36.4702V36.4781ZM29.8847 35.3639L29.6788 36.4307C29.5481 36.4307 29.4095 36.4584 29.2828 36.4623L29.5006 35.439C29.564 35.1347 28.7443 35.0439 28.3403 34.4393C28.2104 34.5476 28.0601 34.6289 27.8983 34.6784C27.7364 34.7279 27.5663 34.7447 27.3979 34.7278C27.0986 34.7238 26.8003 34.6921 26.5069 34.6329C26.4568 34.629 26.4065 34.629 26.3564 34.6329C26.2955 34.6286 26.2345 34.6415 26.1806 34.6701C26.1267 34.6988 26.0819 34.742 26.0515 34.7949L25.9921 34.8937L24.8754 34.6329L24.5982 35.0913C24.5771 35.1225 24.5675 35.1601 24.5711 35.1976C24.5747 35.2351 24.5913 35.2701 24.618 35.2967L24.6933 35.3797C24.6196 35.5255 24.5234 35.6589 24.4082 35.7748L24.2418 35.5694C24.1775 35.4722 24.1429 35.3585 24.1422 35.242C24.1415 35.1256 24.1747 35.0114 24.2379 34.9135L24.6814 34.1667L25.6278 34.301L25.4813 33.9652C25.2833 33.5226 25.5842 32.9616 25.6159 32.6376C25.6159 32.7364 25.513 32.7561 25.41 32.7561C25.3071 32.7561 25.2081 32.7561 25.1368 32.7561C25.1161 32.7502 25.0941 32.7502 25.0734 32.7561L24.816 32.9102L24.6339 32.7285C24.6189 32.7004 24.6136 32.6683 24.6186 32.6369C24.6236 32.6055 24.6387 32.5766 24.6616 32.5546L25.1289 32.0291L24.5745 31.385L25.3665 31.7802L25.604 31.4957C25.6674 31.5589 25.6397 31.7248 25.6397 31.7248C25.9175 31.7947 26.1634 31.9567 26.3368 32.1843C26.5102 32.4119 26.6009 32.6916 26.594 32.9774C26.594 33.005 26.594 33.0327 26.594 33.0643V33.092C26.673 33.2173 26.7981 33.3067 26.9425 33.3409L28.0117 33.4476C28.2236 33.3824 28.4409 33.3361 28.6611 33.3093C28.8525 33.3102 29.0396 33.3665 29.1996 33.4713C29.2745 33.4202 29.3624 33.3915 29.4531 33.3883H29.4887C29.9679 33.3883 30.1698 33.8229 30.4272 34.1785C30.6212 34.4512 30.8786 34.8582 30.8786 34.8582C30.8424 34.9131 30.793 34.9581 30.7349 34.9891C30.6768 35.0202 30.6119 35.0363 30.546 35.036C30.4999 35.0406 30.4535 35.0406 30.4074 35.036C29.8926 34.9411 29.8174 33.8862 29.5244 33.8032H29.4768C29.4491 33.804 29.422 33.8121 29.3984 33.8267C29.3748 33.8413 29.3554 33.8618 29.3422 33.8862C29.4768 34.2457 29.3976 34.3919 29.5442 34.6764C29.6521 34.8472 29.7857 35.0004 29.9401 35.1308C29.9401 35.1308 29.9203 35.2849 29.8966 35.4034L29.8847 35.3639ZM24.123 34.3643L24.1706 34.4867C24.1389 34.5934 23.7746 34.7475 23.7746 34.7475L23.6954 34.5737C23.6449 34.4538 23.6363 34.3205 23.6707 34.1952C23.7052 34.0698 23.7808 33.9596 23.8854 33.8822L24.4874 33.5187L25.1249 33.653C25.1214 33.7793 25.1605 33.9031 25.2358 34.0047L24.5666 33.8783L24.1706 34.1548C24.1407 34.1807 24.1208 34.2162 24.1143 34.2551C24.1078 34.2941 24.1151 34.334 24.1349 34.3682L24.123 34.3643ZM29.9877 36.3833L30.1698 35.4271C30.1698 35.3718 30.1896 35.3046 30.1975 35.2493C30.251 35.2723 30.3067 35.2895 30.3639 35.3007C30.4271 35.3066 30.4907 35.3066 30.5539 35.3007C30.6605 35.3002 30.7655 35.2754 30.8609 35.2282C30.9563 35.1809 31.0396 35.1124 31.1044 35.0281L31.2469 34.8661L31.1321 34.6882C31.1321 34.6882 30.8668 34.2694 30.6727 33.9928L30.5619 33.8269C30.4674 33.6192 30.3194 33.4403 30.1329 33.3084C29.9465 33.1765 29.7283 33.0963 29.5006 33.0762H29.4491C29.3693 33.0804 29.2906 33.0964 29.2155 33.1236C29.045 33.0415 28.8583 32.9983 28.669 32.9971C28.4795 33.0015 28.2921 33.0376 28.1146 33.1038L28.0196 33.1315L26.9742 33.0287C26.9314 33.008 26.8946 32.9767 26.8673 32.9379V32.9379L27.093 32.847C27.0296 32.0963 26.301 31.634 25.905 31.4759C25.8871 31.3948 25.8458 31.3206 25.7862 31.2626L25.5605 31.0492L25.3625 31.2863L25.2635 31.4048L23.7983 30.8042L24.7487 31.9896L24.3725 32.5586C24.3531 32.5777 24.3377 32.6004 24.3272 32.6255C24.3167 32.6506 24.3113 32.6775 24.3113 32.7047C24.3113 32.7319 24.3167 32.7589 24.3272 32.784C24.3377 32.8091 24.3531 32.8318 24.3725 32.8509L24.7685 33.1196L25.1645 32.9695H25.2041C25.2041 33.0287 25.1605 33.2698 25.1407 33.3369L24.4438 33.1986L23.7112 33.5938C23.5505 33.7091 23.4341 33.8759 23.3815 34.0664C23.329 34.2569 23.3433 34.4596 23.4221 34.6408L23.5053 34.8186L23.6201 35.0676L23.8775 34.9609C23.83 35.0863 23.8152 35.2218 23.8346 35.3545C23.854 35.4872 23.9069 35.6128 23.9884 35.7195L24.1428 35.9131L24.3488 36.1739L24.5784 35.9289C24.7284 35.7808 24.8481 35.605 24.9309 35.4113L24.9784 35.2533L24.8675 35.1308V35.1071L24.9942 34.9016L25.905 35.115L26.1109 35.1624L26.2218 34.9806L26.2812 34.8819C26.2812 34.8621 26.2812 34.8582 26.3366 34.8582H26.4356C26.7461 34.9199 27.0616 34.953 27.3781 34.9569C27.5907 34.9686 27.8038 34.9432 28.0077 34.8819L28.5067 35.522L28.1978 36.4465V36.5018C27.9756 36.4976 27.755 36.5402 27.5503 36.6266C27.3456 36.7131 27.1615 36.8415 27.0098 37.0037C26.5227 36.5216 26.1822 36.4742 24.8754 36.4742C23.3152 36.4742 22.2579 35.5615 22.2579 34.1035V30.5474H31.7617V34.1035C31.7835 34.6333 31.6153 35.1535 31.2872 35.5706C30.9591 35.9878 30.4927 36.2745 29.9718 36.3794L29.9877 36.3833ZM32.027 24.7865C31.8669 25.1705 31.777 25.58 31.7617 25.9956V28.6548C31.5932 28.6191 31.441 28.5296 31.3281 28.3998C31.2152 28.27 31.1478 28.1071 31.136 27.9356V27.8132H31.0172C30.8125 27.7956 30.6211 27.7043 30.4787 27.5563C30.2941 27.358 30.1872 27.0999 30.1777 26.8293C30.0947 26.9647 30.0544 27.1219 30.0621 27.2805C30.0699 27.4391 30.1254 27.5917 30.2213 27.7183C30.375 27.9142 30.5997 28.0419 30.847 28.0739C30.8821 28.2995 30.9908 28.5073 31.1561 28.6651C31.3214 28.823 31.5343 28.9221 31.7617 28.9472V30.2511H30.1183C29.9088 30.1455 29.7479 29.9635 29.669 29.7429C29.5901 29.5222 29.5993 29.2798 29.6946 29.0657L29.758 28.9234L29.6115 28.8681C29.383 28.788 29.1947 28.6225 29.0861 28.4066C28.9775 28.1906 28.9572 27.9411 29.0294 27.7104L29.061 27.5919L28.9502 27.5405C28.747 27.4222 28.5836 27.2465 28.4807 27.0354C28.3778 26.8244 28.34 26.5877 28.372 26.3552C28.2613 26.4636 28.1881 26.6045 28.1632 26.7573C28.1383 26.9101 28.1629 27.0668 28.2334 27.2047C28.1542 27.2916 28.0513 27.4022 27.9364 27.5168C27.7385 27.4737 27.5603 27.3667 27.4293 27.2125C27.2983 27.0582 27.2219 26.8653 27.2118 26.6634V26.5527L27.1207 26.5172C27.0021 26.482 26.8919 26.4232 26.7966 26.3444C26.7014 26.2657 26.623 26.1685 26.5663 26.0588C26.4896 25.8762 26.4757 25.6733 26.5267 25.482C26.605 25.4994 26.6844 25.5113 26.7643 25.5175C26.8448 25.5217 26.9254 25.5217 27.0059 25.5175V25.5175C27.3228 25.5168 27.6361 25.4496 27.9253 25.3203C28.2146 25.1909 28.4734 25.0024 28.6849 24.7668L32.027 24.7865ZM29.465 22.0879L30.1144 22.483L30.2767 22.5778C29.9398 22.6693 29.6344 22.851 29.3937 23.1033L29.366 23.127C29.3105 23.1863 29.259 23.2456 29.2076 23.3088L29.1759 23.3483C29.1257 23.4115 29.0782 23.4774 29.0333 23.5459L29.0096 23.5814C28.9541 23.6604 28.9027 23.7474 28.8512 23.8343C28.6749 24.182 28.4139 24.48 28.0922 24.7009C27.7705 24.9218 27.3983 25.0586 27.0098 25.0987C26.6185 25.0597 26.2433 24.9226 25.9193 24.7002C25.5953 24.4778 25.3329 24.1772 25.1566 23.8264C25.1051 23.7395 25.0536 23.6565 25.0021 23.5775L24.9705 23.534L24.8319 23.3444L24.7962 23.3009C24.7447 23.2377 24.6933 23.1784 24.6418 23.1231L24.6339 23.0875C24.3926 22.8367 24.0873 22.6563 23.7508 22.566L23.9171 22.4711L24.5666 22.076L25.2318 21.6809L27.0098 22.6806L28.7918 21.7125L29.465 22.0879ZM28.5938 21.2976L27.1722 22.0444V19.0178L29.1006 18.3658L28.5938 21.2976ZM27.0098 18.6898L24.8992 17.8561C25.0774 17.4334 25.909 17.0659 27.0098 17.0659C28.1107 17.0659 28.9422 17.4294 29.1244 17.8561L27.0098 18.6898Z" fill="#222220"/>
</svg>
