<svg width="54" height="54" viewBox="0 0 54 54" fill="none" xmlns="http://www.w3.org/2000/svg">
<circle cx="27" cy="27" r="27" fill="#FCE527"/>
<path d="M42.604 26.3472L43 25.0195L41.6259 25.063C40.9919 25.0381 40.3791 24.8279 39.8638 24.4585C39.9271 24.4585 39.9865 24.4585 40.0499 24.4585C40.4622 24.4574 40.8661 24.3414 41.2159 24.1236C41.5657 23.9058 41.8476 23.5948 42.0298 23.2257L42.6198 21.9179C42.1447 21.9219 41.6697 21.8941 41.1982 21.8349C40.7488 21.7285 40.3443 21.4839 40.042 21.1355C39.8388 20.919 39.5936 20.7461 39.3213 20.6272C39.0489 20.5083 38.7552 20.446 38.458 20.4441C38.2227 20.4451 37.9889 20.4824 37.765 20.5547C37.7985 20.4485 37.825 20.3403 37.8442 20.2307C37.9371 19.4605 37.7207 18.6849 37.2423 18.0733L36.2088 16.7971L35.5673 18.2986C35.4661 18.5116 35.3104 18.6942 35.1158 18.828C35.0063 18.2937 34.7419 17.8032 34.3555 17.4174C34.0347 17.0894 33.6509 16.8293 33.227 16.6528C32.8031 16.4763 32.3478 16.3869 31.8885 16.3901C31.7268 16.3893 31.5652 16.4012 31.4054 16.4257L30.1778 16.6667C30.286 16.2484 30.4569 15.8488 30.6847 15.4814L31.3658 14.3987L29.6314 14.5963L29.0809 13.4109L28.0118 13.9601L27.0099 13L26.0239 13.9759L24.9547 13.4267L24.4043 14.5805L22.654 14.3987L23.343 15.4695C23.5703 15.8367 23.7399 16.2365 23.8459 16.6549L22.658 16.4217H22.6184C22.4532 16.3968 22.2864 16.3849 22.1194 16.3862C21.6601 16.3828 21.2047 16.472 20.7808 16.6485C20.3569 16.8251 19.973 17.0853 19.6524 17.4135C19.2648 17.7989 18.999 18.2894 18.8881 18.8241C18.6961 18.6936 18.5418 18.5151 18.4407 18.3065L17.819 16.8011L16.7696 18.0852C16.2997 18.6976 16.088 19.4688 16.1796 20.2346C16.1991 20.3442 16.2256 20.4524 16.2588 20.5586C16.035 20.4859 15.8011 20.4486 15.5658 20.448C15.2686 20.4502 14.9749 20.5126 14.7026 20.6315C14.4304 20.7503 14.1851 20.9232 13.9818 21.1395C13.681 21.4839 13.2816 21.728 12.8374 21.8388C12.363 21.9089 11.8833 21.9367 11.4039 21.9218L11.9939 23.2297C12.1765 23.5985 12.4585 23.9092 12.8082 24.127C13.158 24.3447 13.5616 24.4609 13.9739 24.4624C14.0372 24.4624 14.0966 24.4624 14.16 24.4624C13.646 24.836 13.0331 25.0504 12.3978 25.0788L11 25.0354L11.4237 26.363C11.5757 26.8736 11.8735 27.329 12.2807 27.6735C12.6879 28.018 13.1868 28.2368 13.7165 28.303C13.6614 28.6472 13.525 28.9733 13.3184 29.2544C13.1118 29.5354 12.841 29.7633 12.5285 29.919L11.4871 30.3458L12.0573 31.3336C12.2877 31.6919 12.6055 31.9861 12.9808 32.1886C13.3562 32.391 13.7769 32.4952 14.2036 32.4913C14.4298 32.4908 14.6554 32.467 14.8767 32.4201C14.9277 32.6668 14.9912 32.9108 15.0668 33.1511C15.2629 33.6698 15.2769 34.2395 15.1064 34.7672L14.5916 35.8419L15.74 36.1422C15.9989 36.2076 16.2649 36.2408 16.532 36.241C16.7269 36.2405 16.921 36.2166 17.1101 36.1698C17.2452 36.1397 17.3776 36.0987 17.5061 36.0473C17.6533 36.3119 17.8344 36.5563 18.0447 36.7744C18.7812 37.529 19.8266 37.9123 21.1453 37.9123H22.0877L20.1395 38.7026L21.6205 39.4177C22.2151 39.7119 22.8244 39.9756 23.446 40.208L23.2599 40.7137L23.7707 40.9468C24.6184 41.2808 25.517 41.4678 26.4278 41.5C26.4278 41.5 26.8238 41.5 27.0376 41.5C27.2515 41.5 27.6435 41.5 27.6435 41.5C28.5487 41.4675 29.4419 41.2818 30.2847 40.9508L30.7956 40.7177L30.6095 40.2119C31.2381 39.9708 31.854 39.6978 32.4548 39.394L33.9081 38.6907L31.9637 37.9005H32.9102C34.2328 37.9005 35.2861 37.5053 36.0147 36.7625C36.2254 36.5447 36.4064 36.3003 36.5533 36.0355C36.6819 36.0865 36.8143 36.1274 36.9493 36.158C37.1336 36.2006 37.3223 36.2219 37.5116 36.2212C37.7786 36.2205 38.0446 36.1874 38.3036 36.1224L39.4598 35.8182L38.9569 34.7632C38.7771 34.2294 38.7883 33.6499 38.9886 33.1235C39.0678 32.8824 39.1391 32.6375 39.1945 32.3964C39.4172 32.4433 39.6441 32.4671 39.8717 32.4676C40.3019 32.4707 40.7257 32.3633 41.1023 32.1557C41.4789 31.9481 41.7956 31.6473 42.0219 31.2822L42.5842 30.3063L41.5428 29.8795C41.2299 29.7243 40.9588 29.4966 40.7521 29.2154C40.5455 28.9343 40.4092 28.6079 40.3548 28.2635C40.8835 28.1944 41.381 27.9746 41.7876 27.6305C42.1943 27.2864 42.4929 26.8326 42.6476 26.3234L42.604 26.3472Z" fill="white"/>
<path d="M27.01 17.0657C25.9052 17.0657 25.0776 17.4292 24.8994 17.856L27.01 18.6857L29.1246 17.852C28.9464 17.4253 28.1188 17.0618 27.01 17.0618" fill="white"/>
<path d="M27.0334 39.0779H27.0096C26.3232 39.0719 25.6399 38.9844 24.9743 38.8171L24.4238 40.2633C26.1159 40.75 27.9113 40.75 29.6034 40.2633L29.0688 38.8211C28.4031 38.9881 27.7198 39.0757 27.0334 39.0819" fill="white"/>
<path d="M31.0767 37.6516C30.497 37.9405 29.8943 38.181 29.2749 38.3707L29.7065 39.5561C30.3974 39.3752 31.0686 39.1263 31.7102 38.8133L30.8113 38.5169L31.0767 37.6516Z" fill="white"/>
<path d="M22.951 37.6516L23.2163 38.5169L22.3174 38.8133C22.9579 39.1258 23.6277 39.3746 24.3171 39.5561L24.7527 38.3707C24.1333 38.1809 23.5307 37.9404 22.951 37.6516" fill="white"/>
<path d="M27.0097 15.6867C27.8026 15.6785 28.5851 15.8672 29.2867 16.2359C29.3543 16.0084 29.4363 15.7854 29.5322 15.5682L29.2946 15.5958L29.0451 15.6235L28.9382 15.3983L28.6214 14.7305L28.0432 15.0308L27.8175 15.1454L27.6393 14.9755L27.0097 14.3394L26.384 14.9755L26.2059 15.1533L25.9801 15.0387L25.398 14.7384L25.0852 15.4062L24.9783 15.6314L24.7288 15.6037L24.4912 15.5761C24.5867 15.7934 24.6687 16.0164 24.7367 16.2438C25.4365 15.8733 26.2175 15.6819 27.0097 15.6867" fill="white"/>
<path d="M39.7213 23.4193C39.8269 23.4561 39.938 23.4748 40.0499 23.4746C40.2722 23.4726 40.4898 23.4111 40.68 23.2964C40.8701 23.1817 41.0259 23.0181 41.131 22.8227C40.4362 22.7087 39.8024 22.3582 39.3372 21.8309C39.2269 21.7079 39.0921 21.6092 38.9414 21.5412C38.7907 21.4731 38.6274 21.4372 38.462 21.4358C38.2033 21.4406 37.951 21.5172 37.7334 21.6571C38.8541 22.2537 39.0837 23.2099 39.7134 23.4232" fill="white"/>
<path d="M13.9777 23.4747C14.0883 23.4749 14.1981 23.4562 14.3024 23.4193C14.9439 23.206 15.1736 22.234 16.2824 21.6532C16.0648 21.5133 15.8125 21.4367 15.5537 21.4319C15.3877 21.4328 15.2236 21.4684 15.0722 21.5365C14.9208 21.6045 14.7854 21.7035 14.6746 21.827C14.2106 22.3538 13.5782 22.7042 12.8848 22.8188C12.9898 23.0141 13.1456 23.1778 13.3358 23.2925C13.526 23.4071 13.7436 23.4687 13.9658 23.4707" fill="white"/>
<path d="M40.0259 27.3072H40.0774C41.2653 27.3072 41.6613 26.0507 41.6613 26.0507H41.6376C41.0185 26.0298 40.4115 25.8744 39.8589 25.5953C39.3063 25.3162 38.8213 24.9201 38.438 24.4347C37.6262 23.4034 36.957 22.4986 35.6423 22.143L35.5116 22.1193L35.4839 21.9889C35.4482 21.7874 35.5868 21.5938 35.8799 21.3962C37.6975 20.2108 36.462 18.6975 36.462 18.6975C36.462 18.6975 35.9432 19.9066 34.783 19.9066H34.6959C34.563 19.9041 34.4306 19.8909 34.2999 19.8671L34.086 19.8276C34.1732 19.5252 34.1758 19.2048 34.0934 18.9011C34.011 18.5974 33.8469 18.322 33.6188 18.1048C33.3908 17.8717 33.1178 17.687 32.8163 17.5621C32.5148 17.4371 32.191 17.3744 31.8645 17.3778C31.7478 17.3764 31.6311 17.3857 31.516 17.4055C31.912 17.927 32.209 18.7963 31.7457 19.3337C31.3497 19.796 30.3677 19.8157 30.3677 20.519C30.3677 20.8114 30.6409 21.1473 31.128 21.4515C32.5971 22.3761 34.0543 23.601 34.6642 25.2407C35.4205 27.2874 34.5691 28.6466 33.3495 29.429C33.614 29.6516 33.9397 29.7893 34.284 29.8241C34.3989 29.8241 34.5058 29.8241 34.6087 29.8241C35.2458 29.8501 35.8723 29.6561 36.3828 29.2749C36.2811 29.8153 36.0363 30.3187 35.6739 30.7329C35.3756 31.0789 35.0025 31.3528 34.5828 31.5342C34.163 31.7156 33.7075 31.7996 33.2505 31.7799C33.2562 31.9685 33.3031 32.1535 33.388 32.322C33.4728 32.4906 33.5934 32.6387 33.7415 32.7559C34.0572 32.9673 34.4178 33.1026 34.7949 33.151C34.7949 33.151 33.4168 33.4315 33.2624 35.4625C33.2661 35.9789 33.1409 36.4881 32.8981 36.9442H32.9218C36.1214 36.9442 36.0383 34.206 36.0383 34.206C36.1212 34.4576 36.2674 34.6838 36.4629 34.863C36.6584 35.0421 36.8967 35.1683 37.155 35.2293C37.2637 35.2564 37.3755 35.2697 37.4876 35.2689C37.6691 35.2677 37.8499 35.2451 38.0261 35.2017C37.737 34.4378 37.737 33.5949 38.0261 32.831C38.2514 32.1971 38.36 31.5278 38.3469 30.8554C38.5271 31.0755 38.7571 31.2498 39.0181 31.3638C39.279 31.4779 39.5633 31.5284 39.8477 31.5113V31.5113C40.1003 31.5158 40.35 31.4566 40.5736 31.3392C40.7972 31.2217 40.9874 31.0499 41.1267 30.8396C38.9923 29.9545 39.2062 27.1057 39.2062 27.1057C39.4516 27.2555 39.7342 27.3335 40.0219 27.3309L40.0259 27.3072ZM39.3804 30.3101C38.5132 29.8834 37.9628 28.7494 37.8321 28.3345C37.7014 30.563 36.5926 32.1237 35.3255 33.6252C34.933 34.076 34.6281 34.5959 34.4266 35.1582C34.5319 34.5912 34.7738 34.0583 35.1314 33.6054C36.3194 32.1672 37.4717 30.3773 37.5549 28.3108C37.6219 27.0551 37.3102 25.8082 36.66 24.731C36.8627 25.3148 36.8928 25.9444 36.7468 26.5449C36.6007 27.1453 36.2847 27.6911 35.8363 28.1172C35.8363 28.1172 38.0341 25.4936 34.9612 22.7989C33.7336 21.7755 32.3872 21.1433 31.6942 20.6929C34.1929 21.5068 35.4166 20.6099 35.4166 20.6099C35.0706 20.8794 34.6702 21.0709 34.2429 21.1711C33.8157 21.2714 33.3717 21.2781 32.9416 21.1907C33.1159 21.2737 33.298 21.3646 33.492 21.4673C35.5987 22.6092 37.4955 24.49 37.8163 27.0938V27.0741C38.3073 29.6305 39.4002 30.2864 39.4002 30.2864" fill="white"/>
<path d="M19.2328 33.1275C19.6051 33.0851 19.9628 32.958 20.2782 32.7561C20.4207 32.6367 20.5358 32.4881 20.6158 32.3204C20.6957 32.1527 20.7386 31.9698 20.7415 31.7841C20.2839 31.8038 19.8278 31.7198 19.4074 31.5384C18.987 31.3571 18.6132 31.0831 18.3141 30.737C17.9539 30.3219 17.7107 29.8187 17.6092 29.279C18.1188 29.662 18.746 29.8562 19.3833 29.8283C19.4902 29.8283 19.5971 29.8283 19.7119 29.8283C20.0575 29.794 20.3847 29.6562 20.6504 29.4331C19.4308 28.6429 18.5754 27.2955 19.3318 25.2449C19.9377 23.6051 21.3989 22.3763 22.868 21.4557C23.3551 21.1514 23.6283 20.8116 23.6283 20.5232C23.6283 19.8357 22.6502 19.8159 22.2502 19.3378C21.7869 18.8005 22.076 17.9351 22.476 17.4096C22.3609 17.3898 22.2442 17.3805 22.1275 17.382C21.801 17.3786 21.4772 17.4413 21.1757 17.5662C20.8742 17.6912 20.6012 17.8758 20.3732 18.109C20.1448 18.3259 19.9804 18.6013 19.898 18.9051C19.8156 19.2089 19.8183 19.5294 19.906 19.8317L19.6921 19.8752C19.5614 19.8986 19.429 19.9119 19.2962 19.9147H19.213C18.0488 19.9147 17.534 18.7056 17.534 18.7056C17.534 18.7056 16.3183 20.211 18.1319 21.3964C18.4448 21.5979 18.5834 21.7915 18.5279 21.9891L18.5002 22.1195L18.3695 22.1432C17.0548 22.4988 16.3896 23.4036 15.5738 24.4349C15.1916 24.9158 14.7094 25.3083 14.1604 25.5853C13.6115 25.8622 13.0088 26.017 12.394 26.0391H12.3584C12.3584 26.0391 12.7544 27.2955 13.9424 27.2955H13.9978C14.2855 27.2982 14.5681 27.2201 14.8135 27.0703C14.8135 27.0703 15.0234 29.9191 12.889 30.8042C13.0286 31.0143 13.2189 31.1859 13.4424 31.3033C13.666 31.4207 13.9155 31.4801 14.1681 31.4759C14.4524 31.493 14.7368 31.4425 14.9977 31.3285C15.2586 31.2144 15.4887 31.0402 15.6689 30.82C15.656 31.4924 15.7647 32.1616 15.9896 32.7956C16.2781 33.5596 16.2781 34.4023 15.9896 35.1663C16.1646 35.2095 16.344 35.2321 16.5242 35.2335C16.6363 35.2346 16.7481 35.2213 16.8569 35.194C17.1151 35.1329 17.3534 35.0068 17.5489 34.8276C17.7444 34.6484 17.8906 34.4222 17.9735 34.1706C17.9735 34.1706 17.8904 36.9088 21.09 36.9088H21.1137C20.873 36.4521 20.7492 35.9431 20.7534 35.4271C20.6029 33.3962 19.2209 33.1157 19.2209 33.1157L19.2328 33.1275ZM18.7061 33.6096C17.4231 32.1081 16.3302 30.5513 16.1757 28.3031C16.0451 28.6982 15.4946 29.8441 14.6274 30.2787C14.6274 30.2787 15.7164 29.6228 16.2114 27.0664V27.0861C16.5361 24.4823 18.4289 22.6015 20.5396 21.4596C20.7336 21.3529 20.9158 21.266 21.09 21.183C20.6605 21.2698 20.2173 21.2628 19.7908 21.1626C19.3642 21.0623 18.9645 20.8712 18.619 20.6022C18.619 20.6022 19.8387 21.4991 22.3413 20.6852C21.6563 21.1396 20.3099 21.7718 19.0902 22.7951C16.0174 25.4859 18.2151 28.1134 18.2151 28.1134C17.7667 27.6873 17.4507 27.1415 17.3046 26.5411C17.1586 25.9407 17.1887 25.311 17.3914 24.7273C16.7401 25.804 16.4283 27.0512 16.4965 28.3071C16.5797 30.3775 17.7201 32.1634 18.916 33.6017C19.2751 34.0542 19.5183 34.5871 19.6248 35.1545C19.4211 34.5923 19.115 34.0726 18.722 33.6214" fill="white"/>
<path d="M24.6341 23.1191C24.6856 23.1744 24.737 23.2376 24.7885 23.2969L24.8242 23.3404L24.9628 23.53L24.9944 23.5735C25.0459 23.6525 25.0974 23.7394 25.1489 23.8224C25.3254 24.175 25.5888 24.477 25.9143 24.7003C26.2399 24.9235 26.6169 25.0606 27.01 25.0986C27.4021 25.0603 27.778 24.9235 28.1028 24.7011C28.4275 24.4786 28.6905 24.1777 28.8672 23.8264C28.9187 23.7394 28.9702 23.6525 29.0256 23.5735L29.0494 23.5379C29.0969 23.4708 29.1444 23.4036 29.1919 23.3404L29.2236 23.3009C29.2751 23.2376 29.3266 23.1744 29.382 23.1191L29.4097 23.0954C29.6505 22.8431 29.9559 22.6613 30.2928 22.5699L30.1304 22.4751L29.481 22.0799L28.8158 21.6848L27.01 22.6805L25.2281 21.7125L24.5628 22.1076L23.9134 22.5027L23.7471 22.5975C24.0815 22.6783 24.388 22.8475 24.6341 23.0875L24.6618 23.1151L24.6341 23.1191ZM26.3052 23.0361H27.802V23.5537C27.7335 23.4876 27.6509 23.4376 27.5605 23.4076C27.47 23.3775 27.3739 23.368 27.2793 23.3799V24.1227C27.283 24.3069 27.332 24.4873 27.4219 24.6482H26.6774C26.7681 24.4876 26.8171 24.307 26.82 24.1227V23.3838C26.7253 23.372 26.6293 23.3814 26.5388 23.4115C26.4483 23.4416 26.3658 23.4915 26.2973 23.5577L26.3052 23.0361Z" fill="white"/>
<path d="M26.8596 22.0403V19.0177L24.9312 18.3657L25.4261 21.2975L26.8596 22.0403ZM26.4636 19.7605V20.2465L26.3686 20.203C26.2233 20.1542 26.0888 20.0777 25.9726 19.9778C25.8692 19.9126 25.7805 19.8265 25.7123 19.7251C25.6442 19.6238 25.5979 19.5093 25.5766 19.3891L26.4636 19.7605Z" fill="white"/>
<path d="M28.594 21.2975L29.1008 18.3696L27.1724 19.0216V22.0442L28.594 21.2975ZM27.5882 19.7644L28.4633 19.3969C28.4422 19.5172 28.3961 19.6318 28.3279 19.7332C28.2597 19.8346 28.1709 19.9206 28.0673 19.9857C27.9511 20.0855 27.8166 20.162 27.6713 20.2109L27.5802 20.2544L27.5882 19.7644Z" fill="white"/>
<path d="M24.1312 29.046C24.3026 29.1015 24.4817 29.1295 24.6618 29.1289V29.0736C24.6729 29.0386 24.6822 29.0029 24.6896 28.9669C24.718 28.8091 24.7339 28.6492 24.7371 28.4888C24.6291 28.4246 24.5413 28.3316 24.4836 28.2201C24.4596 28.154 24.4153 28.097 24.357 28.0573C24.2988 28.0176 24.2295 27.9971 24.1589 27.9989C23.9836 28.0135 23.8147 28.072 23.6679 28.1688C23.6437 28.3421 23.6732 28.5187 23.7525 28.6748C23.8318 28.8309 23.957 28.959 24.1114 29.042" fill="white"/>
<path d="M28.3957 27.4417C28.0393 27.8368 27.3344 28.5085 27.3028 28.5401L27.2592 28.5835L25.0298 28.548C25.0279 28.7306 25.0039 28.9124 24.9585 29.0893V29.1604L27.5918 29.6346C27.8651 29.4449 28.6214 28.8917 28.9144 28.6784C28.7337 28.4019 28.667 28.0664 28.7283 27.7419C28.6014 27.6627 28.489 27.5625 28.3957 27.4456" fill="white"/>
<path d="M28.6966 24.7864C28.4851 25.0219 28.2264 25.2105 27.9371 25.3398C27.6479 25.4692 27.3346 25.5364 27.0176 25.5371V25.5371C26.9372 25.5413 26.8565 25.5413 26.7761 25.5371C26.6962 25.5306 26.6168 25.5188 26.5385 25.5015C26.4875 25.6929 26.5014 25.8958 26.5781 26.0784C26.6346 26.1883 26.7129 26.2855 26.8082 26.3643C26.9035 26.4431 27.0138 26.5017 27.1325 26.5368L27.2235 26.5723V26.6711C27.2345 26.8723 27.3113 27.0644 27.4422 27.2178C27.5731 27.3713 27.7509 27.4777 27.9482 27.5206C28.063 27.4021 28.166 27.2954 28.2452 27.2085C28.1746 27.0706 28.15 26.9138 28.175 26.761C28.1999 26.6082 28.273 26.4674 28.3838 26.359C28.3517 26.5914 28.3896 26.8282 28.4925 27.0392C28.5954 27.2502 28.7588 27.426 28.9619 27.5443L29.0728 27.5957L29.0411 27.7142C28.9689 27.9448 28.9893 28.1944 29.0979 28.4104C29.2064 28.6263 29.3948 28.7918 29.6232 28.8719L29.7697 28.9272L29.7064 29.0695C29.6111 29.2836 29.6019 29.526 29.6808 29.7467C29.7596 29.9673 29.9205 30.1493 30.1301 30.2548H31.7616V28.9509C31.5377 28.9218 31.3294 28.8209 31.168 28.6635C31.0066 28.506 30.9008 28.3004 30.8666 28.0777C30.6194 28.0457 30.3947 27.9179 30.241 27.7221C30.1412 27.5971 30.0817 27.4449 30.0704 27.2854C30.059 27.126 30.0964 26.9669 30.1776 26.8291C30.1813 27.0934 30.278 27.348 30.4509 27.5483C30.5932 27.6962 30.7846 27.7875 30.9894 27.8051H31.1082V27.9276C31.1197 28.1043 31.1904 28.272 31.3089 28.4038C31.4274 28.5357 31.5868 28.624 31.7616 28.6546V25.9954C31.7771 25.5799 31.8669 25.1704 32.0269 24.7864H28.6966Z" fill="white"/>
<path d="M24.2696 26.0034L24.2261 27.6984L24.4201 27.7261L24.8913 26.1021L24.6537 25.6003L24.2696 26.0034Z" fill="white"/>
<path d="M29.4728 33.7756H29.5203C29.8133 33.8585 29.8886 34.9135 30.4034 35.0083C30.4494 35.0131 30.4959 35.0131 30.542 35.0083C30.6079 35.0086 30.6728 34.9925 30.7309 34.9615C30.7889 34.9304 30.8384 34.8854 30.8746 34.8305C30.8746 34.8305 30.6172 34.4354 30.4232 34.1509C30.1658 33.7914 29.9678 33.3607 29.4847 33.3607H29.449C29.3584 33.3638 29.2705 33.3926 29.1956 33.4437C29.0355 33.339 28.8485 33.2828 28.657 33.2817C28.4369 33.3085 28.2196 33.3547 28.0076 33.4199V33.4199L26.9384 33.3133C26.7941 33.279 26.669 33.1897 26.59 33.0643V33.0367C26.59 33.009 26.59 32.9774 26.59 32.9498C26.5969 32.6639 26.5061 32.3843 26.3327 32.1567C26.1593 31.9291 25.9135 31.7671 25.6356 31.6972C25.6356 31.6972 25.6634 31.5313 25.6 31.4681L25.3624 31.7525L24.5704 31.3574L25.1248 32.0015L24.6338 32.5546C24.6109 32.5767 24.5958 32.6056 24.5908 32.6369C24.5858 32.6683 24.5911 32.7004 24.6061 32.7285L24.808 32.9063L25.0654 32.7522C25.0861 32.7465 25.108 32.7465 25.1288 32.7522C25.2001 32.7522 25.307 32.7522 25.402 32.7522C25.497 32.7522 25.596 32.7285 25.6079 32.6337C25.5762 32.9577 25.2753 33.5187 25.4733 33.9613L25.6198 34.2971L24.6734 34.1628L24.2378 34.9135C24.1682 35.0091 24.1285 35.1231 24.1236 35.2412C24.1186 35.3593 24.1487 35.4762 24.2101 35.5773L24.3764 35.7828C24.4916 35.6668 24.5878 35.5334 24.6615 35.3876L24.5863 35.3047C24.5588 35.2785 24.5417 35.2433 24.5381 35.2056C24.5345 35.1679 24.5445 35.1301 24.5665 35.0992L24.8437 34.6409L25.9604 34.9016L26.0198 34.8029C26.0501 34.75 26.0949 34.7067 26.1488 34.678C26.2028 34.6494 26.2637 34.6365 26.3247 34.6409C26.3747 34.6371 26.4251 34.6371 26.4751 34.6409C26.7685 34.7 27.0668 34.7318 27.3661 34.7357C27.5345 34.7524 27.7046 34.7355 27.8664 34.686C28.0282 34.6365 28.1785 34.5553 28.3086 34.4473C28.7046 35.0478 29.5322 35.1427 29.4688 35.4469L29.251 36.4703C29.3936 36.4703 29.5322 36.4703 29.647 36.4387L29.8529 35.3718C29.8767 35.2572 29.8965 35.0992 29.8965 35.0992C29.742 34.9688 29.6085 34.8156 29.5005 34.6448C29.354 34.3682 29.4332 34.222 29.2985 33.8546C29.3117 33.8302 29.3311 33.8097 29.3547 33.7951C29.3784 33.7805 29.4054 33.7724 29.4332 33.7716L29.4728 33.7756ZM25.2515 32.2701C25.2387 32.2697 25.2261 32.2666 25.2145 32.2611C25.2029 32.2556 25.1925 32.2478 25.184 32.2382C25.1755 32.2286 25.169 32.2174 25.1649 32.2052C25.1609 32.1931 25.1594 32.1802 25.1605 32.1674C25.1609 32.1546 25.164 32.142 25.1695 32.1304C25.175 32.1189 25.1828 32.1085 25.1925 32.1C25.2021 32.0915 25.2133 32.0851 25.2255 32.081C25.2377 32.077 25.2506 32.0755 25.2634 32.0765C25.2891 32.0765 25.3138 32.0867 25.332 32.1049C25.3502 32.123 25.3604 32.1477 25.3604 32.1733C25.3604 32.199 25.3502 32.2236 25.332 32.2418C25.3138 32.2599 25.2891 32.2701 25.2634 32.2701" fill="white"/>
<path d="M23.7668 34.7316C23.7668 34.7316 24.1391 34.5775 24.1628 34.4708L24.1153 34.3483C24.0947 34.3143 24.087 34.2742 24.0935 34.235C24.1 34.1959 24.1204 34.1604 24.1509 34.1349L24.5469 33.8583L25.2162 33.9848C25.1408 33.8832 25.1018 33.7594 25.1053 33.6331L24.4677 33.4988L23.8658 33.8623C23.7612 33.9397 23.6856 34.0499 23.6511 34.1753C23.6166 34.3006 23.6253 34.4339 23.6758 34.5537L23.7668 34.7316Z" fill="white"/>
<path d="M28.4907 36.4821H28.8867C28.8867 36.4821 29.2312 35.4785 29.251 35.4469C28.9951 35.3278 28.7453 35.1959 28.5026 35.0518C28.6056 35.2059 28.8511 35.3758 28.8036 35.5101L28.4907 36.4821Z" fill="white"/>
<path d="M31.7616 30.5354H22.2578V34.0915C22.2578 35.5495 23.3151 36.4622 24.8753 36.4622C26.1781 36.4622 26.5226 36.5136 27.0097 36.9917C27.1613 36.8295 27.3455 36.7011 27.5502 36.6146C27.7548 36.5282 27.9755 36.4857 28.1977 36.4899V36.4345L28.4986 35.51L27.9918 34.9331C27.7878 34.9944 27.5748 35.0198 27.3621 35.0082C27.0456 35.0042 26.7301 34.9711 26.4197 34.9094C26.3868 34.9057 26.3536 34.9057 26.3207 34.9094C26.2771 34.9094 26.2771 34.9094 26.2652 34.9331L26.2058 35.0319L26.0989 35.2097L25.893 35.1623L24.9822 34.9489L24.8555 35.1543V35.1781L24.9664 35.3005L24.9189 35.4586C24.8358 35.6521 24.7161 35.8278 24.5664 35.9762L24.3368 36.2212L24.1308 35.9604L23.9764 35.7668C23.8949 35.6601 23.842 35.5345 23.8226 35.4018C23.8032 35.2691 23.818 35.1336 23.8655 35.0082V35.0082L23.6081 35.1148L23.4933 34.8659L23.4141 34.6881C23.3352 34.5069 23.3209 34.3042 23.3735 34.1137C23.4261 33.9232 23.5424 33.7564 23.7032 33.641L24.4358 33.2459L25.1327 33.3842C25.1327 33.317 25.1763 33.08 25.1961 33.0168H25.1565L24.7605 33.1669L24.3645 32.8982C24.3451 32.8791 24.3297 32.8563 24.3192 32.8312C24.3087 32.8061 24.3033 32.7792 24.3033 32.752C24.3033 32.7248 24.3087 32.6979 24.3192 32.6728C24.3297 32.6477 24.3451 32.6249 24.3645 32.6058L24.7407 32.0369L23.7863 30.8515L25.2515 31.4521L25.3505 31.3335L25.5485 31.0965L25.7742 31.3098C25.8331 31.3668 25.8744 31.4395 25.893 31.5192C26.289 31.6773 27.0176 32.1396 27.081 32.8903L26.8553 32.9812C26.883 33.0187 26.9198 33.0486 26.9622 33.0681L28.0076 33.1708L28.1026 33.1432C28.2801 33.0769 28.4675 33.0408 28.657 33.0365C28.8463 33.0378 29.033 33.081 29.2035 33.1629C29.2786 33.1359 29.3573 33.1199 29.4371 33.1155H29.4886C29.7163 33.1357 29.9345 33.2159 30.1209 33.3478C30.3074 33.4797 30.4554 33.6586 30.5499 33.8663L30.6647 34.0322C30.8587 34.3088 31.1161 34.7079 31.124 34.7276L31.2389 34.9054L31.0963 35.0674C31.0316 35.1518 30.9483 35.2203 30.8528 35.2675C30.7574 35.3148 30.6524 35.3396 30.5459 35.3401C30.4827 35.346 30.419 35.346 30.3558 35.3401C30.2987 35.3289 30.243 35.3117 30.1895 35.2887C30.1895 35.344 30.1895 35.4112 30.1578 35.4665L29.9757 36.4187C30.5029 36.3121 30.9739 36.0192 31.302 35.5938C31.6301 35.1684 31.7933 34.6392 31.7616 34.1033V30.5354Z" fill="#FCE527"/>
<path d="M22.2579 30.2508H29.6471C29.4991 30.0959 29.396 29.9039 29.3486 29.6952C29.3012 29.4865 29.3113 29.2689 29.3778 29.0655C29.2776 29.0176 29.1844 28.9565 29.1006 28.8837C28.8115 29.0971 27.9126 29.7372 27.6988 29.8992L27.6513 29.9308L24.7526 29.4092H24.6932C24.5996 29.4147 24.5057 29.4147 24.4121 29.4092C24.3986 29.4716 24.3641 29.5276 24.3144 29.5678C24.2648 29.608 24.2028 29.6301 24.1388 29.6305H24.0913C24.0165 29.6179 23.9497 29.5764 23.9052 29.5151C23.8608 29.4537 23.8423 29.3774 23.8537 29.3026V29.2393C23.6711 29.107 23.5311 28.9244 23.4509 28.7138C23.3707 28.5033 23.3538 28.274 23.4023 28.054L23.4459 28.0145L23.4894 27.9829C23.4894 27.9829 23.5449 27.9433 23.6201 27.9038L23.4102 27.8722C23.3727 27.8655 23.3392 27.8443 23.317 27.8133C23.2948 27.7823 23.2857 27.7439 23.2914 27.7063C23.2943 27.6875 23.3009 27.6694 23.3109 27.6532C23.3209 27.637 23.334 27.623 23.3495 27.612C23.365 27.6009 23.3826 27.5931 23.4012 27.5889C23.4197 27.5847 23.439 27.5843 23.4577 27.5877L23.9606 27.6668L24.0082 25.9045L24.7566 25.1143L25.2239 26.0942L24.7328 27.7892L25.1763 27.8604C25.2139 27.8671 25.2473 27.8883 25.2695 27.9193C25.2917 27.9503 25.3009 27.9887 25.2951 28.0263C25.2895 28.0598 25.272 28.0902 25.2458 28.1119C25.2197 28.1336 25.1866 28.1453 25.1526 28.1449H25.1288L24.7685 28.0856V28.1132C24.8085 28.1838 24.8693 28.2404 24.9427 28.2752L27.1523 28.3108L27.7186 27.7537C27.5071 27.6808 27.3206 27.5497 27.1805 27.3757C27.0404 27.2016 26.9524 26.9916 26.9266 26.7698C26.6513 26.6658 26.4261 26.4609 26.297 26.1969C26.1895 25.9472 26.1714 25.6682 26.2455 25.4067C25.8968 25.2704 25.582 25.0601 25.3228 24.7903H22.0005C22.1564 25.1738 22.2435 25.5817 22.2579 25.9954V30.2508Z" fill="#FCE527"/>
<path d="M25.3069 32.0843C25.2941 32.0832 25.2812 32.0848 25.269 32.0888C25.2568 32.0929 25.2456 32.0993 25.2359 32.1078C25.2263 32.1164 25.2185 32.1267 25.213 32.1383C25.2075 32.15 25.2044 32.1626 25.2039 32.1754C25.2029 32.1882 25.2044 32.2011 25.2084 32.2133C25.2125 32.2255 25.219 32.2367 25.2275 32.2464C25.236 32.256 25.2464 32.2638 25.258 32.2693C25.2696 32.2748 25.2822 32.2779 25.295 32.2784C25.3208 32.2784 25.3454 32.2681 25.3636 32.2499C25.3818 32.2317 25.392 32.2071 25.392 32.1813C25.392 32.1556 25.3818 32.1309 25.3636 32.1127C25.3454 32.0945 25.3208 32.0843 25.295 32.0843" fill="#222220"/>
<path d="M31.762 38.5524L31.2156 38.343L31.366 37.778L31.5324 37.1616C30.7854 37.5435 30.0029 37.8518 29.196 38.0822C28.8 38.1929 28.5149 38.2442 28.5149 38.2442V38.6631C28.0291 38.7418 27.538 38.7841 27.0458 38.7895H27.0101C26.518 38.7842 26.0269 38.7419 25.541 38.6631V38.2442C25.541 38.2442 25.248 38.1929 24.8599 38.0822C24.053 37.8519 23.2705 37.5436 22.5236 37.1616L22.6543 37.778L22.8087 38.343L22.2583 38.5524L21.6484 38.7777C22.466 39.2062 23.3192 39.5632 24.1986 39.8445L23.9887 40.4135C24.9438 40.777 25.9606 40.9514 26.9824 40.9271H27.0101C28.032 40.9515 29.0488 40.7771 30.0038 40.4135L29.794 39.8445C30.6736 39.5639 31.5269 39.2069 32.3441 38.7777L31.762 38.5524ZM22.3256 38.8172L23.2245 38.5208L22.9592 37.6555C23.5389 37.9444 24.1415 38.1849 24.7609 38.3746L24.3253 39.56C23.636 39.3783 22.9662 39.1295 22.3256 38.8172V38.8172ZM27.0101 40.6308C26.1358 40.6218 25.2664 40.4982 24.4243 40.2633L24.9589 38.8211C25.6299 38.9881 26.3186 39.0744 27.0101 39.078H27.0537C27.7401 39.0716 28.4233 38.9841 29.0891 38.8172L29.6039 40.2633C28.7603 40.4973 27.8896 40.6195 27.0141 40.6268L27.0101 40.6308ZM29.7068 39.556L29.2713 38.3707C29.8907 38.181 30.4933 37.9405 31.073 37.6516L30.8077 38.5169L31.7066 38.8132C31.0648 39.1261 30.3937 39.3749 29.7029 39.556" fill="#222220"/>
<path d="M27.0098 16.0346C27.9037 16.0106 28.7811 16.2783 29.5085 16.7972C29.6219 16.211 29.8406 15.6502 30.154 15.1417L29.2551 15.2444L28.7839 14.2487L27.881 14.711L27.0098 13.8496L26.1387 14.711L25.2358 14.2487L24.7685 15.2444L23.8696 15.1417C24.1834 15.65 24.4021 16.2109 24.5151 16.7972C25.2417 16.2797 26.1174 16.012 27.0098 16.0346V16.0346ZM24.7289 15.5921L24.9784 15.6197L25.0853 15.3945L25.3982 14.7268L25.9803 15.0271L26.206 15.1417L26.3842 14.9638L27.0098 14.3396L27.6395 14.9757L27.8216 15.1535L28.0473 15.0389L28.6255 14.7386L28.9423 15.4064L29.0492 15.6316L29.2987 15.6039L29.5363 15.5763C29.4404 15.7935 29.3584 16.0165 29.2907 16.244C28.5867 15.8841 27.8069 15.6964 27.0158 15.6964C26.2247 15.6964 25.4449 15.8841 24.7408 16.244C24.6728 16.0166 24.5908 15.7936 24.4953 15.5763L24.7289 15.5921Z" fill="#222220"/>
<path d="M40.0775 27.6904C41.5189 27.6904 42.002 26.2285 42.0218 26.1653L42.1841 25.6516H41.6456C41.0831 25.6326 40.5315 25.4912 40.0295 25.2373C39.5274 24.9834 39.087 24.6232 38.739 24.1818L38.6321 24.0474C37.8956 23.1149 37.1986 22.2259 35.9473 21.8189C35.9969 21.7753 36.0499 21.7357 36.1057 21.7004C36.399 21.5344 36.653 21.3073 36.8505 21.0346C37.048 20.7619 37.1843 20.4499 37.2501 20.1199C37.3172 19.5173 37.1468 18.9123 36.7749 18.4328L36.3789 17.9389L36.1176 18.5315C36.1176 18.5671 35.678 19.5075 34.791 19.5075H34.7237H34.5494C34.5718 19.1991 34.5267 18.8896 34.4173 18.6003C34.3079 18.311 34.1368 18.0489 33.9159 17.8322C33.6513 17.5629 33.3351 17.3495 32.986 17.2049C32.637 17.0603 32.2623 16.9874 31.8844 16.9906C31.7426 16.99 31.6009 17.0005 31.4607 17.0222L30.8548 17.1407L31.2271 17.6307C31.5201 18.0258 31.7854 18.7093 31.4726 19.0729C31.3227 19.203 31.1512 19.306 30.9657 19.3771C30.5697 19.5628 29.9995 19.8275 29.9995 20.4913C29.9995 20.922 30.3361 21.3725 30.942 21.7518C32.7358 22.8779 33.8406 24.0514 34.3198 25.3474C35.0603 27.323 34.0941 28.4807 33.1556 29.0773L32.7358 29.346L33.1041 29.6818C33.4325 29.9612 33.8388 30.1335 34.2683 30.1757C34.395 30.1757 34.5138 30.1757 34.6286 30.1757C34.9962 30.1772 35.3619 30.1239 35.7137 30.0177C35.626 30.1706 35.5239 30.3148 35.4087 30.4484C35.1453 30.754 34.8154 30.9956 34.4441 31.1544C34.0727 31.3133 33.6699 31.3854 33.2664 31.365H32.914L32.8863 31.7167C32.8845 31.9602 32.9364 32.2011 33.0384 32.4224C33.1403 32.6436 33.2898 32.8398 33.4763 32.9969C33.575 33.0834 33.6857 33.1552 33.805 33.2103C33.2199 33.7791 32.8851 34.5565 32.8744 35.3716C32.8738 35.819 32.7723 36.2606 32.5774 36.6636L32.1814 37.2563H32.8863C34.0479 37.2563 34.9375 36.9389 35.5553 36.3041C35.8759 35.9677 36.1144 35.5621 36.2522 35.1187C36.4811 35.3112 36.7525 35.4466 37.0442 35.5138C37.1831 35.5459 37.3253 35.5618 37.4679 35.5612C37.6813 35.5606 37.8939 35.5354 38.1015 35.4862L38.5489 35.3676L38.351 34.9488C38.1029 34.2808 38.1029 33.5463 38.351 32.8784C38.4978 32.442 38.6 31.9919 38.6559 31.535C39.0125 31.7163 39.4079 31.8085 39.8082 31.8036C40.1297 31.8085 40.4472 31.732 40.731 31.5814C41.0149 31.4308 41.256 31.2109 41.4318 30.9423L41.6496 30.5472L41.2536 30.3812C39.927 29.832 39.634 28.3582 39.5785 27.56C39.709 27.5864 39.8415 27.6023 39.9745 27.6075L40.0775 27.6904ZM41.1268 30.8119C40.9875 31.0222 40.7973 31.1941 40.5737 31.3115C40.3501 31.4289 40.1004 31.4881 39.8478 31.4836V31.4836C39.5635 31.5004 39.2792 31.4497 39.0184 31.3357C38.7575 31.2217 38.5274 31.0476 38.347 30.8277C38.3588 31.5003 38.2488 32.1696 38.0223 32.8033C37.7331 33.5672 37.7331 34.4101 38.0223 35.174C37.846 35.2175 37.6653 35.24 37.4837 35.2412C37.3716 35.242 37.2599 35.2287 37.1511 35.2017C36.8928 35.1406 36.6545 35.0144 36.459 34.8353C36.2635 34.6561 36.1173 34.4299 36.0344 34.1783C36.0344 34.1783 36.1176 36.9165 32.918 36.9165H32.8942C33.1369 36.4604 33.2621 35.9512 33.2585 35.4348C33.409 33.4039 34.787 33.1233 34.787 33.1233C34.415 33.0822 34.0573 32.9565 33.7416 32.7559C33.5991 32.6364 33.484 32.4878 33.4041 32.3201C33.3241 32.1524 33.2812 31.9696 33.2783 31.7839C33.7354 31.8038 34.191 31.7199 34.6108 31.5385C35.0306 31.3571 35.4036 31.083 35.7018 30.7368C36.0642 30.3226 36.3089 29.8192 36.4106 29.2788C35.9011 29.6618 35.2739 29.856 34.6366 29.828C34.5336 29.828 34.4227 29.828 34.3118 29.828C33.9676 29.7932 33.6419 29.6555 33.3773 29.4329C34.597 28.6427 35.4483 27.2953 34.692 25.2446C34.0861 23.6049 32.6249 22.3761 31.1558 21.4554C30.6687 21.1512 30.3955 20.8114 30.3955 20.523C30.3955 19.8354 31.3736 19.8157 31.7735 19.3376C32.2369 18.8002 31.9478 17.9349 31.5439 17.4094C31.6589 17.3896 31.7756 17.3804 31.8923 17.3817C32.2188 17.3783 32.5426 17.441 32.8441 17.566C33.1456 17.6909 33.4186 17.8756 33.6466 18.1088C33.8747 18.326 34.0388 18.6014 34.1212 18.905C34.2036 19.2087 34.201 19.5291 34.1139 19.8315L34.3277 19.875C34.4584 19.8986 34.5908 19.9118 34.7237 19.9145H34.8108C35.971 19.9145 36.4898 18.7054 36.4898 18.7054C36.4898 18.7054 37.7213 20.2187 35.9077 21.4041C35.5949 21.6056 35.4563 21.7992 35.5117 21.9967L35.5394 22.1271L35.6701 22.1508C36.9848 22.5065 37.65 23.4113 38.4658 24.4425C38.8477 24.9204 39.3284 25.3103 39.8751 25.5858C40.4218 25.8613 41.0217 26.0158 41.6337 26.0388H41.6614C41.6614 26.0388 41.2654 27.2953 40.0775 27.2953H40.022C39.7343 27.2979 39.4517 27.2199 39.2063 27.0701C39.2063 27.0701 38.9964 29.9189 41.1268 30.804" fill="#222220"/>
<path d="M37.5509 21.9928C37.9937 22.2446 38.3772 22.5882 38.6755 23.0004C38.9001 23.3487 39.2224 23.6235 39.6021 23.7906C39.7464 23.8388 39.8975 23.8628 40.0496 23.8617C40.3462 23.8609 40.6369 23.7786 40.8897 23.6239C41.1426 23.4692 41.3479 23.248 41.4831 22.9846L41.7128 22.4749L41.1544 22.4433C40.5557 22.3349 40.0121 22.0254 39.614 21.5661C39.4671 21.407 39.2891 21.2796 39.0909 21.192C38.8927 21.1043 38.6785 21.0581 38.4617 21.0564C38.1241 21.0622 37.7949 21.1621 37.5113 21.3448L37.0005 21.7044L37.5509 21.9928ZM38.4657 21.4318C38.6311 21.4332 38.7943 21.4691 38.945 21.5371C39.0957 21.6052 39.2305 21.7039 39.3408 21.8269C39.806 22.3542 40.4399 22.7046 41.1346 22.8186C41.0292 23.0138 40.8734 23.1771 40.6833 23.2918C40.4931 23.4064 40.2757 23.4682 40.0536 23.4706C39.9417 23.4708 39.8305 23.4521 39.7249 23.4153C39.0874 23.2019 38.8577 22.2299 37.745 21.6491C37.9624 21.5091 38.2148 21.4324 38.4736 21.4278" fill="#222220"/>
<path d="M37.8007 27.0703C37.476 24.4665 35.5832 22.5857 33.4765 21.4438C33.2825 21.3411 33.1003 21.2502 32.9261 21.1673C33.3562 21.2544 33.8001 21.2475 34.2273 21.1473C34.6545 21.047 35.0549 20.8557 35.401 20.5864C35.401 20.5864 34.1814 21.4833 31.6787 20.6694C32.3717 21.1159 33.7141 21.7481 34.9456 22.7754C38.0146 25.4662 35.8208 28.0937 35.8208 28.0937C36.2691 27.6676 36.5852 27.1218 36.7313 26.5214C36.8773 25.921 36.8472 25.2913 36.6444 24.7075C37.2944 25.7848 37.6061 27.0316 37.5394 28.2873C37.4562 30.3577 36.3158 32.1437 35.1159 33.5819C34.7583 34.0349 34.5163 34.5678 34.411 35.1347C34.62 34.5796 34.9301 34.0679 35.3258 33.6254C36.6088 32.1239 37.7017 30.5672 37.8522 28.3189C37.9829 28.714 38.5333 29.8599 39.4005 30.2945C39.4005 30.2945 38.3076 29.6386 37.8166 27.0822" fill="#222220"/>
<path d="M21.4426 36.7073C21.2505 36.3033 21.1491 35.8623 21.1456 35.4152C21.1348 34.6002 20.8001 33.8227 20.215 33.2539C20.3344 33.1991 20.4451 33.1272 20.5437 33.0405C20.7303 32.8836 20.88 32.6875 20.982 32.4662C21.084 32.2449 21.1358 32.0039 21.1337 31.7604L21.1099 31.4087H20.7535C20.3507 31.4284 19.9487 31.3561 19.5781 31.1972C19.2075 31.0383 18.8782 30.7972 18.6152 30.492C18.4959 30.3548 18.3898 30.2066 18.2984 30.0495C18.6489 30.1556 19.0132 30.2088 19.3795 30.2075C19.4943 30.2075 19.6131 30.2075 19.7398 30.2075C20.1697 30.1639 20.5759 29.9902 20.904 29.7097L21.2723 29.3738L20.8525 29.1051C19.914 28.5046 18.9518 27.3666 19.6883 25.3752C20.1675 24.0792 21.2723 22.9057 23.0661 21.7796C23.672 21.3845 24.0046 20.9459 24.0046 20.5192C24.0046 19.8554 23.4502 19.5946 23.0424 19.4049C22.8568 19.334 22.6852 19.231 22.5355 19.1007C22.2187 18.7372 22.484 18.0378 22.7771 17.6585L23.1532 17.1686L22.5434 17.05C22.4046 17.0285 22.2642 17.0179 22.1237 17.0184C21.7457 17.015 21.371 17.0878 21.0219 17.2325C20.6728 17.3771 20.3566 17.5905 20.0922 17.86C19.8796 18.0767 19.7156 18.336 19.6112 18.6208C19.5067 18.9055 19.4642 19.2092 19.4864 19.5116H19.3121H19.2488C18.338 19.5235 17.9024 18.5831 17.9024 18.5317L17.6529 17.943L17.2569 18.4369C16.8876 18.9176 16.7187 19.5221 16.7857 20.1241C16.8513 20.4541 16.9875 20.7662 17.185 21.039C17.3825 21.3117 17.6367 21.5387 17.9301 21.7045C17.9861 21.7396 18.0391 21.7792 18.0885 21.8231C16.8372 22.2182 16.1403 23.1191 15.4037 24.0516L15.2968 24.1859C14.9484 24.6278 14.5073 24.9883 14.0046 25.2422C13.5018 25.4961 12.9495 25.6373 12.3863 25.6557H11.8438L12.0101 26.1694C12.0101 26.2326 12.509 27.6946 13.9504 27.6946H14.0217C14.1547 27.6892 14.2872 27.6734 14.4177 27.6472C14.3583 28.4374 14.0653 29.9191 12.7387 30.4683L12.3427 30.6343L12.5605 31.0294C12.7362 31.2993 12.9776 31.5203 13.2623 31.6717C13.547 31.823 13.8655 31.8998 14.188 31.8947C14.5869 31.8988 14.9809 31.8066 15.3364 31.626C15.392 32.083 15.4942 32.5331 15.6413 32.9694C15.8894 33.6374 15.8894 34.3719 15.6413 35.0398L15.4433 35.4587L15.8947 35.5772C16.1023 35.6265 16.3149 35.6517 16.5283 35.6523C16.6709 35.653 16.8131 35.6371 16.952 35.6049C17.2438 35.5379 17.5153 35.4025 17.744 35.2098C17.8806 35.6528 18.1177 36.0584 18.437 36.3951C19.0547 37.0299 19.9444 37.3474 21.106 37.3474H21.8108L21.4426 36.7073ZM21.102 36.9246C17.9024 36.9246 17.9856 34.1864 17.9856 34.1864C17.9027 34.438 17.7565 34.6642 17.561 34.8434C17.3655 35.0225 17.1272 35.1487 16.8689 35.2098C16.7601 35.2371 16.6484 35.2503 16.5362 35.2493C16.356 35.248 16.1766 35.2254 16.0017 35.1821C16.2901 34.4181 16.2901 33.5754 16.0017 32.8114C15.7767 32.1774 15.668 31.5082 15.6809 30.8358C15.5007 31.0559 15.2707 31.2302 15.0097 31.3442C14.7488 31.4583 14.4644 31.5088 14.1801 31.4917V31.4917C13.9275 31.4958 13.678 31.4365 13.4545 31.3191C13.2309 31.2017 13.0406 31.03 12.901 30.82C15.0315 29.9349 14.8256 27.0861 14.8256 27.0861C14.5801 27.2359 14.2975 27.3139 14.0098 27.3113H13.9425C12.7545 27.3113 12.3585 26.0548 12.3585 26.0548H12.3823C13.0007 26.0336 13.607 25.8781 14.159 25.5989C14.7109 25.3198 15.1952 24.9239 15.5779 24.4388C16.3897 23.4075 17.0589 22.5027 18.3736 22.1471L18.5043 22.1234L18.532 21.993C18.5677 21.7915 18.4291 21.5979 18.136 21.4003C16.3224 20.2149 17.5539 18.7016 17.5539 18.7016C17.5539 18.7016 18.0687 19.9107 19.2329 19.9107H19.3161C19.4489 19.9079 19.5813 19.8946 19.7121 19.8712L19.9259 19.8277C19.8383 19.5254 19.8355 19.2049 19.9179 18.9011C20.0003 18.5973 20.1647 18.3219 20.3932 18.105C20.6212 17.8718 20.8942 17.6872 21.1957 17.5622C21.4972 17.4373 21.821 17.3746 22.1474 17.378C22.2642 17.3765 22.3808 17.3858 22.4959 17.4056C22.0999 17.9272 21.8069 18.7965 22.2702 19.3338C22.6662 19.7961 23.6482 19.8159 23.6482 20.5192C23.6482 20.8116 23.375 21.1474 22.8879 21.4517C21.4188 22.3763 19.9616 23.6011 19.3517 25.2409C18.5954 27.2876 19.4507 28.6468 20.6704 29.4291C20.4046 29.6522 20.0775 29.79 19.7319 29.8243C19.617 29.8243 19.5101 29.8243 19.4032 29.8243C18.7659 29.8522 18.1387 29.658 17.6292 29.275C17.7306 29.8147 17.9739 30.3179 18.334 30.733C18.6332 31.0791 19.007 31.3531 19.4274 31.5344C19.8478 31.7158 20.3039 31.7998 20.7615 31.7801C20.7567 31.968 20.711 32.1526 20.6276 32.3211C20.5442 32.4897 20.425 32.6381 20.2784 32.7561C19.9615 32.9681 19.5995 33.1034 19.2211 33.1512C19.2211 33.1512 20.5991 33.4317 20.7535 35.4626C20.7494 35.9786 20.8732 36.4876 21.1139 36.9443L21.102 36.9246Z" fill="#222220"/>
<path d="M13.9776 23.8579C14.1297 23.8589 14.2809 23.8349 14.4251 23.7868C14.805 23.6199 15.1273 23.345 15.3517 22.9966C15.6501 22.5844 16.0336 22.2408 16.4763 21.989L17.0307 21.6927L16.5159 21.3331C16.2324 21.1502 15.9031 21.0503 15.5655 21.0447C15.3487 21.0464 15.1346 21.0926 14.9364 21.1802C14.7382 21.2679 14.5601 21.3953 14.4132 21.5544C14.0152 22.0137 13.4716 22.3232 12.8728 22.4315L12.3145 22.4829L12.5441 22.9926C12.6799 23.2553 12.8854 23.4757 13.1382 23.6297C13.391 23.7837 13.6814 23.8654 13.9776 23.8658V23.8579ZM14.6864 21.8389C14.7971 21.7154 14.9326 21.6164 15.084 21.5483C15.2354 21.4803 15.3995 21.4446 15.5655 21.4437C15.8243 21.4486 16.0766 21.5252 16.2942 21.665C15.1735 22.2616 14.9438 23.2178 14.3142 23.4312C14.2099 23.468 14.1001 23.4868 13.9895 23.4865C13.7673 23.4845 13.5497 23.423 13.3595 23.3083C13.1693 23.1936 13.0135 23.03 12.9084 22.8346C13.6018 22.7197 14.2341 22.3694 14.6983 21.8428" fill="#222220"/>
<path d="M16.4924 28.3068C16.4242 27.051 16.736 25.8038 17.3873 24.7271C17.1846 25.3108 17.1545 25.9405 17.3005 26.5409C17.4465 27.1413 17.7626 27.6871 18.211 28.1132C18.211 28.1132 16.0132 25.4857 19.0901 22.7949C20.3177 21.7716 21.6601 21.1394 22.3531 20.6889C19.8544 21.5029 18.6307 20.606 18.6307 20.606C18.9762 20.8749 19.376 21.0661 19.8025 21.1663C20.229 21.2666 20.6722 21.2736 21.1017 21.1868C20.9275 21.2698 20.7453 21.3606 20.5513 21.4634C18.4407 22.6053 16.5478 24.486 16.2231 27.0899V27.0701C15.7321 29.6265 14.6392 30.2824 14.6392 30.2824C15.5064 29.8557 16.0528 28.7217 16.1875 28.3068C16.334 30.5551 17.4309 32.1119 18.7179 33.6133C19.111 34.0644 19.4171 34.5842 19.6207 35.1464C19.5142 34.579 19.271 34.0461 18.9119 33.5936C17.7239 32.1553 16.5756 30.3654 16.4924 28.2989" fill="#222220"/>
<path d="M26.2892 23.04V23.5576C26.3578 23.4915 26.4403 23.4416 26.5308 23.4115C26.6212 23.3814 26.7173 23.3719 26.8119 23.3838V24.1266C26.809 24.3109 26.76 24.4915 26.6694 24.6521H27.4059C27.316 24.4912 27.2671 24.3108 27.2634 24.1266V23.3838C27.358 23.3719 27.454 23.3814 27.5445 23.4115C27.635 23.4416 27.7175 23.4915 27.7861 23.5576V23.04H26.2773H26.2892Z" fill="#222220"/>
<path d="M25.9686 19.9778C26.0848 20.0777 26.2192 20.1542 26.3646 20.2031L26.4596 20.2465V19.7605L25.5845 19.3931C25.6058 19.5133 25.652 19.6278 25.7202 19.7291C25.7884 19.8305 25.877 19.9166 25.9805 19.9818" fill="#222220"/>
<path d="M28.0553 19.9779C28.1589 19.9128 28.2477 19.8268 28.3159 19.7254C28.3841 19.624 28.4302 19.5095 28.4513 19.3892L27.5762 19.7566V20.2426L27.6673 20.1992C27.8128 20.1508 27.9474 20.0743 28.0632 19.9739" fill="#222220"/>
<path d="M29.6352 17.9984C29.6352 17.2595 28.3918 16.5957 27.0177 16.5957C25.6436 16.5957 24.4002 17.2595 24.4002 17.9984L24.428 18.1801L24.9784 21.3411L24.428 21.6611L22.9905 22.483C22.9905 22.483 22.6698 22.6489 22.5193 22.7477C21.9768 23.1428 21.8619 23.6723 22.1748 23.8975C22.2126 23.6369 22.3454 23.3993 22.5478 23.2302C22.7501 23.0611 23.0078 22.9723 23.2717 22.9808C23.4964 22.9869 23.7165 23.0459 23.914 23.153C24.1115 23.2601 24.2808 23.4124 24.4082 23.5972C24.4857 23.6928 24.5571 23.7931 24.622 23.8975C24.7051 24.0319 24.7883 24.1504 24.8675 24.265H21.2046C21.5131 24.7958 21.6934 25.3911 21.7313 26.0035V34.1035C21.7313 36.0791 23.2439 37.0037 24.8992 37.0037C26.1624 37.0037 26.3327 36.9444 27.0336 37.6398C27.7266 36.9444 27.8968 37.0037 29.164 37.0037C30.7994 37.0037 32.3121 36.0672 32.3121 34.1035V25.9956C32.35 25.3832 32.5303 24.7879 32.8388 24.2571H29.1482C29.2313 24.1425 29.3145 24.024 29.3937 23.8896C29.4595 23.7858 29.5309 23.6855 29.6075 23.5893C29.7351 23.4047 29.9044 23.2526 30.1019 23.1455C30.2994 23.0384 30.5193 22.9793 30.744 22.9729C31.0076 22.9653 31.2649 23.0543 31.467 23.2233C31.6692 23.3922 31.8022 23.6293 31.8409 23.8896C32.1577 23.6644 32.0429 23.0994 31.4964 22.7398C31.3499 22.6371 31.0291 22.4751 31.0291 22.4751L29.6036 21.6453L29.0531 21.3253L29.6036 18.1643L29.6352 17.9984ZM24.9309 18.3619L26.8593 19.0138V22.0365L25.4259 21.2976L24.9309 18.3619ZM25.3269 24.7826C25.5859 25.0525 25.9007 25.2628 26.2495 25.399C26.1754 25.6605 26.1935 25.9395 26.301 26.1892C26.4301 26.4532 26.6553 26.6581 26.9306 26.7621C26.9564 26.9839 27.0444 27.1939 27.1845 27.368C27.3246 27.542 27.5111 27.6731 27.7226 27.746L27.1563 28.3031L24.9467 28.2675C24.8733 28.2327 24.8125 28.1761 24.7725 28.1055V28.0779L25.1328 28.1372H25.1566C25.1906 28.1376 25.2237 28.1259 25.2498 28.1042C25.276 28.0825 25.2935 28.0521 25.2991 28.0186C25.3049 27.981 25.2957 27.9426 25.2735 27.9116C25.2513 27.8806 25.2179 27.8594 25.1803 27.8527L24.7368 27.7816L25.2279 26.0865L24.7606 25.1066L24.0122 25.8968L23.9646 27.6591L23.4459 27.5721C23.4271 27.5688 23.4079 27.5692 23.3893 27.5733C23.3707 27.5775 23.3532 27.5853 23.3377 27.5964C23.3221 27.6074 23.309 27.6214 23.299 27.6376C23.2891 27.6538 23.2825 27.6719 23.2796 27.6907C23.2738 27.7283 23.283 27.7667 23.3052 27.7977C23.3274 27.8287 23.3608 27.8499 23.3984 27.8566L23.6083 27.8882C23.533 27.9317 23.4815 27.9633 23.4776 27.9712L23.4459 28.0147V28.066C23.3974 28.286 23.4143 28.5153 23.4945 28.7259C23.5747 28.9364 23.7147 29.1191 23.8973 29.2514V29.3146C23.8859 29.3895 23.9044 29.4658 23.9488 29.5271C23.9933 29.5885 24.0601 29.63 24.1349 29.6426H24.1824C24.2464 29.6422 24.3084 29.6201 24.358 29.5799C24.4077 29.5396 24.4422 29.4837 24.4557 29.4213C24.5493 29.4268 24.6432 29.4268 24.7368 29.4213H24.7962L27.6949 29.9429L27.7424 29.9112C27.9721 29.7492 28.8551 29.121 29.1442 28.8958C29.228 28.9685 29.3212 29.0297 29.4214 29.0775C29.3549 29.281 29.3448 29.4986 29.3922 29.7073C29.4396 29.916 29.5427 30.108 29.6907 30.2629H22.2579V25.9956C22.2415 25.5801 22.1517 25.1708 21.9926 24.7865L25.3269 24.7826ZM28.8908 28.6745C28.5977 28.8918 27.8414 29.4411 27.5682 29.6307L24.9348 29.1566V29.0854C24.9879 28.9108 25.0198 28.7303 25.0299 28.5481L27.2434 28.5836L27.287 28.5402C27.3187 28.5086 28.0236 27.829 28.3799 27.4417C28.4734 27.5584 28.5858 27.6586 28.7126 27.7381C28.6513 28.0625 28.718 28.398 28.8987 28.6745H28.8908ZM24.4992 28.2241C24.5569 28.3355 24.6447 28.4286 24.7527 28.4928C24.7494 28.6531 24.7335 28.813 24.7051 28.9709C24.7051 29.0064 24.7051 29.042 24.6774 29.0775V29.1329C24.4973 29.1334 24.3182 29.1054 24.1468 29.0499C23.9924 28.9669 23.8672 28.8387 23.7879 28.6826C23.7086 28.5266 23.6791 28.35 23.7033 28.1767C23.8462 28.0851 24.0093 28.0295 24.1785 28.0147C24.2485 28.0132 24.3172 28.0338 24.3748 28.0735C24.4324 28.1132 24.4759 28.1701 24.4992 28.2359V28.2241ZM24.2379 27.6986L24.2814 26.0035L24.6774 25.6084L24.915 26.1062L24.4438 27.7302L24.2379 27.6986ZM28.8987 36.4781H28.5027L28.8155 35.5022C28.8631 35.3679 28.6175 35.194 28.5146 35.0399C28.7571 35.1843 29.0069 35.3162 29.263 35.435C29.263 35.4666 28.8987 36.4702 28.8987 36.4702V36.4781ZM29.8847 35.3639L29.6788 36.4307C29.5481 36.4307 29.4095 36.4584 29.2828 36.4623L29.5006 35.439C29.564 35.1347 28.7443 35.0439 28.3403 34.4393C28.2104 34.5476 28.0601 34.6289 27.8983 34.6784C27.7364 34.7279 27.5663 34.7447 27.3979 34.7278C27.0986 34.7238 26.8003 34.6921 26.5069 34.6329C26.4568 34.629 26.4065 34.629 26.3564 34.6329C26.2955 34.6286 26.2345 34.6415 26.1806 34.6701C26.1267 34.6988 26.0819 34.742 26.0515 34.7949L25.9921 34.8937L24.8754 34.6329L24.5982 35.0913C24.5771 35.1225 24.5675 35.1601 24.5711 35.1976C24.5747 35.2351 24.5913 35.2701 24.618 35.2967L24.6933 35.3797C24.6196 35.5255 24.5234 35.6589 24.4082 35.7748L24.2418 35.5694C24.1775 35.4722 24.1429 35.3585 24.1422 35.242C24.1415 35.1256 24.1747 35.0114 24.2379 34.9135L24.6814 34.1667L25.6278 34.301L25.4813 33.9652C25.2833 33.5226 25.5842 32.9616 25.6159 32.6376C25.6159 32.7364 25.513 32.7561 25.41 32.7561C25.3071 32.7561 25.2081 32.7561 25.1368 32.7561C25.1161 32.7502 25.0941 32.7502 25.0734 32.7561L24.816 32.9102L24.6339 32.7285C24.6189 32.7004 24.6136 32.6683 24.6186 32.6369C24.6236 32.6055 24.6387 32.5766 24.6616 32.5546L25.1289 32.0291L24.5745 31.385L25.3665 31.7802L25.604 31.4957C25.6674 31.5589 25.6397 31.7248 25.6397 31.7248C25.9175 31.7947 26.1634 31.9567 26.3368 32.1843C26.5102 32.4119 26.6009 32.6916 26.594 32.9774C26.594 33.005 26.594 33.0327 26.594 33.0643V33.092C26.673 33.2173 26.7981 33.3067 26.9425 33.3409L28.0117 33.4476C28.2236 33.3824 28.4409 33.3361 28.6611 33.3093C28.8525 33.3102 29.0396 33.3665 29.1996 33.4713C29.2745 33.4202 29.3624 33.3915 29.4531 33.3883H29.4887C29.9679 33.3883 30.1698 33.8229 30.4272 34.1785C30.6212 34.4512 30.8786 34.8582 30.8786 34.8582C30.8424 34.9131 30.793 34.9581 30.7349 34.9891C30.6768 35.0202 30.6119 35.0363 30.546 35.036C30.4999 35.0406 30.4535 35.0406 30.4074 35.036C29.8926 34.9411 29.8174 33.8862 29.5244 33.8032H29.4768C29.4491 33.804 29.422 33.8121 29.3984 33.8267C29.3748 33.8413 29.3554 33.8618 29.3422 33.8862C29.4768 34.2457 29.3976 34.3919 29.5442 34.6764C29.6521 34.8472 29.7857 35.0004 29.9401 35.1308C29.9401 35.1308 29.9203 35.2849 29.8966 35.4034L29.8847 35.3639ZM24.123 34.3643L24.1706 34.4867C24.1389 34.5934 23.7746 34.7475 23.7746 34.7475L23.6954 34.5737C23.6449 34.4538 23.6363 34.3205 23.6707 34.1952C23.7052 34.0698 23.7808 33.9596 23.8854 33.8822L24.4874 33.5187L25.1249 33.653C25.1214 33.7793 25.1605 33.9031 25.2358 34.0047L24.5666 33.8783L24.1706 34.1548C24.1407 34.1807 24.1208 34.2162 24.1143 34.2551C24.1078 34.2941 24.1151 34.334 24.1349 34.3682L24.123 34.3643ZM29.9877 36.3833L30.1698 35.4271C30.1698 35.3718 30.1896 35.3046 30.1975 35.2493C30.251 35.2723 30.3067 35.2895 30.3639 35.3007C30.4271 35.3066 30.4907 35.3066 30.5539 35.3007C30.6605 35.3002 30.7655 35.2754 30.8609 35.2282C30.9563 35.1809 31.0396 35.1124 31.1044 35.0281L31.2469 34.8661L31.1321 34.6882C31.1321 34.6882 30.8668 34.2694 30.6727 33.9928L30.5619 33.8269C30.4674 33.6192 30.3194 33.4403 30.1329 33.3084C29.9465 33.1765 29.7283 33.0963 29.5006 33.0762H29.4491C29.3693 33.0804 29.2906 33.0964 29.2155 33.1236C29.045 33.0415 28.8583 32.9983 28.669 32.9971C28.4795 33.0015 28.2921 33.0376 28.1146 33.1038L28.0196 33.1315L26.9742 33.0287C26.9314 33.008 26.8946 32.9767 26.8673 32.9379V32.9379L27.093 32.847C27.0296 32.0963 26.301 31.634 25.905 31.4759C25.8871 31.3948 25.8458 31.3206 25.7862 31.2626L25.5605 31.0492L25.3625 31.2863L25.2635 31.4048L23.7983 30.8042L24.7487 31.9896L24.3725 32.5586C24.3531 32.5777 24.3377 32.6004 24.3272 32.6255C24.3167 32.6506 24.3113 32.6775 24.3113 32.7047C24.3113 32.7319 24.3167 32.7589 24.3272 32.784C24.3377 32.8091 24.3531 32.8318 24.3725 32.8509L24.7685 33.1196L25.1645 32.9695H25.2041C25.2041 33.0287 25.1605 33.2698 25.1407 33.3369L24.4438 33.1986L23.7112 33.5938C23.5505 33.7091 23.4341 33.8759 23.3815 34.0664C23.329 34.2569 23.3433 34.4596 23.4221 34.6408L23.5053 34.8186L23.6201 35.0676L23.8775 34.9609C23.83 35.0863 23.8152 35.2218 23.8346 35.3545C23.854 35.4872 23.9069 35.6128 23.9884 35.7195L24.1428 35.9131L24.3488 36.1739L24.5784 35.9289C24.7284 35.7808 24.8481 35.605 24.9309 35.4113L24.9784 35.2533L24.8675 35.1308V35.1071L24.9942 34.9016L25.905 35.115L26.1109 35.1624L26.2218 34.9806L26.2812 34.8819C26.2812 34.8621 26.2812 34.8582 26.3366 34.8582H26.4356C26.7461 34.9199 27.0616 34.953 27.3781 34.9569C27.5907 34.9686 27.8038 34.9432 28.0077 34.8819L28.5067 35.522L28.1978 36.4465V36.5018C27.9756 36.4976 27.755 36.5402 27.5503 36.6266C27.3456 36.7131 27.1615 36.8415 27.0098 37.0037C26.5227 36.5216 26.1822 36.4742 24.8754 36.4742C23.3152 36.4742 22.2579 35.5615 22.2579 34.1035V30.5474H31.7617V34.1035C31.7835 34.6333 31.6153 35.1535 31.2872 35.5706C30.9591 35.9878 30.4927 36.2745 29.9718 36.3794L29.9877 36.3833ZM32.027 24.7865C31.8669 25.1705 31.777 25.58 31.7617 25.9956V28.6548C31.5932 28.6191 31.441 28.5296 31.3281 28.3998C31.2152 28.27 31.1478 28.1071 31.136 27.9356V27.8132H31.0172C30.8125 27.7956 30.6211 27.7043 30.4787 27.5563C30.2941 27.358 30.1872 27.0999 30.1777 26.8293C30.0947 26.9647 30.0544 27.1219 30.0621 27.2805C30.0699 27.4391 30.1254 27.5917 30.2213 27.7183C30.375 27.9142 30.5997 28.0419 30.847 28.0739C30.8821 28.2995 30.9908 28.5073 31.1561 28.6651C31.3214 28.823 31.5343 28.9221 31.7617 28.9472V30.2511H30.1183C29.9088 30.1455 29.7479 29.9635 29.669 29.7429C29.5901 29.5222 29.5993 29.2798 29.6946 29.0657L29.758 28.9234L29.6115 28.8681C29.383 28.788 29.1947 28.6225 29.0861 28.4066C28.9775 28.1906 28.9572 27.9411 29.0294 27.7104L29.061 27.5919L28.9502 27.5405C28.747 27.4222 28.5836 27.2465 28.4807 27.0354C28.3778 26.8244 28.34 26.5877 28.372 26.3552C28.2613 26.4636 28.1881 26.6045 28.1632 26.7573C28.1383 26.9101 28.1629 27.0668 28.2334 27.2047C28.1542 27.2916 28.0513 27.4022 27.9364 27.5168C27.7385 27.4737 27.5603 27.3667 27.4293 27.2125C27.2983 27.0582 27.2219 26.8653 27.2118 26.6634V26.5527L27.1207 26.5172C27.0021 26.482 26.8919 26.4232 26.7966 26.3444C26.7014 26.2657 26.623 26.1685 26.5663 26.0588C26.4896 25.8762 26.4757 25.6733 26.5267 25.482C26.605 25.4994 26.6844 25.5113 26.7643 25.5175C26.8448 25.5217 26.9254 25.5217 27.0059 25.5175V25.5175C27.3228 25.5168 27.6361 25.4496 27.9253 25.3203C28.2146 25.1909 28.4734 25.0024 28.6849 24.7668L32.027 24.7865ZM29.465 22.0879L30.1144 22.483L30.2767 22.5778C29.9398 22.6693 29.6344 22.851 29.3937 23.1033L29.366 23.127C29.3105 23.1863 29.259 23.2456 29.2076 23.3088L29.1759 23.3483C29.1257 23.4115 29.0782 23.4774 29.0333 23.5459L29.0096 23.5814C28.9541 23.6604 28.9027 23.7474 28.8512 23.8343C28.6749 24.182 28.4139 24.48 28.0922 24.7009C27.7705 24.9218 27.3983 25.0586 27.0098 25.0987C26.6185 25.0597 26.2433 24.9226 25.9193 24.7002C25.5953 24.4778 25.3329 24.1772 25.1566 23.8264C25.1051 23.7395 25.0536 23.6565 25.0021 23.5775L24.9705 23.534L24.8319 23.3444L24.7962 23.3009C24.7447 23.2377 24.6933 23.1784 24.6418 23.1231L24.6339 23.0875C24.3926 22.8367 24.0873 22.6563 23.7508 22.566L23.9171 22.4711L24.5666 22.076L25.2318 21.6809L27.0098 22.6806L28.7918 21.7125L29.465 22.0879ZM28.5938 21.2976L27.1722 22.0444V19.0178L29.1006 18.3658L28.5938 21.2976ZM27.0098 18.6898L24.8992 17.8561C25.0774 17.4334 25.909 17.0659 27.0098 17.0659C28.1107 17.0659 28.9422 17.4294 29.1244 17.8561L27.0098 18.6898Z" fill="#222220"/>
</svg>
